solid vcg
  facet normal 3.090170E-01 5.000000E-01 -8.090170E-01
    outer loop
      vertex 8.728731E-01 6.066880E00 1.996931E00
      vertex 1.043007E00 6.037818E00 2.043955E00
      vertex 1.043007E00 5.461257E00 1.687621E00
    endloop
  endfacet
  facet normal 0.000000E00 -8.506508E-01 -5.257311E-01
    outer loop
      vertex 2.730629E00 7.148879E00 5.461257E00
      vertex 1.582472E00 7.250959E00 5.296088E00
      vertex 1.687621E00 7.327045E00 5.172977E00
    endloop
  endfacet
  facet normal -5.877852E-01 4.253254E-01 -6.881909E-01
    outer loop
      vertex 1.962904E00 2.581786E01 1.670608E01
      vertex 0.000000E00 2.506810E01 1.791922E01
      vertex 0.000000E00 2.675572E01 1.896223E01
    endloop
  endfacet
  facet normal -5.877852E-01 4.253254E-01 -6.881909E-01
    outer loop
      vertex 1.962904E00 2.581786E01 1.670608E01
      vertex 0.000000E00 2.675572E01 1.896223E01
      vertex 1.962904E00 2.750548E01 1.774909E01
    endloop
  endfacet
  facet normal 5.257311E-01 0.000000E00 8.506508E-01
    outer loop
      vertex 0.000000E00 1.598538E01 1.325475E01
      vertex 2.730629E00 1.156713E01 1.156713E01
      vertex 2.730629E00 1.702839E01 1.156713E01
    endloop
  endfacet
  facet normal -3.090170E-01 5.000000E-01 -8.090170E-01
    outer loop
      vertex -1.043007E00 6.037818E00 2.043955E00
      vertex -8.728731E-01 6.066880E00 1.996931E00
      vertex -1.043007E00 5.461257E00 1.687621E00
    endloop
  endfacet
  facet normal 0.000000E00 -5.257311E-01 8.506508E-01
    outer loop
      vertex -1.213142E00 3.249226E01 2.904093E01
      vertex 1.213142E00 3.249226E01 2.904093E01
      vertex 1.213142E00 3.417988E01 3.008394E01
    endloop
  endfacet
  facet normal 0.000000E00 -5.257311E-01 8.506508E-01
    outer loop
      vertex -1.213142E00 3.249226E01 2.904093E01
      vertex 1.213142E00 3.417988E01 3.008394E01
      vertex -1.213142E00 3.417988E01 3.008394E01
    endloop
  endfacet
  facet normal 0.000000E00 -8.506508E-01 -5.257311E-01
    outer loop
      vertex -1.687621E00 2.755251E01 1.767300E01
      vertex -1.962904E00 2.750548E01 1.774909E01
      vertex -1.213142E00 2.871862E01 1.578618E01
    endloop
  endfacet
  facet normal 0.000000E00 -8.506508E-01 -5.257311E-01
    outer loop
      vertex -1.687621E00 2.755251E01 1.767300E01
      vertex -1.213142E00 2.871862E01 1.578618E01
      vertex -1.043007E00 2.859551E01 1.598538E01
    endloop
  endfacet
  facet normal 0.000000E00 5.257311E-01 -8.506508E-01
    outer loop
      vertex -1.043007E00 5.461257E00 1.687621E00
      vertex -7.027388E-01 6.037818E00 2.043955E00
      vertex 7.027388E-01 6.037818E00 2.043955E00
    endloop
  endfacet
  facet normal 0.000000E00 5.257311E-01 -8.506508E-01
    outer loop
      vertex -1.043007E00 5.461257E00 1.687621E00
      vertex 7.027388E-01 6.037818E00 2.043955E00
      vertex 5.505661E-01 5.707478E00 1.839794E00
    endloop
  endfacet
  facet normal 0.000000E00 5.257311E-01 -8.506508E-01
    outer loop
      vertex -1.043007E00 5.461257E00 1.687621E00
      vertex 5.505661E-01 5.707478E00 1.839794E00
      vertex 5.812481E-02 5.461257E00 1.687621E00
    endloop
  endfacet
  facet normal -5.773503E-01 5.773503E-01 -5.773503E-01
    outer loop
      vertex 0.000000E00 1.598538E01 1.325475E01
      vertex -2.730629E00 1.156713E01 1.156713E01
      vertex -1.687621E00 2.417727E01 2.313426E01
    endloop
  endfacet
  facet normal -9.510565E-01 -1.624599E-01 2.628655E-01
    outer loop
      vertex 1.213142E00 2.703100E01 1.474317E01
      vertex 1.962904E00 2.581786E01 1.670608E01
      vertex 1.962904E00 2.750548E01 1.774909E01
    endloop
  endfacet
  facet normal -9.510565E-01 -1.624599E-01 2.628655E-01
    outer loop
      vertex 1.213142E00 2.703100E01 1.474317E01
      vertex 1.962904E00 2.750548E01 1.774909E01
      vertex 1.213142E00 2.871862E01 1.578618E01
    endloop
  endfacet
  facet normal 9.510565E-01 -1.624599E-01 2.628656E-01
    outer loop
      vertex -1.687621E00 3.046130E01 1.947074E01
      vertex -1.687621E00 2.755251E01 1.767300E01
      vertex -1.043007E00 2.859551E01 1.598538E01
    endloop
  endfacet
  facet normal 9.510565E-01 -1.624599E-01 2.628656E-01
    outer loop
      vertex -1.687621E00 3.046130E01 1.947074E01
      vertex -1.043007E00 2.859551E01 1.598538E01
      vertex -1.043007E00 3.150431E01 1.778311E01
    endloop
  endfacet
  facet normal -3.090170E-01 -5.000000E-01 8.090170E-01
    outer loop
      vertex 0.000000E00 6.682432E00 6.215984E00
      vertex -1.701343E-01 6.711494E00 6.168961E00
      vertex -1.701343E-01 4.379259E00 4.727560E00
    endloop
  endfacet
  facet normal -3.090170E-01 -5.000000E-01 8.090170E-01
    outer loop
      vertex 0.000000E00 6.682432E00 6.215984E00
      vertex -1.701343E-01 4.379259E00 4.727560E00
      vertex 0.000000E00 4.350196E00 4.774584E00
    endloop
  endfacet
  facet normal 0.000000E00 8.506508E-01 5.257311E-01
    outer loop
      vertex 1.043007E00 3.696556E01 3.208087E01
      vertex 1.687621E00 3.743201E01 3.132614E01
      vertex -1.687621E00 3.743201E01 3.132614E01
    endloop
  endfacet
  facet normal 0.000000E00 8.506508E-01 5.257311E-01
    outer loop
      vertex 1.043007E00 3.696556E01 3.208087E01
      vertex -1.687621E00 3.743201E01 3.132614E01
      vertex -1.043007E00 3.696556E01 3.208087E01
    endloop
  endfacet
  facet normal 5.877852E-01 -4.253254E-01 6.881909E-01
    outer loop
      vertex 1.412338E00 7.221897E00 5.343112E00
      vertex 2.752830E-01 6.787580E00 6.045850E00
      vertex 2.752830E-01 4.455345E00 4.604450E00
    endloop
  endfacet
  facet normal 5.877852E-01 -4.253254E-01 6.881909E-01
    outer loop
      vertex 1.412338E00 7.221897E00 5.343112E00
      vertex 2.752830E-01 4.455345E00 4.604450E00
      vertex 1.412338E00 4.889662E00 3.901711E00
    endloop
  endfacet
  facet normal -5.773503E-01 5.773503E-01 -5.773503E-01
    outer loop
      vertex 0.000000E00 2.859551E01 2.586489E01
      vertex 0.000000E00 1.598538E01 1.325475E01
      vertex -1.687621E00 2.417727E01 2.313426E01
    endloop
  endfacet
  facet normal 0.000000E00 2.952418E-01 -9.554225E-01
    outer loop
      vertex 5.812481E-02 5.461257E00 1.687621E00
      vertex -8.908346E-01 4.664471E00 1.441401E00
      vertex -1.043007E00 5.461257E00 1.687621E00
    endloop
  endfacet
  facet normal 0.000000E00 -8.506508E-01 -5.257311E-01
    outer loop
      vertex -1.043007E00 2.859551E01 1.598538E01
      vertex -1.213142E00 2.871862E01 1.578618E01
      vertex 1.213142E00 2.871862E01 1.578618E01
    endloop
  endfacet
  facet normal 0.000000E00 -8.506508E-01 -5.257311E-01
    outer loop
      vertex -1.043007E00 2.859551E01 1.598538E01
      vertex 1.213142E00 2.871862E01 1.578618E01
      vertex 1.043007E00 2.859551E01 1.598538E01
    endloop
  endfacet
  facet normal 0.000000E00 -8.506508E-01 -5.257311E-01
    outer loop
      vertex -4.418250E00 4.289327E01 1.598538E01
      vertex -4.248116E00 4.301638E01 1.578618E01
      vertex -3.498353E00 4.180324E01 1.774909E01
    endloop
  endfacet
  facet normal 0.000000E00 -8.506508E-01 -5.257311E-01
    outer loop
      vertex -4.418250E00 4.289327E01 1.598538E01
      vertex -3.498353E00 4.180324E01 1.774909E01
      vertex -3.773636E00 4.185026E01 1.767300E01
    endloop
  endfacet
  facet normal -9.510565E-01 -1.624599E-01 2.628655E-01
    outer loop
      vertex -4.248116E00 4.132876E01 1.474317E01
      vertex -3.498353E00 4.011562E01 1.670608E01
      vertex -3.498353E00 4.180324E01 1.774909E01
    endloop
  endfacet
  facet normal -9.510565E-01 -1.624599E-01 2.628655E-01
    outer loop
      vertex -4.248116E00 4.132876E01 1.474317E01
      vertex -3.498353E00 4.180324E01 1.774909E01
      vertex -4.248116E00 4.301638E01 1.578618E01
    endloop
  endfacet
  facet normal 5.877853E-01 -4.253254E-01 6.881909E-01
    outer loop
      vertex 1.687621E00 4.418250E00 3.375243E00
      vertex 1.412338E00 4.889662E00 3.901711E00
      vertex 2.752830E-01 4.455345E00 4.604450E00
    endloop
  endfacet
  facet normal 5.877853E-01 -4.253254E-01 6.881909E-01
    outer loop
      vertex 1.687621E00 4.418250E00 3.375243E00
      vertex 2.752830E-01 4.455345E00 4.604450E00
      vertex 3.983934E-01 4.172029E00 4.324202E00
    endloop
  endfacet
  facet normal 5.877853E-01 -4.253254E-01 6.881909E-01
    outer loop
      vertex 1.687621E00 4.418250E00 3.375243E00
      vertex 3.983934E-01 4.172029E00 4.324202E00
      vertex 7.967867E-01 4.077981E00 3.925809E00
    endloop
  endfacet
  facet normal 0.000000E00 -8.506508E-01 -5.257311E-01
    outer loop
      vertex 1.043007E00 2.859551E01 1.598538E01
      vertex 1.213142E00 2.871862E01 1.578618E01
      vertex 1.962904E00 2.750548E01 1.774909E01
    endloop
  endfacet
  facet normal 0.000000E00 -8.506508E-01 -5.257311E-01
    outer loop
      vertex 1.043007E00 2.859551E01 1.598538E01
      vertex 1.962904E00 2.750548E01 1.774909E01
      vertex 1.687621E00 2.755251E01 1.767300E01
    endloop
  endfacet
  facet normal 0.000000E00 -8.506508E-01 -5.257311E-01
    outer loop
      vertex 1.043007E00 3.405677E01 3.028314E01
      vertex 1.213142E00 3.417988E01 3.008394E01
      vertex 1.962904E00 3.296674E01 3.204684E01
    endloop
  endfacet
  facet normal 0.000000E00 -8.506508E-01 -5.257311E-01
    outer loop
      vertex 1.043007E00 3.405677E01 3.028314E01
      vertex 1.962904E00 3.296674E01 3.204684E01
      vertex 1.687621E00 3.301376E01 3.197076E01
    endloop
  endfacet
  facet normal 3.090170E-01 -5.000000E-01 8.090170E-01
    outer loop
      vertex 1.582472E00 7.250959E00 5.296088E00
      vertex 1.412338E00 7.221897E00 5.343112E00
      vertex 1.412338E00 4.889662E00 3.901711E00
    endloop
  endfacet
  facet normal 3.090170E-01 -5.000000E-01 8.090170E-01
    outer loop
      vertex 1.582472E00 7.250959E00 5.296088E00
      vertex 1.412338E00 4.889662E00 3.901711E00
      vertex 1.582472E00 4.918724E00 3.854687E00
    endloop
  endfacet
  facet normal 5.877853E-01 4.253254E-01 -6.881910E-01
    outer loop
      vertex 0.000000E00 3.527795E01 3.481150E01
      vertex 0.000000E00 3.236915E01 3.301376E01
      vertex -1.687621E00 3.301376E01 3.197076E01
    endloop
  endfacet
  facet normal 5.877853E-01 4.253254E-01 -6.881910E-01
    outer loop
      vertex 0.000000E00 3.527795E01 3.481150E01
      vertex -1.687621E00 3.301376E01 3.197076E01
      vertex -1.687621E00 3.592256E01 3.376849E01
    endloop
  endfacet
  facet normal 5.877853E-01 4.253254E-01 -6.881910E-01
    outer loop
      vertex -5.461257E00 4.411444E01 2.051374E01
      vertex -5.461257E00 4.120565E01 1.871601E01
      vertex -7.148879E00 4.185026E01 1.767300E01
    endloop
  endfacet
  facet normal 5.877853E-01 4.253254E-01 -6.881910E-01
    outer loop
      vertex -5.461257E00 4.411444E01 2.051374E01
      vertex -7.148879E00 4.185026E01 1.767300E01
      vertex -7.148879E00 4.475906E01 1.947074E01
    endloop
  endfacet
  facet normal -5.877853E-01 4.253254E-01 -6.881910E-01
    outer loop
      vertex 1.687621E00 3.046130E01 1.947074E01
      vertex 1.687621E00 2.755251E01 1.767300E01
      vertex 0.000000E00 2.690789E01 1.871601E01
    endloop
  endfacet
  facet normal -5.877853E-01 4.253254E-01 -6.881910E-01
    outer loop
      vertex 1.687621E00 3.046130E01 1.947074E01
      vertex 0.000000E00 2.690789E01 1.871601E01
      vertex 0.000000E00 2.981669E01 2.051374E01
    endloop
  endfacet
  facet normal -3.090170E-01 5.000000E-01 -8.090170E-01
    outer loop
      vertex 7.027388E-01 8.370053E00 3.485356E00
      vertex 8.728731E-01 8.399116E00 3.438332E00
      vertex 8.728731E-01 6.066880E00 1.996931E00
    endloop
  endfacet
  facet normal -3.090170E-01 5.000000E-01 -8.090170E-01
    outer loop
      vertex 7.027388E-01 8.370053E00 3.485356E00
      vertex 8.728731E-01 6.066880E00 1.996931E00
      vertex 7.027388E-01 6.037818E00 2.043955E00
    endloop
  endfacet
  facet normal 5.773503E-01 5.773503E-01 -5.773503E-01
    outer loop
      vertex 2.730629E00 1.156713E01 1.156713E01
      vertex 0.000000E00 1.598538E01 1.325475E01
      vertex 1.687621E00 2.417727E01 2.313426E01
    endloop
  endfacet
  facet normal 0.000000E00 5.257311E-01 -8.506508E-01
    outer loop
      vertex -1.687621E00 3.743201E01 3.132614E01
      vertex 1.687621E00 3.743201E01 3.132614E01
      vertex 0.000000E00 2.859551E01 2.586489E01
    endloop
  endfacet
  facet normal 0.000000E00 5.257311E-01 -8.506508E-01
    outer loop
      vertex -1.687621E00 3.743201E01 3.132614E01
      vertex 0.000000E00 2.859551E01 2.586489E01
      vertex -1.687621E00 2.417727E01 2.313426E01
    endloop
  endfacet
  facet normal 3.090170E-01 -5.000000E-01 8.090170E-01
    outer loop
      vertex 1.701343E-01 4.379259E00 4.727560E00
      vertex 0.000000E00 4.350196E00 4.774584E00
      vertex 0.000000E00 3.773636E00 4.418250E00
    endloop
  endfacet
  facet normal 9.510565E-01 1.624599E-01 -2.628656E-01
    outer loop
      vertex -2.730629E00 3.132614E01 1.156713E01
      vertex -3.773636E00 4.185026E01 1.429776E01
      vertex -3.773636E00 4.626851E01 1.702839E01
    endloop
  endfacet
  facet normal 9.510565E-01 1.624599E-01 -2.628656E-01
    outer loop
      vertex -2.730629E00 3.132614E01 1.156713E01
      vertex -3.773636E00 4.626851E01 1.702839E01
      vertex -2.730629E00 4.458089E01 1.975901E01
    endloop
  endfacet
  facet normal -9.510565E-01 1.624599E-01 -2.628655E-01
    outer loop
      vertex -1.687621E00 4.418250E00 3.375243E00
      vertex -1.582472E00 5.164944E00 3.456293E00
      vertex -1.148156E00 5.867683E00 2.319238E00
    endloop
  endfacet
  facet normal -9.510565E-01 1.624599E-01 -2.628655E-01
    outer loop
      vertex -1.687621E00 4.418250E00 3.375243E00
      vertex -1.148156E00 5.867683E00 2.319238E00
      vertex -1.195180E00 5.461257E00 2.238187E00
    endloop
  endfacet
  facet normal -9.510565E-01 1.624599E-01 -2.628655E-01
    outer loop
      vertex -1.687621E00 4.418250E00 3.375243E00
      vertex -1.195180E00 5.461257E00 2.238187E00
      vertex -1.347353E00 4.968816E00 2.484408E00
    endloop
  endfacet
  facet normal 0.000000E00 -8.506508E-01 -5.257311E-01
    outer loop
      vertex -1.687621E00 8.836500E00 2.730629E00
      vertex 1.687621E00 8.836500E00 2.730629E00
      vertex 8.728731E-01 8.399116E00 3.438332E00
    endloop
  endfacet
  facet normal 0.000000E00 -8.506508E-01 -5.257311E-01
    outer loop
      vertex -1.687621E00 8.836500E00 2.730629E00
      vertex 8.728731E-01 8.399116E00 3.438332E00
      vertex 7.027388E-01 8.370053E00 3.485356E00
    endloop
  endfacet
  facet normal 0.000000E00 -8.506508E-01 -5.257311E-01
    outer loop
      vertex -1.687621E00 8.836500E00 2.730629E00
      vertex 7.027388E-01 8.370053E00 3.485356E00
      vertex -7.027388E-01 8.370053E00 3.485356E00
    endloop
  endfacet
  facet normal 0.000000E00 -8.506508E-01 -5.257311E-01
    outer loop
      vertex -1.687621E00 8.836500E00 2.730629E00
      vertex -7.027388E-01 8.370053E00 3.485356E00
      vertex -8.728731E-01 8.399116E00 3.438332E00
    endloop
  endfacet
  facet normal -5.877852E-01 4.253254E-01 -6.881909E-01
    outer loop
      vertex 1.962904E00 3.127912E01 3.100384E01
      vertex 0.000000E00 3.052936E01 3.221698E01
      vertex 0.000000E00 3.221698E01 3.325999E01
    endloop
  endfacet
  facet normal -5.877852E-01 4.253254E-01 -6.881909E-01
    outer loop
      vertex 1.962904E00 3.127912E01 3.100384E01
      vertex 0.000000E00 3.221698E01 3.325999E01
      vertex 1.962904E00 3.296674E01 3.204684E01
    endloop
  endfacet
  facet normal 7.905694E-01 5.720614E-01 -2.185080E-01
    outer loop
      vertex 1.687621E00 4.606346E00 2.882801E00
      vertex 1.383276E00 4.910691E00 2.578456E00
      vertex 1.535449E00 4.910691E00 3.129022E00
    endloop
  endfacet
  facet normal 0.000000E00 -5.257311E-01 8.506508E-01
    outer loop
      vertex -6.674399E00 4.132876E01 1.474317E01
      vertex -4.248116E00 4.132876E01 1.474317E01
      vertex -4.248116E00 4.301638E01 1.578618E01
    endloop
  endfacet
  facet normal 0.000000E00 -5.257311E-01 8.506508E-01
    outer loop
      vertex -6.674399E00 4.132876E01 1.474317E01
      vertex -4.248116E00 4.301638E01 1.578618E01
      vertex -6.674399E00 4.301638E01 1.578618E01
    endloop
  endfacet
  facet normal 9.510565E-01 -1.624599E-01 2.628655E-01
    outer loop
      vertex -1.962904E00 2.581786E01 1.670608E01
      vertex -1.213142E00 2.703100E01 1.474317E01
      vertex -1.213142E00 2.871862E01 1.578618E01
    endloop
  endfacet
  facet normal 9.510565E-01 -1.624599E-01 2.628655E-01
    outer loop
      vertex -1.962904E00 2.581786E01 1.670608E01
      vertex -1.213142E00 2.871862E01 1.578618E01
      vertex -1.962904E00 2.750548E01 1.774909E01
    endloop
  endfacet
  facet normal 1.000000E00 0.000000E00 0.000000E00
    outer loop
      vertex 2.730629E00 1.702839E01 1.156713E01
      vertex 2.730629E00 1.156713E01 1.156713E01
      vertex 2.730629E00 7.148879E00 5.461257E00
    endloop
  endfacet
  facet normal 0.000000E00 5.257311E-01 -8.506508E-01
    outer loop
      vertex -7.148879E00 4.626851E01 1.702839E01
      vertex -3.773636E00 4.626851E01 1.702839E01
      vertex -3.773636E00 4.185026E01 1.429776E01
    endloop
  endfacet
  facet normal 0.000000E00 5.257311E-01 -8.506508E-01
    outer loop
      vertex -7.148879E00 4.626851E01 1.702839E01
      vertex -3.773636E00 4.185026E01 1.429776E01
      vertex -7.148879E00 4.185026E01 1.429776E01
    endloop
  endfacet
  facet normal -9.341724E-01 0.000000E00 -3.568221E-01
    outer loop
      vertex -3.375243E00 1.598538E01 4.418250E00
      vertex -4.418250E00 1.429776E01 7.148879E00
      vertex -8.191886E00 4.016264E01 1.702839E01
    endloop
  endfacet
  facet normal -9.341724E-01 0.000000E00 -3.568221E-01
    outer loop
      vertex -3.375243E00 1.598538E01 4.418250E00
      vertex -8.191886E00 4.016264E01 1.702839E01
      vertex -7.148879E00 4.185026E01 1.429776E01
    endloop
  endfacet
  facet normal -9.510565E-01 1.624599E-01 -2.628656E-01
    outer loop
      vertex -1.687621E00 2.417727E01 2.313426E01
      vertex -2.730629E00 3.132614E01 3.132614E01
      vertex -2.730629E00 3.574439E01 3.405677E01
    endloop
  endfacet
  facet normal -9.510565E-01 1.624599E-01 -2.628656E-01
    outer loop
      vertex -1.687621E00 2.417727E01 2.313426E01
      vertex -2.730629E00 3.574439E01 3.405677E01
      vertex -1.687621E00 3.743201E01 3.132614E01
    endloop
  endfacet
  facet normal 5.877852E-01 -4.253254E-01 6.881910E-01
    outer loop
      vertex 2.752830E-01 4.455345E00 4.604450E00
      vertex 0.000000E00 3.773636E00 4.418250E00
      vertex 3.983934E-01 4.172029E00 4.324202E00
    endloop
  endfacet
  facet normal -3.090170E-01 -5.000000E-01 8.090170E-01
    outer loop
      vertex 0.000000E00 4.350196E00 4.774584E00
      vertex -1.701343E-01 4.379259E00 4.727560E00
      vertex 0.000000E00 3.773636E00 4.418250E00
    endloop
  endfacet
  facet normal 9.205740E-01 -5.638617E-02 -3.864766E-01
    outer loop
      vertex 1.383276E00 4.910691E00 2.578456E00
      vertex 8.908346E-01 4.664471E00 1.441401E00
      vertex 1.043007E00 5.461257E00 1.687621E00
    endloop
  endfacet
  facet normal 5.877852E-01 -4.253254E-01 6.881910E-01
    outer loop
      vertex 2.730629E00 3.574439E01 3.405677E01
      vertex 0.000000E00 3.470139E01 3.574439E01
      vertex 0.000000E00 3.028314E01 3.301376E01
    endloop
  endfacet
  facet normal 5.877852E-01 -4.253254E-01 6.881910E-01
    outer loop
      vertex 2.730629E00 3.574439E01 3.405677E01
      vertex 0.000000E00 3.028314E01 3.301376E01
      vertex 2.730629E00 3.132614E01 3.132614E01
    endloop
  endfacet
  facet normal 9.510565E-01 1.624599E-01 -2.628656E-01
    outer loop
      vertex 1.582472E00 5.164944E00 3.456293E00
      vertex 1.687621E00 4.418250E00 3.375243E00
      vertex 1.535449E00 4.910691E00 3.129022E00
    endloop
  endfacet
  facet normal 0.000000E00 8.506508E-01 5.257311E-01
    outer loop
      vertex 1.043007E00 3.150431E01 1.778311E01
      vertex 1.687621E00 3.197076E01 1.702839E01
      vertex -1.687621E00 3.197076E01 1.702839E01
    endloop
  endfacet
  facet normal 0.000000E00 8.506508E-01 5.257311E-01
    outer loop
      vertex 1.043007E00 3.150431E01 1.778311E01
      vertex -1.687621E00 3.197076E01 1.702839E01
      vertex -1.043007E00 3.150431E01 1.778311E01
    endloop
  endfacet
  facet normal 0.000000E00 -8.506508E-01 -5.257311E-01
    outer loop
      vertex 0.000000E00 6.105871E00 7.148879E00
      vertex -2.730629E00 7.148879E00 5.461257E00
      vertex -1.582472E00 7.250959E00 5.296088E00
    endloop
  endfacet
  facet normal 0.000000E00 -8.506508E-01 -5.257311E-01
    outer loop
      vertex 0.000000E00 6.105871E00 7.148879E00
      vertex -1.582472E00 7.250959E00 5.296088E00
      vertex -1.412338E00 7.221897E00 5.343112E00
    endloop
  endfacet
  facet normal 0.000000E00 -8.506508E-01 -5.257311E-01
    outer loop
      vertex 0.000000E00 6.105871E00 7.148879E00
      vertex -1.412338E00 7.221897E00 5.343112E00
      vertex -2.752830E-01 6.787580E00 6.045850E00
    endloop
  endfacet
  facet normal 0.000000E00 -8.506508E-01 -5.257311E-01
    outer loop
      vertex 0.000000E00 6.105871E00 7.148879E00
      vertex -2.752830E-01 6.787580E00 6.045850E00
      vertex -1.701343E-01 6.711494E00 6.168961E00
    endloop
  endfacet
  facet normal 9.881794E-01 -1.304061E-01 -8.059541E-02
    outer loop
      vertex 1.148156E00 5.961731E00 2.167066E00
      vertex 1.148156E00 5.867683E00 2.319238E00
      vertex 1.043007E00 5.461257E00 1.687621E00
    endloop
  endfacet
  facet normal 0.000000E00 -3.568221E-01 9.341723E-01
    outer loop
      vertex -4.418250E00 1.429776E01 7.148879E00
      vertex -5.461257E00 3.028314E01 1.325475E01
      vertex -8.191886E00 4.016264E01 1.702839E01
    endloop
  endfacet
  facet normal 9.510565E-01 -1.624599E-01 2.628656E-01
    outer loop
      vertex -7.148879E00 4.475906E01 1.947074E01
      vertex -7.148879E00 4.185026E01 1.767300E01
      vertex -6.504264E00 4.289327E01 1.598538E01
    endloop
  endfacet
  facet normal 9.510565E-01 -1.624599E-01 2.628656E-01
    outer loop
      vertex -7.148879E00 4.475906E01 1.947074E01
      vertex -6.504264E00 4.289327E01 1.598538E01
      vertex -6.504264E00 4.580207E01 1.778311E01
    endloop
  endfacet
  facet normal 0.000000E00 -8.506508E-01 -5.257311E-01
    outer loop
      vertex -1.043007E00 3.405677E01 3.028314E01
      vertex -1.213142E00 3.417988E01 3.008394E01
      vertex 1.213142E00 3.417988E01 3.008394E01
    endloop
  endfacet
  facet normal 0.000000E00 -8.506508E-01 -5.257311E-01
    outer loop
      vertex -1.043007E00 3.405677E01 3.028314E01
      vertex 1.213142E00 3.417988E01 3.008394E01
      vertex 1.043007E00 3.405677E01 3.028314E01
    endloop
  endfacet
  facet normal 9.510565E-01 -1.624599E-01 2.628656E-01
    outer loop
      vertex -1.687621E00 3.592256E01 3.376849E01
      vertex -1.687621E00 3.301376E01 3.197076E01
      vertex -1.043007E00 3.405677E01 3.028314E01
    endloop
  endfacet
  facet normal 9.510565E-01 -1.624599E-01 2.628656E-01
    outer loop
      vertex -1.687621E00 3.592256E01 3.376849E01
      vertex -1.043007E00 3.405677E01 3.028314E01
      vertex -1.043007E00 3.696556E01 3.208087E01
    endloop
  endfacet
  facet normal -1.000000E00 0.000000E00 0.000000E00
    outer loop
      vertex -1.148156E00 8.199919E00 3.760639E00
      vertex -1.148156E00 8.293966E00 3.608466E00
      vertex -1.148156E00 5.961731E00 2.167066E00
    endloop
  endfacet
  facet normal -1.000000E00 0.000000E00 0.000000E00
    outer loop
      vertex -1.148156E00 8.199919E00 3.760639E00
      vertex -1.148156E00 5.961731E00 2.167066E00
      vertex -1.148156E00 5.867683E00 2.319238E00
    endloop
  endfacet
  facet normal 3.484496E-01 2.153537E-01 -9.122530E-01
    outer loop
      vertex 5.505661E-01 5.461257E00 1.499525E00
      vertex 1.043007E00 5.461257E00 1.687621E00
      vertex 8.908346E-01 4.664471E00 1.441401E00
    endloop
  endfacet
  facet normal 9.510565E-01 -1.624599E-01 2.628655E-01
    outer loop
      vertex -7.424162E00 4.011562E01 1.670608E01
      vertex -6.674399E00 4.132876E01 1.474317E01
      vertex -6.674399E00 4.301638E01 1.578618E01
    endloop
  endfacet
  facet normal 9.510565E-01 -1.624599E-01 2.628655E-01
    outer loop
      vertex -7.424162E00 4.011562E01 1.670608E01
      vertex -6.674399E00 4.301638E01 1.578618E01
      vertex -7.424162E00 4.180324E01 1.774909E01
    endloop
  endfacet
  facet normal -5.576221E-01 -6.724985E-01 4.866245E-01
    outer loop
      vertex 0.000000E00 1.052412E01 1.325475E01
      vertex -2.730629E00 1.156713E01 1.156713E01
      vertex -2.730629E00 7.148879E00 5.461257E00
    endloop
  endfacet
  facet normal -5.576221E-01 -6.724985E-01 4.866245E-01
    outer loop
      vertex 0.000000E00 1.052412E01 1.325475E01
      vertex -2.730629E00 7.148879E00 5.461257E00
      vertex 0.000000E00 6.105871E00 7.148879E00
    endloop
  endfacet
  facet normal -5.877852E-01 -4.253254E-01 6.881909E-01
    outer loop
      vertex -2.752830E-01 6.787580E00 6.045850E00
      vertex -1.412338E00 7.221897E00 5.343112E00
      vertex -1.412338E00 4.889662E00 3.901711E00
    endloop
  endfacet
  facet normal -5.877852E-01 -4.253254E-01 6.881909E-01
    outer loop
      vertex -2.752830E-01 6.787580E00 6.045850E00
      vertex -1.412338E00 4.889662E00 3.901711E00
      vertex -2.752830E-01 4.455345E00 4.604450E00
    endloop
  endfacet
  facet normal 0.000000E00 -8.506508E-01 -5.257311E-01
    outer loop
      vertex 0.000000E00 6.105871E00 7.148879E00
      vertex 0.000000E00 6.682432E00 6.215984E00
      vertex 1.701343E-01 6.711494E00 6.168961E00
    endloop
  endfacet
  facet normal -9.510565E-01 1.624599E-01 -2.628656E-01
    outer loop
      vertex -1.148156E00 5.867683E00 2.319238E00
      vertex -1.043007E00 5.461257E00 1.687621E00
      vertex -1.195180E00 5.461257E00 2.238187E00
    endloop
  endfacet
  facet normal 9.341723E-01 0.000000E00 3.568221E-01
    outer loop
      vertex -2.730629E00 3.132614E01 1.156713E01
      vertex 0.000000E00 1.598538E01 4.418250E00
      vertex -3.773636E00 4.185026E01 1.429776E01
    endloop
  endfacet
  facet normal 0.000000E00 -3.568221E-01 9.341723E-01
    outer loop
      vertex -5.461257E00 3.028314E01 1.325475E01
      vertex -1.687621E00 1.871601E01 8.836500E00
      vertex -4.095943E00 3.522289E01 1.514157E01
    endloop
  endfacet
  facet normal -9.881794E-01 -1.304061E-01 -8.059541E-02
    outer loop
      vertex -1.148156E00 5.867683E00 2.319238E00
      vertex -1.148156E00 5.961731E00 2.167066E00
      vertex -1.043007E00 5.461257E00 1.687621E00
    endloop
  endfacet
  facet normal 8.090170E-01 -3.090170E-01 5.000000E-01
    outer loop
      vertex 1.687621E00 4.994811E00 3.731577E00
      vertex 1.582472E00 4.918724E00 3.854687E00
      vertex 1.687621E00 4.418250E00 3.375243E00
    endloop
  endfacet
  facet normal 0.000000E00 3.568221E-01 -9.341724E-01
    outer loop
      vertex 0.000000E00 1.598538E01 4.418250E00
      vertex -3.375243E00 1.598538E01 4.418250E00
      vertex -7.148879E00 4.185026E01 1.429776E01
    endloop
  endfacet
  facet normal 0.000000E00 3.568221E-01 -9.341724E-01
    outer loop
      vertex 0.000000E00 1.598538E01 4.418250E00
      vertex -7.148879E00 4.185026E01 1.429776E01
      vertex -3.773636E00 4.185026E01 1.429776E01
    endloop
  endfacet
  facet normal -5.773503E-01 -5.773503E-01 5.773503E-01
    outer loop
      vertex -2.730629E00 1.156713E01 1.156713E01
      vertex 0.000000E00 1.052412E01 1.325475E01
      vertex 0.000000E00 3.028314E01 3.301376E01
    endloop
  endfacet
  facet normal -5.773503E-01 -5.773503E-01 5.773503E-01
    outer loop
      vertex -2.730629E00 1.156713E01 1.156713E01
      vertex 0.000000E00 3.028314E01 3.301376E01
      vertex -2.730629E00 3.132614E01 3.132614E01
    endloop
  endfacet
  facet normal -7.380282E-01 6.654796E-02 -6.714802E-01
    outer loop
      vertex -1.347353E00 5.156912E00 1.991967E00
      vertex -1.043007E00 5.461257E00 1.687621E00
      vertex -8.908346E-01 4.664471E00 1.441401E00
    endloop
  endfacet
  facet normal 8.158683E-01 3.801990E-01 -4.356692E-01
    outer loop
      vertex 1.687621E00 4.606346E00 2.882801E00
      vertex 8.908346E-01 4.664471E00 1.441401E00
      vertex 1.383276E00 4.910691E00 2.578456E00
    endloop
  endfacet
  facet normal -8.432508E-01 -2.493374E-01 -4.761922E-01
    outer loop
      vertex -8.908346E-01 4.664471E00 1.441401E00
      vertex -1.441401E00 3.773636E00 2.882801E00
      vertex -1.347353E00 5.156912E00 1.991967E00
    endloop
  endfacet
  facet normal -9.510565E-01 1.624599E-01 -2.628656E-01
    outer loop
      vertex -8.191886E00 4.458089E01 1.975901E01
      vertex -7.148879E00 4.626851E01 1.702839E01
      vertex -7.148879E00 4.185026E01 1.429776E01
    endloop
  endfacet
  facet normal -9.510565E-01 1.624599E-01 -2.628656E-01
    outer loop
      vertex -8.191886E00 4.458089E01 1.975901E01
      vertex -7.148879E00 4.185026E01 1.429776E01
      vertex -8.191886E00 4.016264E01 1.702839E01
    endloop
  endfacet
  facet normal 5.877852E-01 4.253254E-01 -6.881909E-01
    outer loop
      vertex -5.461257E00 3.936586E01 1.791922E01
      vertex -7.424162E00 4.011562E01 1.670608E01
      vertex -7.424162E00 4.180324E01 1.774909E01
    endloop
  endfacet
  facet normal 5.877852E-01 4.253254E-01 -6.881909E-01
    outer loop
      vertex -5.461257E00 3.936586E01 1.791922E01
      vertex -7.424162E00 4.180324E01 1.774909E01
      vertex -5.461257E00 4.105348E01 1.896223E01
    endloop
  endfacet
  facet normal 5.877852E-01 4.253254E-01 -6.881909E-01
    outer loop
      vertex 0.000000E00 3.052936E01 3.221698E01
      vertex -1.962904E00 3.127912E01 3.100384E01
      vertex -1.962904E00 3.296674E01 3.204684E01
    endloop
  endfacet
  facet normal 5.877852E-01 4.253254E-01 -6.881909E-01
    outer loop
      vertex 0.000000E00 3.052936E01 3.221698E01
      vertex -1.962904E00 3.296674E01 3.204684E01
      vertex 0.000000E00 3.221698E01 3.325999E01
    endloop
  endfacet
  facet normal 0.000000E00 8.506508E-01 5.257311E-01
    outer loop
      vertex 0.000000E00 2.981669E01 2.051374E01
      vertex 0.000000E00 2.924013E01 2.144664E01
      vertex 2.730629E00 3.028314E01 1.975901E01
    endloop
  endfacet
  facet normal 0.000000E00 8.506508E-01 5.257311E-01
    outer loop
      vertex 0.000000E00 2.981669E01 2.051374E01
      vertex 2.730629E00 3.028314E01 1.975901E01
      vertex 1.687621E00 3.046130E01 1.947074E01
    endloop
  endfacet
  facet normal 2.185080E-01 7.905694E-01 -5.720614E-01
    outer loop
      vertex 5.505661E-01 5.707478E00 1.839794E00
      vertex 1.043007E00 5.461257E00 1.687621E00
      vertex 5.505661E-01 5.461257E00 1.499525E00
    endloop
  endfacet
  facet normal 0.000000E00 8.506508E-01 5.257311E-01
    outer loop
      vertex -5.461257E00 3.936586E01 1.791922E01
      vertex -3.498353E00 4.011562E01 1.670608E01
      vertex -4.248116E00 4.132876E01 1.474317E01
    endloop
  endfacet
  facet normal 0.000000E00 8.506508E-01 5.257311E-01
    outer loop
      vertex -5.461257E00 3.936586E01 1.791922E01
      vertex -4.248116E00 4.132876E01 1.474317E01
      vertex -6.674399E00 4.132876E01 1.474317E01
    endloop
  endfacet
  facet normal 0.000000E00 8.506508E-01 5.257311E-01
    outer loop
      vertex -5.461257E00 3.936586E01 1.791922E01
      vertex -6.674399E00 4.132876E01 1.474317E01
      vertex -7.424162E00 4.011562E01 1.670608E01
    endloop
  endfacet
  facet normal 0.000000E00 8.506508E-01 5.257311E-01
    outer loop
      vertex -3.773636E00 4.475906E01 1.947074E01
      vertex -2.730629E00 4.458089E01 1.975901E01
      vertex -3.773636E00 4.626851E01 1.702839E01
    endloop
  endfacet
  facet normal 0.000000E00 8.506508E-01 5.257311E-01
    outer loop
      vertex -3.773636E00 4.475906E01 1.947074E01
      vertex -3.773636E00 4.626851E01 1.702839E01
      vertex -4.418250E00 4.580207E01 1.778311E01
    endloop
  endfacet
  facet normal -8.090170E-01 -3.090170E-01 5.000000E-01
    outer loop
      vertex -1.701343E-01 6.711494E00 6.168961E00
      vertex -2.752830E-01 6.787580E00 6.045850E00
      vertex -2.752830E-01 4.455345E00 4.604450E00
    endloop
  endfacet
  facet normal -8.090170E-01 -3.090170E-01 5.000000E-01
    outer loop
      vertex -1.701343E-01 6.711494E00 6.168961E00
      vertex -2.752830E-01 4.455345E00 4.604450E00
      vertex -1.701343E-01 4.379259E00 4.727560E00
    endloop
  endfacet
  facet normal -3.053643E-01 3.636836E-01 -8.800494E-01
    outer loop
      vertex 7.027388E-01 6.037818E00 2.043955E00
      vertex 8.728731E-01 6.066880E00 1.996931E00
      vertex 1.043007E00 5.461257E00 1.687621E00
    endloop
  endfacet
  facet normal -7.905694E-01 5.720614E-01 -2.185080E-01
    outer loop
      vertex -1.195180E00 5.461257E00 2.238187E00
      vertex -1.043007E00 5.461257E00 1.687621E00
      vertex -1.347353E00 5.156912E00 1.991967E00
    endloop
  endfacet
  facet normal 0.000000E00 -5.257311E-01 8.506508E-01
    outer loop
      vertex -1.213142E00 2.703100E01 1.474317E01
      vertex 1.213142E00 2.703100E01 1.474317E01
      vertex 1.213142E00 2.871862E01 1.578618E01
    endloop
  endfacet
  facet normal 0.000000E00 -5.257311E-01 8.506508E-01
    outer loop
      vertex -1.213142E00 2.703100E01 1.474317E01
      vertex 1.213142E00 2.871862E01 1.578618E01
      vertex -1.213142E00 2.871862E01 1.578618E01
    endloop
  endfacet
  facet normal 0.000000E00 8.506508E-01 5.257311E-01
    outer loop
      vertex -6.504264E00 4.580207E01 1.778311E01
      vertex -7.148879E00 4.626851E01 1.702839E01
      vertex -8.191886E00 4.458089E01 1.975901E01
    endloop
  endfacet
  facet normal 0.000000E00 8.506508E-01 5.257311E-01
    outer loop
      vertex -6.504264E00 4.580207E01 1.778311E01
      vertex -8.191886E00 4.458089E01 1.975901E01
      vertex -7.148879E00 4.475906E01 1.947074E01
    endloop
  endfacet
  facet normal -9.510565E-01 1.624598E-01 -2.628656E-01
    outer loop
      vertex -1.582472E00 7.497180E00 4.897695E00
      vertex -1.148156E00 8.199919E00 3.760639E00
      vertex -1.148156E00 5.867683E00 2.319238E00
    endloop
  endfacet
  facet normal -9.510565E-01 1.624598E-01 -2.628656E-01
    outer loop
      vertex -1.582472E00 7.497180E00 4.897695E00
      vertex -1.148156E00 5.867683E00 2.319238E00
      vertex -1.582472E00 5.164944E00 3.456293E00
    endloop
  endfacet
  facet normal -8.045762E-01 -5.226745E-01 2.819017E-01
    outer loop
      vertex -1.383276E00 4.113904E00 3.679588E00
      vertex -1.687621E00 4.418250E00 3.375243E00
      vertex -1.441401E00 3.773636E00 2.882801E00
    endloop
  endfacet
  facet normal 0.000000E00 5.257311E-01 -8.506508E-01
    outer loop
      vertex 1.687621E00 2.417727E01 2.313426E01
      vertex 0.000000E00 2.859551E01 2.586489E01
      vertex 1.687621E00 3.743201E01 3.132614E01
    endloop
  endfacet
  facet normal -1.000000E00 0.000000E00 0.000000E00
    outer loop
      vertex -1.687621E00 4.994811E00 3.731577E00
      vertex -1.687621E00 5.088858E00 3.579404E00
      vertex -1.687621E00 4.418250E00 3.375243E00
    endloop
  endfacet
  facet normal -9.022514E-01 -1.148765E-01 -4.156269E-01
    outer loop
      vertex -4.418250E00 1.429776E01 7.148879E00
      vertex -3.375243E00 1.598538E01 4.418250E00
      vertex -1.687621E00 8.836500E00 2.730629E00
    endloop
  endfacet
  facet normal -9.022514E-01 -1.148765E-01 -4.156269E-01
    outer loop
      vertex -4.418250E00 1.429776E01 7.148879E00
      vertex -1.687621E00 8.836500E00 2.730629E00
      vertex -2.730629E00 7.148879E00 5.461257E00
    endloop
  endfacet
  facet normal 0.000000E00 8.506508E-01 5.257311E-01
    outer loop
      vertex 1.213142E00 3.249226E01 2.904093E01
      vertex -1.213142E00 3.249226E01 2.904093E01
      vertex -1.962904E00 3.127912E01 3.100384E01
    endloop
  endfacet
  facet normal 0.000000E00 8.506508E-01 5.257311E-01
    outer loop
      vertex 1.213142E00 3.249226E01 2.904093E01
      vertex -1.962904E00 3.127912E01 3.100384E01
      vertex 0.000000E00 3.052936E01 3.221698E01
    endloop
  endfacet
  facet normal 0.000000E00 8.506508E-01 5.257311E-01
    outer loop
      vertex 1.213142E00 3.249226E01 2.904093E01
      vertex 0.000000E00 3.052936E01 3.221698E01
      vertex 1.962904E00 3.127912E01 3.100384E01
    endloop
  endfacet
  facet normal 0.000000E00 -8.506508E-01 -5.257311E-01
    outer loop
      vertex 2.730629E00 7.148879E00 5.461257E00
      vertex 0.000000E00 6.105871E00 7.148879E00
      vertex 1.701343E-01 6.711494E00 6.168961E00
    endloop
  endfacet
  facet normal 0.000000E00 -8.506508E-01 -5.257311E-01
    outer loop
      vertex 2.730629E00 7.148879E00 5.461257E00
      vertex 1.701343E-01 6.711494E00 6.168961E00
      vertex 2.752830E-01 6.787580E00 6.045850E00
    endloop
  endfacet
  facet normal 0.000000E00 -8.506508E-01 -5.257311E-01
    outer loop
      vertex 2.730629E00 7.148879E00 5.461257E00
      vertex 2.752830E-01 6.787580E00 6.045850E00
      vertex 1.412338E00 7.221897E00 5.343112E00
    endloop
  endfacet
  facet normal 0.000000E00 -8.506508E-01 -5.257311E-01
    outer loop
      vertex 2.730629E00 7.148879E00 5.461257E00
      vertex 1.412338E00 7.221897E00 5.343112E00
      vertex 1.582472E00 7.250959E00 5.296088E00
    endloop
  endfacet
  facet normal 0.000000E00 -8.506508E-01 -5.257311E-01
    outer loop
      vertex -1.687621E00 3.301376E01 3.197076E01
      vertex -1.962904E00 3.296674E01 3.204684E01
      vertex -1.213142E00 3.417988E01 3.008394E01
    endloop
  endfacet
  facet normal 0.000000E00 -8.506508E-01 -5.257311E-01
    outer loop
      vertex -1.687621E00 3.301376E01 3.197076E01
      vertex -1.213142E00 3.417988E01 3.008394E01
      vertex -1.043007E00 3.405677E01 3.028314E01
    endloop
  endfacet
  facet normal -9.510565E-01 -1.624599E-01 2.628656E-01
    outer loop
      vertex 1.043007E00 3.696556E01 3.208087E01
      vertex 1.043007E00 3.405677E01 3.028314E01
      vertex 1.687621E00 3.301376E01 3.197076E01
    endloop
  endfacet
  facet normal -9.510565E-01 -1.624599E-01 2.628656E-01
    outer loop
      vertex 1.043007E00 3.696556E01 3.208087E01
      vertex 1.687621E00 3.301376E01 3.197076E01
      vertex 1.687621E00 3.592256E01 3.376849E01
    endloop
  endfacet
  facet normal 1.000000E00 0.000000E00 0.000000E00
    outer loop
      vertex 1.687621E00 5.088858E00 3.579404E00
      vertex 1.687621E00 4.994811E00 3.731577E00
      vertex 1.687621E00 4.418250E00 3.375243E00
    endloop
  endfacet
  facet normal 7.994540E-01 -4.357703E-01 4.134943E-01
    outer loop
      vertex 2.752830E-01 4.455345E00 4.604450E00
      vertex 1.701343E-01 4.379259E00 4.727560E00
      vertex 0.000000E00 3.773636E00 4.418250E00
    endloop
  endfacet
  facet normal 5.773503E-01 5.773503E-01 -5.773503E-01
    outer loop
      vertex 1.687621E00 2.417727E01 2.313426E01
      vertex 0.000000E00 1.598538E01 1.325475E01
      vertex 0.000000E00 2.859551E01 2.586489E01
    endloop
  endfacet
  facet normal 3.535534E-01 -1.350454E-01 9.256148E-01
    outer loop
      vertex 3.983934E-01 4.172029E00 4.324202E00
      vertex 0.000000E00 3.773636E00 4.418250E00
      vertex 4.924413E-01 3.773636E00 4.230154E00
    endloop
  endfacet
  facet normal 0.000000E00 8.506508E-01 5.257311E-01
    outer loop
      vertex 0.000000E00 3.527795E01 3.481150E01
      vertex 0.000000E00 3.470139E01 3.574439E01
      vertex 2.730629E00 3.574439E01 3.405677E01
    endloop
  endfacet
  facet normal 0.000000E00 8.506508E-01 5.257311E-01
    outer loop
      vertex 0.000000E00 3.527795E01 3.481150E01
      vertex 2.730629E00 3.574439E01 3.405677E01
      vertex 1.687621E00 3.592256E01 3.376849E01
    endloop
  endfacet
  facet normal 5.877852E-01 4.253254E-01 -6.881909E-01
    outer loop
      vertex 0.000000E00 2.506810E01 1.791922E01
      vertex -1.962904E00 2.581786E01 1.670608E01
      vertex -1.962904E00 2.750548E01 1.774909E01
    endloop
  endfacet
  facet normal 5.877852E-01 4.253254E-01 -6.881909E-01
    outer loop
      vertex 0.000000E00 2.506810E01 1.791922E01
      vertex -1.962904E00 2.750548E01 1.774909E01
      vertex 0.000000E00 2.675572E01 1.896223E01
    endloop
  endfacet
  facet normal -1.000000E00 0.000000E00 0.000000E00
    outer loop
      vertex -2.730629E00 1.156713E01 1.156713E01
      vertex -2.730629E00 1.702839E01 1.156713E01
      vertex -2.730629E00 7.148879E00 5.461257E00
    endloop
  endfacet
  facet normal 7.071068E-01 0.000000E00 7.071068E-01
    outer loop
      vertex 4.924413E-01 3.773636E00 4.230154E00
      vertex 7.967867E-01 4.077981E00 3.925809E00
      vertex 3.983934E-01 4.172029E00 4.324202E00
    endloop
  endfacet
  facet normal 7.946805E-01 -2.349759E-01 5.597046E-01
    outer loop
      vertex 4.924413E-01 3.773636E00 4.230154E00
      vertex 1.441401E00 3.773636E00 2.882801E00
      vertex 7.967867E-01 4.077981E00 3.925809E00
    endloop
  endfacet
  facet normal -2.904462E-01 5.808923E-01 -7.603980E-01
    outer loop
      vertex 5.505661E-01 5.461257E00 1.499525E00
      vertex -8.908346E-01 4.664471E00 1.441401E00
      vertex 5.812481E-02 5.461257E00 1.687621E00
    endloop
  endfacet
  facet normal 0.000000E00 8.506508E-01 5.257311E-01
    outer loop
      vertex -4.418250E00 4.580207E01 1.778311E01
      vertex -3.773636E00 4.626851E01 1.702839E01
      vertex -7.148879E00 4.626851E01 1.702839E01
    endloop
  endfacet
  facet normal 0.000000E00 8.506508E-01 5.257311E-01
    outer loop
      vertex -4.418250E00 4.580207E01 1.778311E01
      vertex -7.148879E00 4.626851E01 1.702839E01
      vertex -6.504264E00 4.580207E01 1.778311E01
    endloop
  endfacet
  facet normal -9.510565E-01 -1.624599E-01 2.628655E-01
    outer loop
      vertex 1.213142E00 3.249226E01 2.904093E01
      vertex 1.962904E00 3.127912E01 3.100384E01
      vertex 1.962904E00 3.296674E01 3.204684E01
    endloop
  endfacet
  facet normal -9.510565E-01 -1.624599E-01 2.628655E-01
    outer loop
      vertex 1.213142E00 3.249226E01 2.904093E01
      vertex 1.962904E00 3.296674E01 3.204684E01
      vertex 1.213142E00 3.417988E01 3.008394E01
    endloop
  endfacet
  facet normal 1.000000E00 0.000000E00 0.000000E00
    outer loop
      vertex 1.687621E00 7.421093E00 5.020804E00
      vertex 1.687621E00 7.327045E00 5.172977E00
      vertex 1.687621E00 4.994811E00 3.731577E00
    endloop
  endfacet
  facet normal 1.000000E00 0.000000E00 0.000000E00
    outer loop
      vertex 1.687621E00 7.421093E00 5.020804E00
      vertex 1.687621E00 4.994811E00 3.731577E00
      vertex 1.687621E00 5.088858E00 3.579404E00
    endloop
  endfacet
  facet normal 0.000000E00 -8.506508E-01 -5.257311E-01
    outer loop
      vertex -6.504264E00 4.289327E01 1.598538E01
      vertex -6.674399E00 4.301638E01 1.578618E01
      vertex -4.248116E00 4.301638E01 1.578618E01
    endloop
  endfacet
  facet normal 0.000000E00 -8.506508E-01 -5.257311E-01
    outer loop
      vertex -6.504264E00 4.289327E01 1.598538E01
      vertex -4.248116E00 4.301638E01 1.578618E01
      vertex -4.418250E00 4.289327E01 1.598538E01
    endloop
  endfacet
  facet normal -3.090170E-01 5.000000E-01 -8.090170E-01
    outer loop
      vertex -1.043007E00 8.370053E00 3.485356E00
      vertex -8.728731E-01 8.399116E00 3.438332E00
      vertex -8.728731E-01 6.066880E00 1.996931E00
    endloop
  endfacet
  facet normal -3.090170E-01 5.000000E-01 -8.090170E-01
    outer loop
      vertex -1.043007E00 8.370053E00 3.485356E00
      vertex -8.728731E-01 6.066880E00 1.996931E00
      vertex -1.043007E00 6.037818E00 2.043955E00
    endloop
  endfacet
  facet normal -8.090170E-01 -3.090170E-01 5.000000E-01
    outer loop
      vertex -2.730629E00 1.702839E01 1.156713E01
      vertex -4.418250E00 1.429776E01 7.148879E00
      vertex -2.730629E00 7.148879E00 5.461257E00
    endloop
  endfacet
  facet normal -5.257311E-01 0.000000E00 8.506508E-01
    outer loop
      vertex -2.730629E00 1.702839E01 1.156713E01
      vertex -2.730629E00 1.156713E01 1.156713E01
      vertex 0.000000E00 1.598538E01 1.325475E01
    endloop
  endfacet
  facet normal 3.090170E-01 5.000000E-01 -8.090170E-01
    outer loop
      vertex -8.728731E-01 8.399116E00 3.438332E00
      vertex -7.027388E-01 8.370053E00 3.485356E00
      vertex -7.027388E-01 6.037818E00 2.043955E00
    endloop
  endfacet
  facet normal 3.090170E-01 5.000000E-01 -8.090170E-01
    outer loop
      vertex -8.728731E-01 8.399116E00 3.438332E00
      vertex -7.027388E-01 6.037818E00 2.043955E00
      vertex -8.728731E-01 6.066880E00 1.996931E00
    endloop
  endfacet
  facet normal 0.000000E00 -8.506508E-01 -5.257311E-01
    outer loop
      vertex 1.687621E00 8.836500E00 2.730629E00
      vertex 1.043007E00 8.370053E00 3.485356E00
      vertex 8.728731E-01 8.399116E00 3.438332E00
    endloop
  endfacet
  facet normal -5.877852E-01 -4.253254E-01 6.881910E-01
    outer loop
      vertex -1.412338E00 4.889662E00 3.901711E00
      vertex -1.687621E00 4.418250E00 3.375243E00
      vertex -1.289228E00 4.512298E00 3.773636E00
    endloop
  endfacet
  facet normal -5.877852E-01 -4.253254E-01 6.881910E-01
    outer loop
      vertex -5.461257E00 4.353789E01 2.144664E01
      vertex -8.191886E00 4.458089E01 1.975901E01
      vertex -8.191886E00 4.016264E01 1.702839E01
    endloop
  endfacet
  facet normal -5.877852E-01 -4.253254E-01 6.881910E-01
    outer loop
      vertex -5.461257E00 4.353789E01 2.144664E01
      vertex -8.191886E00 4.016264E01 1.702839E01
      vertex -5.461257E00 3.028314E01 1.325475E01
    endloop
  endfacet
  facet normal 7.994540E-01 1.749581E-01 -5.746851E-01
    outer loop
      vertex 1.582472E00 5.164944E00 3.456293E00
      vertex 1.687621E00 5.088858E00 3.579404E00
      vertex 1.687621E00 4.418250E00 3.375243E00
    endloop
  endfacet
  facet normal 0.000000E00 8.506508E-01 5.257311E-01
    outer loop
      vertex -7.148879E00 4.475906E01 1.947074E01
      vertex -8.191886E00 4.458089E01 1.975901E01
      vertex -5.461257E00 4.353789E01 2.144664E01
    endloop
  endfacet
  facet normal 0.000000E00 8.506508E-01 5.257311E-01
    outer loop
      vertex -7.148879E00 4.475906E01 1.947074E01
      vertex -5.461257E00 4.353789E01 2.144664E01
      vertex -5.461257E00 4.411444E01 2.051374E01
    endloop
  endfacet
  facet normal 0.000000E00 8.506508E-01 5.257311E-01
    outer loop
      vertex 1.687621E00 3.592256E01 3.376849E01
      vertex 2.730629E00 3.574439E01 3.405677E01
      vertex 1.687621E00 3.743201E01 3.132614E01
    endloop
  endfacet
  facet normal 0.000000E00 8.506508E-01 5.257311E-01
    outer loop
      vertex 1.687621E00 3.592256E01 3.376849E01
      vertex 1.687621E00 3.743201E01 3.132614E01
      vertex 1.043007E00 3.696556E01 3.208087E01
    endloop
  endfacet
  facet normal 0.000000E00 -8.506508E-01 -5.257311E-01
    outer loop
      vertex 0.000000E00 6.105871E00 7.148879E00
      vertex -1.701343E-01 6.711494E00 6.168961E00
      vertex 0.000000E00 6.682432E00 6.215984E00
    endloop
  endfacet
  facet normal -9.510565E-01 1.624599E-01 -2.628655E-01
    outer loop
      vertex -2.730629E00 3.028314E01 1.975901E01
      vertex -1.687621E00 3.197076E01 1.702839E01
      vertex -1.687621E00 1.871601E01 8.836500E00
    endloop
  endfacet
  facet normal -9.510565E-01 1.624599E-01 -2.628655E-01
    outer loop
      vertex -2.730629E00 3.028314E01 1.975901E01
      vertex -1.687621E00 1.871601E01 8.836500E00
      vertex -2.730629E00 1.702839E01 1.156713E01
    endloop
  endfacet
  facet normal 5.877852E-01 -4.253254E-01 6.881910E-01
    outer loop
      vertex -5.461257E00 3.028314E01 1.325475E01
      vertex -4.095943E00 3.522289E01 1.514157E01
      vertex -5.461257E00 4.353789E01 2.144664E01
    endloop
  endfacet
  facet normal 0.000000E00 -8.506508E-01 -5.257311E-01
    outer loop
      vertex 0.000000E00 3.236915E01 3.301376E01
      vertex 0.000000E00 3.221698E01 3.325999E01
      vertex -1.962904E00 3.296674E01 3.204684E01
    endloop
  endfacet
  facet normal 0.000000E00 -8.506508E-01 -5.257311E-01
    outer loop
      vertex 0.000000E00 3.236915E01 3.301376E01
      vertex -1.962904E00 3.296674E01 3.204684E01
      vertex -1.687621E00 3.301376E01 3.197076E01
    endloop
  endfacet
  facet normal 0.000000E00 -8.506508E-01 -5.257311E-01
    outer loop
      vertex -2.730629E00 7.148879E00 5.461257E00
      vertex -1.687621E00 8.836500E00 2.730629E00
      vertex -1.148156E00 8.293966E00 3.608466E00
    endloop
  endfacet
  facet normal 0.000000E00 -8.506508E-01 -5.257311E-01
    outer loop
      vertex -2.730629E00 7.148879E00 5.461257E00
      vertex -1.148156E00 8.293966E00 3.608466E00
      vertex -1.148156E00 8.199919E00 3.760639E00
    endloop
  endfacet
  facet normal 0.000000E00 -8.506508E-01 -5.257311E-01
    outer loop
      vertex -2.730629E00 7.148879E00 5.461257E00
      vertex -1.148156E00 8.199919E00 3.760639E00
      vertex -1.582472E00 7.497180E00 4.897695E00
    endloop
  endfacet
  facet normal 0.000000E00 -8.506508E-01 -5.257311E-01
    outer loop
      vertex -2.730629E00 7.148879E00 5.461257E00
      vertex -1.582472E00 7.497180E00 4.897695E00
      vertex -1.687621E00 7.421093E00 5.020804E00
    endloop
  endfacet
  facet normal -5.877853E-01 -4.253254E-01 6.881909E-01
    outer loop
      vertex 0.000000E00 3.773636E00 4.418250E00
      vertex -2.752830E-01 4.455345E00 4.604450E00
      vertex -1.412338E00 4.889662E00 3.901711E00
    endloop
  endfacet
  facet normal -5.877853E-01 -4.253254E-01 6.881909E-01
    outer loop
      vertex 0.000000E00 3.773636E00 4.418250E00
      vertex -1.412338E00 4.889662E00 3.901711E00
      vertex -1.289228E00 4.512298E00 3.773636E00
    endloop
  endfacet
  facet normal -5.877853E-01 -4.253254E-01 6.881909E-01
    outer loop
      vertex 0.000000E00 3.773636E00 4.418250E00
      vertex -1.289228E00 4.512298E00 3.773636E00
      vertex -8.908346E-01 4.113904E00 3.867684E00
    endloop
  endfacet
  facet normal 8.090170E-01 -3.090170E-01 5.000000E-01
    outer loop
      vertex 2.752830E-01 6.787580E00 6.045850E00
      vertex 1.701343E-01 6.711494E00 6.168961E00
      vertex 1.701343E-01 4.379259E00 4.727560E00
    endloop
  endfacet
  facet normal 8.090170E-01 -3.090170E-01 5.000000E-01
    outer loop
      vertex 2.752830E-01 6.787580E00 6.045850E00
      vertex 1.701343E-01 4.379259E00 4.727560E00
      vertex 2.752830E-01 4.455345E00 4.604450E00
    endloop
  endfacet
  facet normal 5.773503E-01 5.773503E-01 -5.773503E-01
    outer loop
      vertex 2.730629E00 1.156713E01 1.156713E01
      vertex 1.687621E00 2.417727E01 2.313426E01
      vertex 2.730629E00 3.132614E01 3.132614E01
    endloop
  endfacet
  facet normal 9.510565E-01 1.624599E-01 -2.628655E-01
    outer loop
      vertex 1.043007E00 5.461257E00 1.687621E00
      vertex 1.148156E00 5.867683E00 2.319238E00
      vertex 1.582472E00 5.164944E00 3.456293E00
    endloop
  endfacet
  facet normal 9.510565E-01 1.624599E-01 -2.628655E-01
    outer loop
      vertex 1.043007E00 5.461257E00 1.687621E00
      vertex 1.582472E00 5.164944E00 3.456293E00
      vertex 1.535449E00 4.910691E00 3.129022E00
    endloop
  endfacet
  facet normal 9.510565E-01 1.624599E-01 -2.628655E-01
    outer loop
      vertex 1.043007E00 5.461257E00 1.687621E00
      vertex 1.535449E00 4.910691E00 3.129022E00
      vertex 1.383276E00 4.910691E00 2.578456E00
    endloop
  endfacet
  facet normal -8.506508E-01 5.257311E-01 0.000000E00
    outer loop
      vertex -1.687621E00 1.871601E01 8.836500E00
      vertex -4.418250E00 1.429776E01 7.148879E00
      vertex -2.730629E00 1.702839E01 1.156713E01
    endloop
  endfacet
  facet normal 5.689460E-01 -6.253322E-01 5.340974E-01
    outer loop
      vertex 7.967867E-01 4.077981E00 3.925809E00
      vertex 1.441401E00 3.773636E00 2.882801E00
      vertex 1.687621E00 4.418250E00 3.375243E00
    endloop
  endfacet
  facet normal 0.000000E00 -8.506508E-01 -5.257311E-01
    outer loop
      vertex -3.773636E00 4.185026E01 1.767300E01
      vertex -3.498353E00 4.180324E01 1.774909E01
      vertex -5.461257E00 4.105348E01 1.896223E01
    endloop
  endfacet
  facet normal 0.000000E00 -8.506508E-01 -5.257311E-01
    outer loop
      vertex -3.773636E00 4.185026E01 1.767300E01
      vertex -5.461257E00 4.105348E01 1.896223E01
      vertex -5.461257E00 4.120565E01 1.871601E01
    endloop
  endfacet
  facet normal -3.535534E-01 -1.350454E-01 9.256148E-01
    outer loop
      vertex -1.383276E00 4.113904E00 3.679588E00
      vertex -8.908346E-01 4.113904E00 3.867684E00
      vertex -1.289228E00 4.512298E00 3.773636E00
    endloop
  endfacet
  facet normal 0.000000E00 -8.506508E-01 -5.257311E-01
    outer loop
      vertex 1.441401E00 3.773636E00 2.882801E00
      vertex 0.000000E00 3.223070E00 3.773636E00
      vertex -1.441401E00 3.773636E00 2.882801E00
    endloop
  endfacet
  facet normal 0.000000E00 -8.506508E-01 -5.257311E-01
    outer loop
      vertex 1.441401E00 3.773636E00 2.882801E00
      vertex -1.441401E00 3.773636E00 2.882801E00
      vertex -8.908346E-01 4.664471E00 1.441401E00
    endloop
  endfacet
  facet normal 0.000000E00 -8.506508E-01 -5.257311E-01
    outer loop
      vertex 1.441401E00 3.773636E00 2.882801E00
      vertex -8.908346E-01 4.664471E00 1.441401E00
      vertex 8.908346E-01 4.664471E00 1.441401E00
    endloop
  endfacet
  facet normal 5.877852E-01 -4.253254E-01 6.881910E-01
    outer loop
      vertex -2.730629E00 4.458089E01 1.975901E01
      vertex -5.461257E00 4.353789E01 2.144664E01
      vertex -4.095943E00 3.522289E01 1.514157E01
    endloop
  endfacet
  facet normal 5.877852E-01 -4.253254E-01 6.881910E-01
    outer loop
      vertex -2.730629E00 4.458089E01 1.975901E01
      vertex -4.095943E00 3.522289E01 1.514157E01
      vertex -2.730629E00 3.132614E01 1.156713E01
    endloop
  endfacet
  facet normal 0.000000E00 -8.506508E-01 -5.257311E-01
    outer loop
      vertex -2.730629E00 7.148879E00 5.461257E00
      vertex -1.687621E00 7.327045E00 5.172977E00
      vertex -1.582472E00 7.250959E00 5.296088E00
    endloop
  endfacet
  facet normal 0.000000E00 -8.506508E-01 -5.257311E-01
    outer loop
      vertex 1.687621E00 3.301376E01 3.197076E01
      vertex 1.962904E00 3.296674E01 3.204684E01
      vertex 0.000000E00 3.221698E01 3.325999E01
    endloop
  endfacet
  facet normal 0.000000E00 -8.506508E-01 -5.257311E-01
    outer loop
      vertex 1.687621E00 3.301376E01 3.197076E01
      vertex 0.000000E00 3.221698E01 3.325999E01
      vertex 0.000000E00 3.236915E01 3.301376E01
    endloop
  endfacet
  facet normal 0.000000E00 -8.506508E-01 -5.257311E-01
    outer loop
      vertex 1.687621E00 8.836500E00 2.730629E00
      vertex 1.148156E00 8.293966E00 3.608466E00
      vertex 1.043007E00 8.370053E00 3.485356E00
    endloop
  endfacet
  facet normal 5.877852E-01 -4.253254E-01 6.881910E-01
    outer loop
      vertex 2.730629E00 3.028314E01 1.975901E01
      vertex 0.000000E00 2.924013E01 2.144664E01
      vertex 0.000000E00 1.598538E01 1.325475E01
    endloop
  endfacet
  facet normal 5.877852E-01 -4.253254E-01 6.881910E-01
    outer loop
      vertex 2.730629E00 3.028314E01 1.975901E01
      vertex 0.000000E00 1.598538E01 1.325475E01
      vertex 2.730629E00 1.702839E01 1.156713E01
    endloop
  endfacet
  facet normal 0.000000E00 8.506508E-01 5.257311E-01
    outer loop
      vertex 0.000000E00 2.506810E01 1.791922E01
      vertex 1.962904E00 2.581786E01 1.670608E01
      vertex 1.213142E00 2.703100E01 1.474317E01
    endloop
  endfacet
  facet normal 0.000000E00 8.506508E-01 5.257311E-01
    outer loop
      vertex 0.000000E00 2.506810E01 1.791922E01
      vertex 1.213142E00 2.703100E01 1.474317E01
      vertex -1.213142E00 2.703100E01 1.474317E01
    endloop
  endfacet
  facet normal 0.000000E00 8.506508E-01 5.257311E-01
    outer loop
      vertex 0.000000E00 2.506810E01 1.791922E01
      vertex -1.213142E00 2.703100E01 1.474317E01
      vertex -1.962904E00 2.581786E01 1.670608E01
    endloop
  endfacet
  facet normal -5.211576E-01 -7.704951E-01 3.670586E-01
    outer loop
      vertex -1.441401E00 3.773636E00 2.882801E00
      vertex 0.000000E00 3.223070E00 3.773636E00
      vertex -1.383276E00 4.113904E00 3.679588E00
    endloop
  endfacet
  facet normal 3.053642E-01 -6.244958E-01 7.188585E-01
    outer loop
      vertex 1.582472E00 4.918724E00 3.854687E00
      vertex 1.412338E00 4.889662E00 3.901711E00
      vertex 1.687621E00 4.418250E00 3.375243E00
    endloop
  endfacet
  facet normal 0.000000E00 -8.506508E-01 -5.257311E-01
    outer loop
      vertex -2.730629E00 7.148879E00 5.461257E00
      vertex -1.687621E00 7.421093E00 5.020804E00
      vertex -1.687621E00 7.327045E00 5.172977E00
    endloop
  endfacet
  facet normal -8.090170E-01 -3.090170E-01 5.000000E-01
    outer loop
      vertex -1.582472E00 4.918724E00 3.854687E00
      vertex -1.687621E00 4.994811E00 3.731577E00
      vertex -1.687621E00 4.418250E00 3.375243E00
    endloop
  endfacet
  facet normal 9.341723E-01 0.000000E00 3.568221E-01
    outer loop
      vertex -1.687621E00 1.871601E01 8.836500E00
      vertex 0.000000E00 1.598538E01 4.418250E00
      vertex -2.730629E00 3.132614E01 1.156713E01
    endloop
  endfacet
  facet normal 0.000000E00 -8.506508E-01 -5.257311E-01
    outer loop
      vertex -1.687621E00 8.836500E00 2.730629E00
      vertex -1.043007E00 8.370053E00 3.485356E00
      vertex -1.148156E00 8.293966E00 3.608466E00
    endloop
  endfacet
  facet normal -2.185080E-01 7.905694E-01 -5.720614E-01
    outer loop
      vertex 5.505661E-01 5.461257E00 1.499525E00
      vertex 5.812481E-02 5.461257E00 1.687621E00
      vertex 5.505661E-01 5.707478E00 1.839794E00
    endloop
  endfacet
  facet normal 3.090170E-01 -5.000000E-01 8.090170E-01
    outer loop
      vertex 1.701343E-01 6.711494E00 6.168961E00
      vertex 0.000000E00 6.682432E00 6.215984E00
      vertex 0.000000E00 4.350196E00 4.774584E00
    endloop
  endfacet
  facet normal 3.090170E-01 -5.000000E-01 8.090170E-01
    outer loop
      vertex 1.701343E-01 6.711494E00 6.168961E00
      vertex 0.000000E00 4.350196E00 4.774584E00
      vertex 1.701343E-01 4.379259E00 4.727560E00
    endloop
  endfacet
  facet normal -9.510565E-01 -1.624599E-01 2.628656E-01
    outer loop
      vertex -4.418250E00 4.580207E01 1.778311E01
      vertex -4.418250E00 4.289327E01 1.598538E01
      vertex -3.773636E00 4.185026E01 1.767300E01
    endloop
  endfacet
  facet normal -9.510565E-01 -1.624599E-01 2.628656E-01
    outer loop
      vertex -4.418250E00 4.580207E01 1.778311E01
      vertex -3.773636E00 4.185026E01 1.767300E01
      vertex -3.773636E00 4.475906E01 1.947074E01
    endloop
  endfacet
  facet normal -8.090170E-01 3.090170E-01 -5.000000E-01
    outer loop
      vertex -1.687621E00 7.421093E00 5.020804E00
      vertex -1.582472E00 7.497180E00 4.897695E00
      vertex -1.582472E00 5.164944E00 3.456293E00
    endloop
  endfacet
  facet normal -8.090170E-01 3.090170E-01 -5.000000E-01
    outer loop
      vertex -1.687621E00 7.421093E00 5.020804E00
      vertex -1.582472E00 5.164944E00 3.456293E00
      vertex -1.687621E00 5.088858E00 3.579404E00
    endloop
  endfacet
  facet normal 9.341723E-01 0.000000E00 3.568221E-01
    outer loop
      vertex -4.095943E00 3.522289E01 1.514157E01
      vertex -1.687621E00 1.871601E01 8.836500E00
      vertex -2.730629E00 3.132614E01 1.156713E01
    endloop
  endfacet
  facet normal 0.000000E00 8.506508E-01 5.257311E-01
    outer loop
      vertex -1.043007E00 3.696556E01 3.208087E01
      vertex -1.687621E00 3.743201E01 3.132614E01
      vertex -2.730629E00 3.574439E01 3.405677E01
    endloop
  endfacet
  facet normal 0.000000E00 8.506508E-01 5.257311E-01
    outer loop
      vertex -1.043007E00 3.696556E01 3.208087E01
      vertex -2.730629E00 3.574439E01 3.405677E01
      vertex -1.687621E00 3.592256E01 3.376849E01
    endloop
  endfacet
  facet normal 0.000000E00 -3.568221E-01 9.341723E-01
    outer loop
      vertex -4.418250E00 1.429776E01 7.148879E00
      vertex -1.687621E00 1.871601E01 8.836500E00
      vertex -5.461257E00 3.028314E01 1.325475E01
    endloop
  endfacet
  facet normal -5.877852E-01 -4.253254E-01 6.881910E-01
    outer loop
      vertex 0.000000E00 3.470139E01 3.574439E01
      vertex -2.730629E00 3.574439E01 3.405677E01
      vertex -2.730629E00 3.132614E01 3.132614E01
    endloop
  endfacet
  facet normal -5.877852E-01 -4.253254E-01 6.881910E-01
    outer loop
      vertex 0.000000E00 3.470139E01 3.574439E01
      vertex -2.730629E00 3.132614E01 3.132614E01
      vertex 0.000000E00 3.028314E01 3.301376E01
    endloop
  endfacet
  facet normal 0.000000E00 -8.506508E-01 -5.257311E-01
    outer loop
      vertex 2.730629E00 7.148879E00 5.461257E00
      vertex 1.687621E00 7.327045E00 5.172977E00
      vertex 1.687621E00 7.421093E00 5.020804E00
    endloop
  endfacet
  facet normal 5.211576E-01 -7.704951E-01 3.670586E-01
    outer loop
      vertex 0.000000E00 3.223070E00 3.773636E00
      vertex 1.441401E00 3.773636E00 2.882801E00
      vertex 4.924413E-01 3.773636E00 4.230154E00
    endloop
  endfacet
  facet normal -5.877852E-01 4.253254E-01 -6.881909E-01
    outer loop
      vertex -3.498353E00 4.011562E01 1.670608E01
      vertex -5.461257E00 3.936586E01 1.791922E01
      vertex -5.461257E00 4.105348E01 1.896223E01
    endloop
  endfacet
  facet normal -5.877852E-01 4.253254E-01 -6.881909E-01
    outer loop
      vertex -3.498353E00 4.011562E01 1.670608E01
      vertex -5.461257E00 4.105348E01 1.896223E01
      vertex -3.498353E00 4.180324E01 1.774909E01
    endloop
  endfacet
  facet normal 8.090170E-01 -3.090170E-01 5.000000E-01
    outer loop
      vertex 1.687621E00 7.327045E00 5.172977E00
      vertex 1.582472E00 7.250959E00 5.296088E00
      vertex 1.582472E00 4.918724E00 3.854687E00
    endloop
  endfacet
  facet normal 8.090170E-01 -3.090170E-01 5.000000E-01
    outer loop
      vertex 1.687621E00 7.327045E00 5.172977E00
      vertex 1.582472E00 4.918724E00 3.854687E00
      vertex 1.687621E00 4.994811E00 3.731577E00
    endloop
  endfacet
  facet normal 3.053643E-01 3.636836E-01 -8.800494E-01
    outer loop
      vertex -8.728731E-01 6.066880E00 1.996931E00
      vertex -7.027388E-01 6.037818E00 2.043955E00
      vertex -1.043007E00 5.461257E00 1.687621E00
    endloop
  endfacet
  facet normal 0.000000E00 2.297529E-01 -9.732490E-01
    outer loop
      vertex -3.375243E00 1.598538E01 4.418250E00
      vertex 0.000000E00 1.598538E01 4.418250E00
      vertex 1.687621E00 8.836500E00 2.730629E00
    endloop
  endfacet
  facet normal 0.000000E00 2.297529E-01 -9.732490E-01
    outer loop
      vertex -3.375243E00 1.598538E01 4.418250E00
      vertex 1.687621E00 8.836500E00 2.730629E00
      vertex -1.687621E00 8.836500E00 2.730629E00
    endloop
  endfacet
  facet normal -7.994540E-01 1.749581E-01 -5.746851E-01
    outer loop
      vertex -1.687621E00 5.088858E00 3.579404E00
      vertex -1.582472E00 5.164944E00 3.456293E00
      vertex -1.687621E00 4.418250E00 3.375243E00
    endloop
  endfacet
  facet normal -9.510565E-01 -1.624599E-01 2.628656E-01
    outer loop
      vertex 1.043007E00 3.150431E01 1.778311E01
      vertex 1.043007E00 2.859551E01 1.598538E01
      vertex 1.687621E00 2.755251E01 1.767300E01
    endloop
  endfacet
  facet normal -9.510565E-01 -1.624599E-01 2.628656E-01
    outer loop
      vertex 1.043007E00 3.150431E01 1.778311E01
      vertex 1.687621E00 2.755251E01 1.767300E01
      vertex 1.687621E00 3.046130E01 1.947074E01
    endloop
  endfacet
  facet normal 0.000000E00 -5.257311E-01 8.506508E-01
    outer loop
      vertex -1.043007E00 3.696556E01 3.208087E01
      vertex -1.043007E00 3.405677E01 3.028314E01
      vertex 1.043007E00 3.405677E01 3.028314E01
    endloop
  endfacet
  facet normal 0.000000E00 -5.257311E-01 8.506508E-01
    outer loop
      vertex -1.043007E00 3.696556E01 3.208087E01
      vertex 1.043007E00 3.405677E01 3.028314E01
      vertex 1.043007E00 3.696556E01 3.208087E01
    endloop
  endfacet
  facet normal -3.053642E-01 -6.244958E-01 7.188585E-01
    outer loop
      vertex -1.412338E00 4.889662E00 3.901711E00
      vertex -1.582472E00 4.918724E00 3.854687E00
      vertex -1.687621E00 4.418250E00 3.375243E00
    endloop
  endfacet
  facet normal 0.000000E00 -8.506508E-01 -5.257311E-01
    outer loop
      vertex 1.687621E00 8.836500E00 2.730629E00
      vertex 2.730629E00 7.148879E00 5.461257E00
      vertex 1.687621E00 7.421093E00 5.020804E00
    endloop
  endfacet
  facet normal 0.000000E00 -8.506508E-01 -5.257311E-01
    outer loop
      vertex 1.687621E00 8.836500E00 2.730629E00
      vertex 1.687621E00 7.421093E00 5.020804E00
      vertex 1.582472E00 7.497180E00 4.897695E00
    endloop
  endfacet
  facet normal 0.000000E00 -8.506508E-01 -5.257311E-01
    outer loop
      vertex 1.687621E00 8.836500E00 2.730629E00
      vertex 1.582472E00 7.497180E00 4.897695E00
      vertex 1.148156E00 8.199919E00 3.760639E00
    endloop
  endfacet
  facet normal 0.000000E00 -8.506508E-01 -5.257311E-01
    outer loop
      vertex 1.687621E00 8.836500E00 2.730629E00
      vertex 1.148156E00 8.199919E00 3.760639E00
      vertex 1.148156E00 8.293966E00 3.608466E00
    endloop
  endfacet
  facet normal 5.773503E-01 -5.773503E-01 5.773503E-01
    outer loop
      vertex 0.000000E00 1.052412E01 1.325475E01
      vertex 2.730629E00 1.156713E01 1.156713E01
      vertex 2.730629E00 3.132614E01 3.132614E01
    endloop
  endfacet
  facet normal 5.773503E-01 -5.773503E-01 5.773503E-01
    outer loop
      vertex 0.000000E00 1.052412E01 1.325475E01
      vertex 2.730629E00 3.132614E01 3.132614E01
      vertex 0.000000E00 3.028314E01 3.301376E01
    endloop
  endfacet
  facet normal 0.000000E00 5.257311E-01 -8.506508E-01
    outer loop
      vertex 7.027388E-01 6.037818E00 2.043955E00
      vertex 1.043007E00 5.461257E00 1.687621E00
      vertex 5.505661E-01 5.707478E00 1.839794E00
    endloop
  endfacet
  facet normal 1.000000E00 0.000000E00 0.000000E00
    outer loop
      vertex 1.148156E00 8.293966E00 3.608466E00
      vertex 1.148156E00 8.199919E00 3.760639E00
      vertex 1.148156E00 5.867683E00 2.319238E00
    endloop
  endfacet
  facet normal 1.000000E00 0.000000E00 0.000000E00
    outer loop
      vertex 1.148156E00 8.293966E00 3.608466E00
      vertex 1.148156E00 5.867683E00 2.319238E00
      vertex 1.148156E00 5.961731E00 2.167066E00
    endloop
  endfacet
  facet normal -9.256148E-01 3.535534E-01 1.350454E-01
    outer loop
      vertex -1.347353E00 5.156912E00 1.991967E00
      vertex -1.347353E00 4.968816E00 2.484408E00
      vertex -1.195180E00 5.461257E00 2.238187E00
    endloop
  endfacet
  facet normal 8.090170E-01 3.090170E-01 -5.000000E-01
    outer loop
      vertex 1.043007E00 6.037818E00 2.043955E00
      vertex 1.148156E00 5.961731E00 2.167066E00
      vertex 1.043007E00 5.461257E00 1.687621E00
    endloop
  endfacet
  facet normal 0.000000E00 -8.506508E-01 -5.257311E-01
    outer loop
      vertex 0.000000E00 2.690789E01 1.871601E01
      vertex 0.000000E00 2.675572E01 1.896223E01
      vertex -1.962904E00 2.750548E01 1.774909E01
    endloop
  endfacet
  facet normal 0.000000E00 -8.506508E-01 -5.257311E-01
    outer loop
      vertex 0.000000E00 2.690789E01 1.871601E01
      vertex -1.962904E00 2.750548E01 1.774909E01
      vertex -1.687621E00 2.755251E01 1.767300E01
    endloop
  endfacet
  facet normal 0.000000E00 -8.506508E-01 -5.257311E-01
    outer loop
      vertex -1.687621E00 8.836500E00 2.730629E00
      vertex -8.728731E-01 8.399116E00 3.438332E00
      vertex -1.043007E00 8.370053E00 3.485356E00
    endloop
  endfacet
  facet normal 0.000000E00 8.506508E-01 5.257311E-01
    outer loop
      vertex -5.461257E00 4.411444E01 2.051374E01
      vertex -5.461257E00 4.353789E01 2.144664E01
      vertex -2.730629E00 4.458089E01 1.975901E01
    endloop
  endfacet
  facet normal 0.000000E00 8.506508E-01 5.257311E-01
    outer loop
      vertex -5.461257E00 4.411444E01 2.051374E01
      vertex -2.730629E00 4.458089E01 1.975901E01
      vertex -3.773636E00 4.475906E01 1.947074E01
    endloop
  endfacet
  facet normal 8.090170E-01 3.090170E-01 -5.000000E-01
    outer loop
      vertex 1.582472E00 7.497180E00 4.897695E00
      vertex 1.687621E00 7.421093E00 5.020804E00
      vertex 1.687621E00 5.088858E00 3.579404E00
    endloop
  endfacet
  facet normal 8.090170E-01 3.090170E-01 -5.000000E-01
    outer loop
      vertex 1.582472E00 7.497180E00 4.897695E00
      vertex 1.687621E00 5.088858E00 3.579404E00
      vertex 1.582472E00 5.164944E00 3.456293E00
    endloop
  endfacet
  facet normal -5.773503E-01 5.773503E-01 -5.773503E-01
    outer loop
      vertex -1.687621E00 2.417727E01 2.313426E01
      vertex -2.730629E00 1.156713E01 1.156713E01
      vertex -2.730629E00 3.132614E01 3.132614E01
    endloop
  endfacet
  facet normal 0.000000E00 -8.506508E-01 -5.257311E-01
    outer loop
      vertex 1.687621E00 2.755251E01 1.767300E01
      vertex 1.962904E00 2.750548E01 1.774909E01
      vertex 0.000000E00 2.675572E01 1.896223E01
    endloop
  endfacet
  facet normal 0.000000E00 -8.506508E-01 -5.257311E-01
    outer loop
      vertex 1.687621E00 2.755251E01 1.767300E01
      vertex 0.000000E00 2.675572E01 1.896223E01
      vertex 0.000000E00 2.690789E01 1.871601E01
    endloop
  endfacet
  facet normal -8.090170E-01 3.090170E-01 -5.000000E-01
    outer loop
      vertex -1.148156E00 8.293966E00 3.608466E00
      vertex -1.043007E00 8.370053E00 3.485356E00
      vertex -1.043007E00 6.037818E00 2.043955E00
    endloop
  endfacet
  facet normal -8.090170E-01 3.090170E-01 -5.000000E-01
    outer loop
      vertex -1.148156E00 8.293966E00 3.608466E00
      vertex -1.043007E00 6.037818E00 2.043955E00
      vertex -1.148156E00 5.961731E00 2.167066E00
    endloop
  endfacet
  facet normal 0.000000E00 -5.257311E-01 8.506508E-01
    outer loop
      vertex -6.504264E00 4.580207E01 1.778311E01
      vertex -6.504264E00 4.289327E01 1.598538E01
      vertex -4.418250E00 4.289327E01 1.598538E01
    endloop
  endfacet
  facet normal 0.000000E00 -5.257311E-01 8.506508E-01
    outer loop
      vertex -6.504264E00 4.580207E01 1.778311E01
      vertex -4.418250E00 4.289327E01 1.598538E01
      vertex -4.418250E00 4.580207E01 1.778311E01
    endloop
  endfacet
  facet normal 8.432508E-01 -2.493374E-01 -4.761922E-01
    outer loop
      vertex 1.441401E00 3.773636E00 2.882801E00
      vertex 8.908346E-01 4.664471E00 1.441401E00
      vertex 1.687621E00 4.606346E00 2.882801E00
    endloop
  endfacet
  facet normal 5.877853E-01 4.253254E-01 -6.881910E-01
    outer loop
      vertex 0.000000E00 2.981669E01 2.051374E01
      vertex 0.000000E00 2.690789E01 1.871601E01
      vertex -1.687621E00 2.755251E01 1.767300E01
    endloop
  endfacet
  facet normal 5.877853E-01 4.253254E-01 -6.881910E-01
    outer loop
      vertex 0.000000E00 2.981669E01 2.051374E01
      vertex -1.687621E00 2.755251E01 1.767300E01
      vertex -1.687621E00 3.046130E01 1.947074E01
    endloop
  endfacet
  facet normal -8.090170E-01 -3.090170E-01 5.000000E-01
    outer loop
      vertex -1.582472E00 7.250959E00 5.296088E00
      vertex -1.687621E00 7.327045E00 5.172977E00
      vertex -1.687621E00 4.994811E00 3.731577E00
    endloop
  endfacet
  facet normal -8.090170E-01 -3.090170E-01 5.000000E-01
    outer loop
      vertex -1.582472E00 7.250959E00 5.296088E00
      vertex -1.687621E00 4.994811E00 3.731577E00
      vertex -1.582472E00 4.918724E00 3.854687E00
    endloop
  endfacet
  facet normal 3.090170E-01 5.000000E-01 -8.090170E-01
    outer loop
      vertex 8.728731E-01 8.399116E00 3.438332E00
      vertex 1.043007E00 8.370053E00 3.485356E00
      vertex 1.043007E00 6.037818E00 2.043955E00
    endloop
  endfacet
  facet normal 3.090170E-01 5.000000E-01 -8.090170E-01
    outer loop
      vertex 8.728731E-01 8.399116E00 3.438332E00
      vertex 1.043007E00 6.037818E00 2.043955E00
      vertex 8.728731E-01 6.066880E00 1.996931E00
    endloop
  endfacet
  facet normal 9.510565E-01 -1.624599E-01 2.628655E-01
    outer loop
      vertex -1.962904E00 3.127912E01 3.100384E01
      vertex -1.213142E00 3.249226E01 2.904093E01
      vertex -1.213142E00 3.417988E01 3.008394E01
    endloop
  endfacet
  facet normal 9.510565E-01 -1.624599E-01 2.628655E-01
    outer loop
      vertex -1.962904E00 3.127912E01 3.100384E01
      vertex -1.213142E00 3.417988E01 3.008394E01
      vertex -1.962904E00 3.296674E01 3.204684E01
    endloop
  endfacet
  facet normal -1.000000E00 0.000000E00 0.000000E00
    outer loop
      vertex -1.687621E00 7.327045E00 5.172977E00
      vertex -1.687621E00 7.421093E00 5.020804E00
      vertex -1.687621E00 5.088858E00 3.579404E00
    endloop
  endfacet
  facet normal -1.000000E00 0.000000E00 0.000000E00
    outer loop
      vertex -1.687621E00 7.327045E00 5.172977E00
      vertex -1.687621E00 5.088858E00 3.579404E00
      vertex -1.687621E00 4.994811E00 3.731577E00
    endloop
  endfacet
  facet normal 0.000000E00 8.506508E-01 5.257311E-01
    outer loop
      vertex -1.687621E00 3.592256E01 3.376849E01
      vertex -2.730629E00 3.574439E01 3.405677E01
      vertex 0.000000E00 3.470139E01 3.574439E01
    endloop
  endfacet
  facet normal 0.000000E00 8.506508E-01 5.257311E-01
    outer loop
      vertex -1.687621E00 3.592256E01 3.376849E01
      vertex 0.000000E00 3.470139E01 3.574439E01
      vertex 0.000000E00 3.527795E01 3.481150E01
    endloop
  endfacet
  facet normal 0.000000E00 8.506508E-01 -5.257311E-01
    outer loop
      vertex 1.687621E00 1.871601E01 8.836500E00
      vertex 0.000000E00 1.598538E01 4.418250E00
      vertex -1.687621E00 1.871601E01 8.836500E00
    endloop
  endfacet
  facet normal -9.205740E-01 -5.638617E-02 -3.864766E-01
    outer loop
      vertex -1.347353E00 4.968816E00 2.484408E00
      vertex -1.441401E00 3.773636E00 2.882801E00
      vertex -1.687621E00 4.418250E00 3.375243E00
    endloop
  endfacet
  facet normal 0.000000E00 -5.257311E-01 8.506508E-01
    outer loop
      vertex -1.043007E00 3.150431E01 1.778311E01
      vertex -1.043007E00 2.859551E01 1.598538E01
      vertex 1.043007E00 2.859551E01 1.598538E01
    endloop
  endfacet
  facet normal 0.000000E00 -5.257311E-01 8.506508E-01
    outer loop
      vertex -1.043007E00 3.150431E01 1.778311E01
      vertex 1.043007E00 2.859551E01 1.598538E01
      vertex 1.043007E00 3.150431E01 1.778311E01
    endloop
  endfacet
  facet normal -7.071068E-01 0.000000E00 7.071068E-01
    outer loop
      vertex -1.289228E00 4.512298E00 3.773636E00
      vertex -1.687621E00 4.418250E00 3.375243E00
      vertex -1.383276E00 4.113904E00 3.679588E00
    endloop
  endfacet
  facet normal 0.000000E00 7.275569E-02 -9.973499E-01
    outer loop
      vertex 8.908346E-01 4.664471E00 1.441401E00
      vertex -8.908346E-01 4.664471E00 1.441401E00
      vertex 5.505661E-01 5.461257E00 1.499525E00
    endloop
  endfacet
  facet normal 9.510565E-01 1.624598E-01 -2.628656E-01
    outer loop
      vertex 1.148156E00 8.199919E00 3.760639E00
      vertex 1.582472E00 7.497180E00 4.897695E00
      vertex 1.582472E00 5.164944E00 3.456293E00
    endloop
  endfacet
  facet normal 9.510565E-01 1.624598E-01 -2.628656E-01
    outer loop
      vertex 1.148156E00 8.199919E00 3.760639E00
      vertex 1.582472E00 5.164944E00 3.456293E00
      vertex 1.148156E00 5.867683E00 2.319238E00
    endloop
  endfacet
  facet normal 0.000000E00 -8.506508E-01 -5.257311E-01
    outer loop
      vertex -5.461257E00 4.120565E01 1.871601E01
      vertex -5.461257E00 4.105348E01 1.896223E01
      vertex -7.424162E00 4.180324E01 1.774909E01
    endloop
  endfacet
  facet normal 0.000000E00 -8.506508E-01 -5.257311E-01
    outer loop
      vertex -5.461257E00 4.120565E01 1.871601E01
      vertex -7.424162E00 4.180324E01 1.774909E01
      vertex -7.148879E00 4.185026E01 1.767300E01
    endloop
  endfacet
  facet normal -9.953739E-01 8.975280E-02 3.428252E-02
    outer loop
      vertex -1.347353E00 5.156912E00 1.991967E00
      vertex -1.441401E00 3.773636E00 2.882801E00
      vertex -1.347353E00 4.968816E00 2.484408E00
    endloop
  endfacet
  facet normal 9.256148E-01 3.535534E-01 1.350454E-01
    outer loop
      vertex 1.535449E00 4.910691E00 3.129022E00
      vertex 1.687621E00 4.418250E00 3.375243E00
      vertex 1.687621E00 4.606346E00 2.882801E00
    endloop
  endfacet
  facet normal -5.877853E-01 4.253254E-01 -6.881910E-01
    outer loop
      vertex 1.687621E00 3.592256E01 3.376849E01
      vertex 1.687621E00 3.301376E01 3.197076E01
      vertex 0.000000E00 3.236915E01 3.301376E01
    endloop
  endfacet
  facet normal -5.877853E-01 4.253254E-01 -6.881910E-01
    outer loop
      vertex 1.687621E00 3.592256E01 3.376849E01
      vertex 0.000000E00 3.236915E01 3.301376E01
      vertex 0.000000E00 3.527795E01 3.481150E01
    endloop
  endfacet
  facet normal -3.247287E-01 -4.144815E-01 8.501508E-01
    outer loop
      vertex -1.383276E00 4.113904E00 3.679588E00
      vertex 0.000000E00 3.223070E00 3.773636E00
      vertex -8.908346E-01 4.113904E00 3.867684E00
    endloop
  endfacet
  facet normal 2.407728E-01 -7.380282E-01 6.303514E-01
    outer loop
      vertex 4.924413E-01 3.773636E00 4.230154E00
      vertex 0.000000E00 3.773636E00 4.418250E00
      vertex 0.000000E00 3.223070E00 3.773636E00
    endloop
  endfacet
  facet normal 9.510565E-01 1.624598E-01 -2.628655E-01
    outer loop
      vertex 1.687621E00 1.871601E01 8.836500E00
      vertex 2.730629E00 1.702839E01 1.156713E01
      vertex 2.730629E00 7.148879E00 5.461257E00
    endloop
  endfacet
  facet normal 9.510565E-01 1.624598E-01 -2.628655E-01
    outer loop
      vertex 1.687621E00 1.871601E01 8.836500E00
      vertex 2.730629E00 7.148879E00 5.461257E00
      vertex 1.687621E00 8.836500E00 2.730629E00
    endloop
  endfacet
  facet normal 8.090170E-01 3.090170E-01 -5.000000E-01
    outer loop
      vertex 0.000000E00 1.598538E01 4.418250E00
      vertex 1.687621E00 1.871601E01 8.836500E00
      vertex 1.687621E00 8.836500E00 2.730629E00
    endloop
  endfacet
  facet normal 0.000000E00 8.506508E-01 5.257311E-01
    outer loop
      vertex -1.687621E00 3.046130E01 1.947074E01
      vertex -2.730629E00 3.028314E01 1.975901E01
      vertex 0.000000E00 2.924013E01 2.144664E01
    endloop
  endfacet
  facet normal 0.000000E00 8.506508E-01 5.257311E-01
    outer loop
      vertex -1.687621E00 3.046130E01 1.947074E01
      vertex 0.000000E00 2.924013E01 2.144664E01
      vertex 0.000000E00 2.981669E01 2.051374E01
    endloop
  endfacet
  facet normal -3.090170E-01 -5.000000E-01 8.090170E-01
    outer loop
      vertex -1.412338E00 7.221897E00 5.343112E00
      vertex -1.582472E00 7.250959E00 5.296088E00
      vertex -1.582472E00 4.918724E00 3.854687E00
    endloop
  endfacet
  facet normal -3.090170E-01 -5.000000E-01 8.090170E-01
    outer loop
      vertex -1.412338E00 7.221897E00 5.343112E00
      vertex -1.582472E00 4.918724E00 3.854687E00
      vertex -1.412338E00 4.889662E00 3.901711E00
    endloop
  endfacet
  facet normal -5.877853E-01 4.253254E-01 -6.881910E-01
    outer loop
      vertex -3.773636E00 4.475906E01 1.947074E01
      vertex -3.773636E00 4.185026E01 1.767300E01
      vertex -5.461257E00 4.120565E01 1.871601E01
    endloop
  endfacet
  facet normal -5.877853E-01 4.253254E-01 -6.881910E-01
    outer loop
      vertex -3.773636E00 4.475906E01 1.947074E01
      vertex -5.461257E00 4.120565E01 1.871601E01
      vertex -5.461257E00 4.411444E01 2.051374E01
    endloop
  endfacet
  facet normal 9.510565E-01 1.624599E-01 -2.628656E-01
    outer loop
      vertex 1.687621E00 3.743201E01 3.132614E01
      vertex 2.730629E00 3.574439E01 3.405677E01
      vertex 2.730629E00 3.132614E01 3.132614E01
    endloop
  endfacet
  facet normal 9.510565E-01 1.624599E-01 -2.628656E-01
    outer loop
      vertex 1.687621E00 3.743201E01 3.132614E01
      vertex 2.730629E00 3.132614E01 3.132614E01
      vertex 1.687621E00 2.417727E01 2.313426E01
    endloop
  endfacet
  facet normal 5.576221E-01 -6.724985E-01 4.866245E-01
    outer loop
      vertex 2.730629E00 1.156713E01 1.156713E01
      vertex 0.000000E00 1.052412E01 1.325475E01
      vertex 0.000000E00 6.105871E00 7.148879E00
    endloop
  endfacet
  facet normal 5.576221E-01 -6.724985E-01 4.866245E-01
    outer loop
      vertex 2.730629E00 1.156713E01 1.156713E01
      vertex 0.000000E00 6.105871E00 7.148879E00
      vertex 2.730629E00 7.148879E00 5.461257E00
    endloop
  endfacet
  facet normal -7.994540E-01 -4.357703E-01 4.134943E-01
    outer loop
      vertex -1.701343E-01 4.379259E00 4.727560E00
      vertex -2.752830E-01 4.455345E00 4.604450E00
      vertex 0.000000E00 3.773636E00 4.418250E00
    endloop
  endfacet
  facet normal 0.000000E00 8.506508E-01 5.257311E-01
    outer loop
      vertex -1.043007E00 3.150431E01 1.778311E01
      vertex -1.687621E00 3.197076E01 1.702839E01
      vertex -2.730629E00 3.028314E01 1.975901E01
    endloop
  endfacet
  facet normal 0.000000E00 8.506508E-01 5.257311E-01
    outer loop
      vertex -1.043007E00 3.150431E01 1.778311E01
      vertex -2.730629E00 3.028314E01 1.975901E01
      vertex -1.687621E00 3.046130E01 1.947074E01
    endloop
  endfacet
  facet normal -8.090170E-01 3.090170E-01 -5.000000E-01
    outer loop
      vertex -1.148156E00 5.961731E00 2.167066E00
      vertex -1.043007E00 6.037818E00 2.043955E00
      vertex -1.043007E00 5.461257E00 1.687621E00
    endloop
  endfacet
  facet normal 0.000000E00 5.257311E-01 -8.506508E-01
    outer loop
      vertex -1.687621E00 3.197076E01 1.702839E01
      vertex 1.687621E00 3.197076E01 1.702839E01
      vertex 1.687621E00 1.871601E01 8.836500E00
    endloop
  endfacet
  facet normal 0.000000E00 5.257311E-01 -8.506508E-01
    outer loop
      vertex -1.687621E00 3.197076E01 1.702839E01
      vertex 1.687621E00 1.871601E01 8.836500E00
      vertex -1.687621E00 1.871601E01 8.836500E00
    endloop
  endfacet
  facet normal 0.000000E00 5.257311E-01 -8.506508E-01
    outer loop
      vertex -7.027388E-01 8.370053E00 3.485356E00
      vertex 7.027388E-01 8.370053E00 3.485356E00
      vertex 7.027388E-01 6.037818E00 2.043955E00
    endloop
  endfacet
  facet normal 0.000000E00 5.257311E-01 -8.506508E-01
    outer loop
      vertex -7.027388E-01 8.370053E00 3.485356E00
      vertex 7.027388E-01 6.037818E00 2.043955E00
      vertex -7.027388E-01 6.037818E00 2.043955E00
    endloop
  endfacet
  facet normal 9.510565E-01 1.624599E-01 -2.628655E-01
    outer loop
      vertex 1.687621E00 3.197076E01 1.702839E01
      vertex 2.730629E00 3.028314E01 1.975901E01
      vertex 2.730629E00 1.702839E01 1.156713E01
    endloop
  endfacet
  facet normal 9.510565E-01 1.624599E-01 -2.628655E-01
    outer loop
      vertex 1.687621E00 3.197076E01 1.702839E01
      vertex 2.730629E00 1.702839E01 1.156713E01
      vertex 1.687621E00 1.871601E01 8.836500E00
    endloop
  endfacet
  facet normal 0.000000E00 -8.506508E-01 -5.257311E-01
    outer loop
      vertex -7.148879E00 4.185026E01 1.767300E01
      vertex -7.424162E00 4.180324E01 1.774909E01
      vertex -6.674399E00 4.301638E01 1.578618E01
    endloop
  endfacet
  facet normal 0.000000E00 -8.506508E-01 -5.257311E-01
    outer loop
      vertex -7.148879E00 4.185026E01 1.767300E01
      vertex -6.674399E00 4.301638E01 1.578618E01
      vertex -6.504264E00 4.289327E01 1.598538E01
    endloop
  endfacet
  facet normal -5.877852E-01 -4.253254E-01 6.881910E-01
    outer loop
      vertex 0.000000E00 2.924013E01 2.144664E01
      vertex -2.730629E00 3.028314E01 1.975901E01
      vertex -2.730629E00 1.702839E01 1.156713E01
    endloop
  endfacet
  facet normal -5.877852E-01 -4.253254E-01 6.881910E-01
    outer loop
      vertex 0.000000E00 2.924013E01 2.144664E01
      vertex -2.730629E00 1.702839E01 1.156713E01
      vertex 0.000000E00 1.598538E01 1.325475E01
    endloop
  endfacet
  facet normal 8.090170E-01 3.090170E-01 -5.000000E-01
    outer loop
      vertex 1.043007E00 8.370053E00 3.485356E00
      vertex 1.148156E00 8.293966E00 3.608466E00
      vertex 1.148156E00 5.961731E00 2.167066E00
    endloop
  endfacet
  facet normal 8.090170E-01 3.090170E-01 -5.000000E-01
    outer loop
      vertex 1.043007E00 8.370053E00 3.485356E00
      vertex 1.148156E00 5.961731E00 2.167066E00
      vertex 1.043007E00 6.037818E00 2.043955E00
    endloop
  endfacet
  facet normal 0.000000E00 8.506508E-01 5.257311E-01
    outer loop
      vertex 1.687621E00 3.046130E01 1.947074E01
      vertex 2.730629E00 3.028314E01 1.975901E01
      vertex 1.687621E00 3.197076E01 1.702839E01
    endloop
  endfacet
  facet normal 0.000000E00 8.506508E-01 5.257311E-01
    outer loop
      vertex 1.687621E00 3.046130E01 1.947074E01
      vertex 1.687621E00 3.197076E01 1.702839E01
      vertex 1.043007E00 3.150431E01 1.778311E01
    endloop
  endfacet
  facet normal 9.533820E-01 -2.819017E-01 -1.076769E-01
    outer loop
      vertex 1.687621E00 4.606346E00 2.882801E00
      vertex 1.687621E00 4.418250E00 3.375243E00
      vertex 1.441401E00 3.773636E00 2.882801E00
    endloop
  endfacet
  facet normal -5.689460E-01 -6.253322E-01 5.340974E-01
    outer loop
      vertex -8.908346E-01 4.113904E00 3.867684E00
      vertex 0.000000E00 3.223070E00 3.773636E00
      vertex 0.000000E00 3.773636E00 4.418250E00
    endloop
  endfacet
endsolid vcg
