solid vcg
  facet normal 5.773503E-01 -5.773503E-01 5.773503E-01
    outer loop
      vertex 6.360191E00 -3.266044E00 3.266044E00
      vertex 7.735368E00 -2.578456E00 2.578456E00
      vertex 2.578456E00 -2.578456E00 7.735368E00
    endloop
  endfacet
  facet normal 5.773503E-01 -5.773503E-01 5.773503E-01
    outer loop
      vertex 6.360191E00 -3.266044E00 3.266044E00
      vertex 2.578456E00 -2.578456E00 7.735368E00
      vertex 3.266044E00 -3.266044E00 6.360191E00
    endloop
  endfacet
  facet normal -5.773503E-01 -5.773503E-01 -5.773503E-01
    outer loop
      vertex -3.266044E00 -3.266044E00 -6.360191E00
      vertex -2.578456E00 -2.578456E00 -7.735368E00
      vertex -2.578456E00 -7.735368E00 -2.578456E00
    endloop
  endfacet
  facet normal -5.773503E-01 -5.773503E-01 -5.773503E-01
    outer loop
      vertex -3.266044E00 -3.266044E00 -6.360191E00
      vertex -2.578456E00 -7.735368E00 -2.578456E00
      vertex -3.266044E00 -6.360191E00 -3.266044E00
    endloop
  endfacet
  facet normal -4.082483E-01 -8.164966E-01 4.082483E-01
    outer loop
      vertex 1.547074E00 -1.547074E00 -4.641221E00
      vertex 3.266044E00 -3.266044E00 -6.360191E00
      vertex 6.360191E00 -3.266044E00 -3.266044E00
    endloop
  endfacet
  facet normal -4.082483E-01 -8.164966E-01 4.082483E-01
    outer loop
      vertex 1.547074E00 -1.547074E00 -4.641221E00
      vertex 6.360191E00 -3.266044E00 -3.266044E00
      vertex 4.641221E00 -1.547074E00 -1.547074E00
    endloop
  endfacet
  facet normal 0.000000E00 0.000000E00 -1.000000E00
    outer loop
      vertex 4.641221E00 1.547074E00 1.547074E00
      vertex 7.735368E00 1.547074E00 1.547074E00
      vertex 7.735368E00 -1.547074E00 1.547074E00
    endloop
  endfacet
  facet normal 0.000000E00 0.000000E00 -1.000000E00
    outer loop
      vertex 4.641221E00 1.547074E00 1.547074E00
      vertex 7.735368E00 -1.547074E00 1.547074E00
      vertex 4.641221E00 -1.547074E00 1.547074E00
    endloop
  endfacet
  facet normal 0.000000E00 0.000000E00 1.000000E00
    outer loop
      vertex 1.547074E00 4.641221E00 -1.547074E00
      vertex 1.547074E00 7.735368E00 -1.547074E00
      vertex -1.547074E00 7.735368E00 -1.547074E00
    endloop
  endfacet
  facet normal 0.000000E00 0.000000E00 1.000000E00
    outer loop
      vertex 1.547074E00 4.641221E00 -1.547074E00
      vertex -1.547074E00 7.735368E00 -1.547074E00
      vertex -1.547074E00 4.641221E00 -1.547074E00
    endloop
  endfacet
  facet normal -5.773503E-01 5.773503E-01 5.773503E-01
    outer loop
      vertex -3.266044E00 3.266044E00 6.360191E00
      vertex -2.578456E00 2.578456E00 7.735368E00
      vertex -2.578456E00 7.735368E00 2.578456E00
    endloop
  endfacet
  facet normal -5.773503E-01 5.773503E-01 5.773503E-01
    outer loop
      vertex -3.266044E00 3.266044E00 6.360191E00
      vertex -2.578456E00 7.735368E00 2.578456E00
      vertex -3.266044E00 6.360191E00 3.266044E00
    endloop
  endfacet
  facet normal -5.773503E-01 5.773503E-01 -5.773503E-01
    outer loop
      vertex -6.360191E00 3.266044E00 -3.266044E00
      vertex -7.735368E00 2.578456E00 -2.578456E00
      vertex -2.578456E00 7.735368E00 -2.578456E00
    endloop
  endfacet
  facet normal -5.773503E-01 5.773503E-01 -5.773503E-01
    outer loop
      vertex -6.360191E00 3.266044E00 -3.266044E00
      vertex -2.578456E00 7.735368E00 -2.578456E00
      vertex -3.266044E00 6.360191E00 -3.266044E00
    endloop
  endfacet
  facet normal 1.000000E00 0.000000E00 0.000000E00
    outer loop
      vertex -1.547074E00 -4.641221E00 1.547074E00
      vertex -1.547074E00 -7.735368E00 1.547074E00
      vertex -1.547074E00 -7.735368E00 -1.547074E00
    endloop
  endfacet
  facet normal 1.000000E00 0.000000E00 0.000000E00
    outer loop
      vertex -1.547074E00 -4.641221E00 1.547074E00
      vertex -1.547074E00 -7.735368E00 -1.547074E00
      vertex -1.547074E00 -4.641221E00 -1.547074E00
    endloop
  endfacet
  facet normal 4.082483E-01 -4.082483E-01 8.164966E-01
    outer loop
      vertex -1.547074E00 4.641221E00 1.547074E00
      vertex -3.266044E00 6.360191E00 3.266044E00
      vertex -6.360191E00 3.266044E00 3.266044E00
    endloop
  endfacet
  facet normal 4.082483E-01 -4.082483E-01 8.164966E-01
    outer loop
      vertex -1.547074E00 4.641221E00 1.547074E00
      vertex -6.360191E00 3.266044E00 3.266044E00
      vertex -4.641221E00 1.547074E00 1.547074E00
    endloop
  endfacet
  facet normal 7.071068E-01 -7.071068E-01 0.000000E00
    outer loop
      vertex 6.703986E00 -3.609838E00 1.547074E00
      vertex 7.735368E00 -2.578456E00 2.578456E00
      vertex 2.578456E00 -7.735368E00 2.578456E00
    endloop
  endfacet
  facet normal 7.071068E-01 -7.071068E-01 0.000000E00
    outer loop
      vertex 6.703986E00 -3.609838E00 1.547074E00
      vertex 2.578456E00 -7.735368E00 2.578456E00
      vertex 3.609838E00 -6.703986E00 1.547074E00
    endloop
  endfacet
  facet normal 4.082483E-01 -4.082483E-01 -8.164966E-01
    outer loop
      vertex -4.641221E00 1.547074E00 -1.547074E00
      vertex -6.360191E00 3.266044E00 -3.266044E00
      vertex -3.266044E00 6.360191E00 -3.266044E00
    endloop
  endfacet
  facet normal 4.082483E-01 -4.082483E-01 -8.164966E-01
    outer loop
      vertex -4.641221E00 1.547074E00 -1.547074E00
      vertex -3.266044E00 6.360191E00 -3.266044E00
      vertex -1.547074E00 4.641221E00 -1.547074E00
    endloop
  endfacet
  facet normal 7.071068E-01 0.000000E00 7.071068E-01
    outer loop
      vertex 6.703986E00 -1.547074E00 3.609838E00
      vertex 7.735368E00 -2.578456E00 2.578456E00
      vertex 7.735368E00 2.578456E00 2.578456E00
    endloop
  endfacet
  facet normal 7.071068E-01 0.000000E00 7.071068E-01
    outer loop
      vertex 6.703986E00 -1.547074E00 3.609838E00
      vertex 7.735368E00 2.578456E00 2.578456E00
      vertex 6.703986E00 1.547074E00 3.609838E00
    endloop
  endfacet
  facet normal 0.000000E00 7.071068E-01 7.071068E-01
    outer loop
      vertex -1.547074E00 6.703986E00 3.609838E00
      vertex -2.578456E00 7.735368E00 2.578456E00
      vertex -2.578456E00 2.578456E00 7.735368E00
    endloop
  endfacet
  facet normal 0.000000E00 7.071068E-01 7.071068E-01
    outer loop
      vertex -1.547074E00 6.703986E00 3.609838E00
      vertex -2.578456E00 2.578456E00 7.735368E00
      vertex -1.547074E00 3.609838E00 6.703986E00
    endloop
  endfacet
  facet normal 0.000000E00 -1.000000E00 0.000000E00
    outer loop
      vertex 3.609838E00 1.547074E00 -6.703986E00
      vertex 6.703986E00 1.547074E00 -3.609838E00
      vertex 4.641221E00 1.547074E00 -1.547074E00
    endloop
  endfacet
  facet normal 0.000000E00 -1.000000E00 0.000000E00
    outer loop
      vertex 3.609838E00 1.547074E00 -6.703986E00
      vertex 4.641221E00 1.547074E00 -1.547074E00
      vertex 1.547074E00 1.547074E00 -4.641221E00
    endloop
  endfacet
  facet normal -1.000000E00 0.000000E00 0.000000E00
    outer loop
      vertex 1.547074E00 -4.641221E00 -1.547074E00
      vertex 1.547074E00 -7.735368E00 -1.547074E00
      vertex 1.547074E00 -7.735368E00 1.547074E00
    endloop
  endfacet
  facet normal -1.000000E00 0.000000E00 0.000000E00
    outer loop
      vertex 1.547074E00 -4.641221E00 -1.547074E00
      vertex 1.547074E00 -7.735368E00 1.547074E00
      vertex 1.547074E00 -4.641221E00 1.547074E00
    endloop
  endfacet
  facet normal -7.071068E-01 7.071068E-01 0.000000E00
    outer loop
      vertex 4.641221E00 1.547074E00 1.547074E00
      vertex 6.703986E00 3.609838E00 1.547074E00
      vertex 6.703986E00 3.609838E00 -1.547074E00
    endloop
  endfacet
  facet normal -7.071068E-01 7.071068E-01 0.000000E00
    outer loop
      vertex 4.641221E00 1.547074E00 1.547074E00
      vertex 6.703986E00 3.609838E00 -1.547074E00
      vertex 4.641221E00 1.547074E00 -1.547074E00
    endloop
  endfacet
  facet normal -7.071068E-01 0.000000E00 -7.071068E-01
    outer loop
      vertex -6.703986E00 -1.547074E00 -3.609838E00
      vertex -7.735368E00 -2.578456E00 -2.578456E00
      vertex -7.735368E00 2.578456E00 -2.578456E00
    endloop
  endfacet
  facet normal -7.071068E-01 0.000000E00 -7.071068E-01
    outer loop
      vertex -6.703986E00 -1.547074E00 -3.609838E00
      vertex -7.735368E00 2.578456E00 -2.578456E00
      vertex -6.703986E00 1.547074E00 -3.609838E00
    endloop
  endfacet
  facet normal -1.000000E00 0.000000E00 0.000000E00
    outer loop
      vertex -7.735368E00 -1.547074E00 1.547074E00
      vertex -7.735368E00 -2.578456E00 2.578456E00
      vertex -7.735368E00 2.578456E00 2.578456E00
    endloop
  endfacet
  facet normal -1.000000E00 0.000000E00 0.000000E00
    outer loop
      vertex -7.735368E00 -1.547074E00 1.547074E00
      vertex -7.735368E00 2.578456E00 2.578456E00
      vertex -7.735368E00 1.547074E00 1.547074E00
    endloop
  endfacet
  facet normal 0.000000E00 -7.071068E-01 -7.071068E-01
    outer loop
      vertex -1.547074E00 -6.703986E00 -3.609838E00
      vertex -2.578456E00 -7.735368E00 -2.578456E00
      vertex -2.578456E00 -2.578456E00 -7.735368E00
    endloop
  endfacet
  facet normal 0.000000E00 -7.071068E-01 -7.071068E-01
    outer loop
      vertex -1.547074E00 -6.703986E00 -3.609838E00
      vertex -2.578456E00 -2.578456E00 -7.735368E00
      vertex -1.547074E00 -3.609838E00 -6.703986E00
    endloop
  endfacet
  facet normal 7.071068E-01 0.000000E00 7.071068E-01
    outer loop
      vertex 3.609838E00 1.547074E00 6.703986E00
      vertex 2.578456E00 2.578456E00 7.735368E00
      vertex 2.578456E00 -2.578456E00 7.735368E00
    endloop
  endfacet
  facet normal 7.071068E-01 0.000000E00 7.071068E-01
    outer loop
      vertex 3.609838E00 1.547074E00 6.703986E00
      vertex 2.578456E00 -2.578456E00 7.735368E00
      vertex 3.609838E00 -1.547074E00 6.703986E00
    endloop
  endfacet
  facet normal 0.000000E00 -7.071068E-01 -7.071068E-01
    outer loop
      vertex 1.547074E00 -3.609838E00 -6.703986E00
      vertex 2.578456E00 -2.578456E00 -7.735368E00
      vertex 2.578456E00 -7.735368E00 -2.578456E00
    endloop
  endfacet
  facet normal 0.000000E00 -7.071068E-01 -7.071068E-01
    outer loop
      vertex 1.547074E00 -3.609838E00 -6.703986E00
      vertex 2.578456E00 -7.735368E00 -2.578456E00
      vertex 1.547074E00 -6.703986E00 -3.609838E00
    endloop
  endfacet
  facet normal -7.071068E-01 7.071068E-01 0.000000E00
    outer loop
      vertex -3.609838E00 6.703986E00 1.547074E00
      vertex -2.578456E00 7.735368E00 2.578456E00
      vertex -2.578456E00 7.735368E00 -2.578456E00
    endloop
  endfacet
  facet normal -7.071068E-01 7.071068E-01 0.000000E00
    outer loop
      vertex -3.609838E00 6.703986E00 1.547074E00
      vertex -2.578456E00 7.735368E00 -2.578456E00
      vertex -3.609838E00 6.703986E00 -1.547074E00
    endloop
  endfacet
  facet normal -7.071068E-01 0.000000E00 -7.071068E-01
    outer loop
      vertex 4.641221E00 1.547074E00 -1.547074E00
      vertex 6.703986E00 1.547074E00 -3.609838E00
      vertex 6.703986E00 -1.547074E00 -3.609838E00
    endloop
  endfacet
  facet normal -7.071068E-01 0.000000E00 -7.071068E-01
    outer loop
      vertex 4.641221E00 1.547074E00 -1.547074E00
      vertex 6.703986E00 -1.547074E00 -3.609838E00
      vertex 4.641221E00 -1.547074E00 -1.547074E00
    endloop
  endfacet
  facet normal 0.000000E00 0.000000E00 -1.000000E00
    outer loop
      vertex -3.609838E00 -6.703986E00 1.547074E00
      vertex -6.703986E00 -3.609838E00 1.547074E00
      vertex -4.641221E00 -1.547074E00 1.547074E00
    endloop
  endfacet
  facet normal 0.000000E00 0.000000E00 -1.000000E00
    outer loop
      vertex -3.609838E00 -6.703986E00 1.547074E00
      vertex -4.641221E00 -1.547074E00 1.547074E00
      vertex -1.547074E00 -4.641221E00 1.547074E00
    endloop
  endfacet
  facet normal -5.773503E-01 5.773503E-01 5.773503E-01
    outer loop
      vertex -6.360191E00 3.266044E00 3.266044E00
      vertex -7.735368E00 2.578456E00 2.578456E00
      vertex -2.578456E00 2.578456E00 7.735368E00
    endloop
  endfacet
  facet normal -5.773503E-01 5.773503E-01 5.773503E-01
    outer loop
      vertex -6.360191E00 3.266044E00 3.266044E00
      vertex -2.578456E00 2.578456E00 7.735368E00
      vertex -3.266044E00 3.266044E00 6.360191E00
    endloop
  endfacet
  facet normal 0.000000E00 -1.000000E00 0.000000E00
    outer loop
      vertex -1.547074E00 -7.735368E00 1.547074E00
      vertex -2.578456E00 -7.735368E00 2.578456E00
      vertex -2.578456E00 -7.735368E00 -2.578456E00
    endloop
  endfacet
  facet normal 0.000000E00 -1.000000E00 0.000000E00
    outer loop
      vertex -1.547074E00 -7.735368E00 1.547074E00
      vertex -2.578456E00 -7.735368E00 -2.578456E00
      vertex -1.547074E00 -7.735368E00 -1.547074E00
    endloop
  endfacet
  facet normal 7.071068E-01 -7.071068E-01 0.000000E00
    outer loop
      vertex 3.609838E00 -6.703986E00 -1.547074E00
      vertex 2.578456E00 -7.735368E00 -2.578456E00
      vertex 7.735368E00 -2.578456E00 -2.578456E00
    endloop
  endfacet
  facet normal 7.071068E-01 -7.071068E-01 0.000000E00
    outer loop
      vertex 3.609838E00 -6.703986E00 -1.547074E00
      vertex 7.735368E00 -2.578456E00 -2.578456E00
      vertex 6.703986E00 -3.609838E00 -1.547074E00
    endloop
  endfacet
  facet normal 5.773503E-01 5.773503E-01 -5.773503E-01
    outer loop
      vertex 3.266044E00 6.360191E00 -3.266044E00
      vertex 2.578456E00 7.735368E00 -2.578456E00
      vertex 7.735368E00 2.578456E00 -2.578456E00
    endloop
  endfacet
  facet normal 5.773503E-01 5.773503E-01 -5.773503E-01
    outer loop
      vertex 3.266044E00 6.360191E00 -3.266044E00
      vertex 7.735368E00 2.578456E00 -2.578456E00
      vertex 6.360191E00 3.266044E00 -3.266044E00
    endloop
  endfacet
  facet normal 1.000000E00 0.000000E00 0.000000E00
    outer loop
      vertex -1.547074E00 1.547074E00 4.641221E00
      vertex -1.547074E00 1.547074E00 7.735368E00
      vertex -1.547074E00 -1.547074E00 7.735368E00
    endloop
  endfacet
  facet normal 1.000000E00 0.000000E00 0.000000E00
    outer loop
      vertex -1.547074E00 1.547074E00 4.641221E00
      vertex -1.547074E00 -1.547074E00 7.735368E00
      vertex -1.547074E00 -1.547074E00 4.641221E00
    endloop
  endfacet
  facet normal 0.000000E00 -1.000000E00 0.000000E00
    outer loop
      vertex 1.547074E00 1.547074E00 4.641221E00
      vertex 1.547074E00 1.547074E00 7.735368E00
      vertex -1.547074E00 1.547074E00 7.735368E00
    endloop
  endfacet
  facet normal 0.000000E00 -1.000000E00 0.000000E00
    outer loop
      vertex 1.547074E00 1.547074E00 4.641221E00
      vertex -1.547074E00 1.547074E00 7.735368E00
      vertex -1.547074E00 1.547074E00 4.641221E00
    endloop
  endfacet
  facet normal -7.071068E-01 -7.071068E-01 0.000000E00
    outer loop
      vertex -6.703986E00 -3.609838E00 -1.547074E00
      vertex -7.735368E00 -2.578456E00 -2.578456E00
      vertex -2.578456E00 -7.735368E00 -2.578456E00
    endloop
  endfacet
  facet normal -7.071068E-01 -7.071068E-01 0.000000E00
    outer loop
      vertex -6.703986E00 -3.609838E00 -1.547074E00
      vertex -2.578456E00 -7.735368E00 -2.578456E00
      vertex -3.609838E00 -6.703986E00 -1.547074E00
    endloop
  endfacet
  facet normal 8.164966E-01 -4.082483E-01 -4.082483E-01
    outer loop
      vertex 1.547074E00 4.641221E00 1.547074E00
      vertex 3.266044E00 6.360191E00 3.266044E00
      vertex 3.266044E00 3.266044E00 6.360191E00
    endloop
  endfacet
  facet normal 8.164966E-01 -4.082483E-01 -4.082483E-01
    outer loop
      vertex 1.547074E00 4.641221E00 1.547074E00
      vertex 3.266044E00 3.266044E00 6.360191E00
      vertex 1.547074E00 1.547074E00 4.641221E00
    endloop
  endfacet
  facet normal 0.000000E00 7.071068E-01 -7.071068E-01
    outer loop
      vertex -1.547074E00 3.609838E00 -6.703986E00
      vertex -2.578456E00 2.578456E00 -7.735368E00
      vertex -2.578456E00 7.735368E00 -2.578456E00
    endloop
  endfacet
  facet normal 0.000000E00 7.071068E-01 -7.071068E-01
    outer loop
      vertex -1.547074E00 3.609838E00 -6.703986E00
      vertex -2.578456E00 7.735368E00 -2.578456E00
      vertex -1.547074E00 6.703986E00 -3.609838E00
    endloop
  endfacet
  facet normal -5.773503E-01 5.773503E-01 -5.773503E-01
    outer loop
      vertex -3.266044E00 3.266044E00 -6.360191E00
      vertex -2.578456E00 2.578456E00 -7.735368E00
      vertex -7.735368E00 2.578456E00 -2.578456E00
    endloop
  endfacet
  facet normal -5.773503E-01 5.773503E-01 -5.773503E-01
    outer loop
      vertex -3.266044E00 3.266044E00 -6.360191E00
      vertex -7.735368E00 2.578456E00 -2.578456E00
      vertex -6.360191E00 3.266044E00 -3.266044E00
    endloop
  endfacet
  facet normal -4.082483E-01 4.082483E-01 8.164966E-01
    outer loop
      vertex 1.547074E00 -4.641221E00 1.547074E00
      vertex 3.266044E00 -6.360191E00 3.266044E00
      vertex 6.360191E00 -3.266044E00 3.266044E00
    endloop
  endfacet
  facet normal -4.082483E-01 4.082483E-01 8.164966E-01
    outer loop
      vertex 1.547074E00 -4.641221E00 1.547074E00
      vertex 6.360191E00 -3.266044E00 3.266044E00
      vertex 4.641221E00 -1.547074E00 1.547074E00
    endloop
  endfacet
  facet normal 0.000000E00 1.000000E00 0.000000E00
    outer loop
      vertex 3.609838E00 -1.547074E00 6.703986E00
      vertex 6.703986E00 -1.547074E00 3.609838E00
      vertex 4.641221E00 -1.547074E00 1.547074E00
    endloop
  endfacet
  facet normal 0.000000E00 1.000000E00 0.000000E00
    outer loop
      vertex 3.609838E00 -1.547074E00 6.703986E00
      vertex 4.641221E00 -1.547074E00 1.547074E00
      vertex 1.547074E00 -1.547074E00 4.641221E00
    endloop
  endfacet
  facet normal -5.773503E-01 -5.773503E-01 5.773503E-01
    outer loop
      vertex -6.360191E00 -3.266044E00 3.266044E00
      vertex -7.735368E00 -2.578456E00 2.578456E00
      vertex -2.578456E00 -7.735368E00 2.578456E00
    endloop
  endfacet
  facet normal -5.773503E-01 -5.773503E-01 5.773503E-01
    outer loop
      vertex -6.360191E00 -3.266044E00 3.266044E00
      vertex -2.578456E00 -7.735368E00 2.578456E00
      vertex -3.266044E00 -6.360191E00 3.266044E00
    endloop
  endfacet
  facet normal 7.071068E-01 7.071068E-01 0.000000E00
    outer loop
      vertex -4.641221E00 1.547074E00 -1.547074E00
      vertex -6.703986E00 3.609838E00 -1.547074E00
      vertex -6.703986E00 3.609838E00 1.547074E00
    endloop
  endfacet
  facet normal 7.071068E-01 7.071068E-01 0.000000E00
    outer loop
      vertex -4.641221E00 1.547074E00 -1.547074E00
      vertex -6.703986E00 3.609838E00 1.547074E00
      vertex -4.641221E00 1.547074E00 1.547074E00
    endloop
  endfacet
  facet normal -8.164966E-01 -4.082483E-01 -4.082483E-01
    outer loop
      vertex -1.547074E00 1.547074E00 4.641221E00
      vertex -3.266044E00 3.266044E00 6.360191E00
      vertex -3.266044E00 6.360191E00 3.266044E00
    endloop
  endfacet
  facet normal -8.164966E-01 -4.082483E-01 -4.082483E-01
    outer loop
      vertex -1.547074E00 1.547074E00 4.641221E00
      vertex -3.266044E00 6.360191E00 3.266044E00
      vertex -1.547074E00 4.641221E00 1.547074E00
    endloop
  endfacet
  facet normal 0.000000E00 7.071068E-01 7.071068E-01
    outer loop
      vertex -1.547074E00 3.609838E00 6.703986E00
      vertex -2.578456E00 2.578456E00 7.735368E00
      vertex 2.578456E00 2.578456E00 7.735368E00
    endloop
  endfacet
  facet normal 0.000000E00 7.071068E-01 7.071068E-01
    outer loop
      vertex -1.547074E00 3.609838E00 6.703986E00
      vertex 2.578456E00 2.578456E00 7.735368E00
      vertex 1.547074E00 3.609838E00 6.703986E00
    endloop
  endfacet
  facet normal 0.000000E00 -7.071068E-01 7.071068E-01
    outer loop
      vertex 1.547074E00 -3.609838E00 6.703986E00
      vertex 2.578456E00 -2.578456E00 7.735368E00
      vertex -2.578456E00 -2.578456E00 7.735368E00
    endloop
  endfacet
  facet normal 0.000000E00 -7.071068E-01 7.071068E-01
    outer loop
      vertex 1.547074E00 -3.609838E00 6.703986E00
      vertex -2.578456E00 -2.578456E00 7.735368E00
      vertex -1.547074E00 -3.609838E00 6.703986E00
    endloop
  endfacet
  facet normal 5.773503E-01 5.773503E-01 -5.773503E-01
    outer loop
      vertex 3.266044E00 3.266044E00 -6.360191E00
      vertex 2.578456E00 2.578456E00 -7.735368E00
      vertex 2.578456E00 7.735368E00 -2.578456E00
    endloop
  endfacet
  facet normal 5.773503E-01 5.773503E-01 -5.773503E-01
    outer loop
      vertex 3.266044E00 3.266044E00 -6.360191E00
      vertex 2.578456E00 7.735368E00 -2.578456E00
      vertex 3.266044E00 6.360191E00 -3.266044E00
    endloop
  endfacet
  facet normal 0.000000E00 0.000000E00 1.000000E00
    outer loop
      vertex 4.641221E00 -1.547074E00 -1.547074E00
      vertex 7.735368E00 -1.547074E00 -1.547074E00
      vertex 7.735368E00 1.547074E00 -1.547074E00
    endloop
  endfacet
  facet normal 0.000000E00 0.000000E00 1.000000E00
    outer loop
      vertex 4.641221E00 -1.547074E00 -1.547074E00
      vertex 7.735368E00 1.547074E00 -1.547074E00
      vertex 4.641221E00 1.547074E00 -1.547074E00
    endloop
  endfacet
  facet normal 0.000000E00 0.000000E00 1.000000E00
    outer loop
      vertex -4.641221E00 1.547074E00 -1.547074E00
      vertex -7.735368E00 1.547074E00 -1.547074E00
      vertex -7.735368E00 -1.547074E00 -1.547074E00
    endloop
  endfacet
  facet normal 0.000000E00 0.000000E00 1.000000E00
    outer loop
      vertex -4.641221E00 1.547074E00 -1.547074E00
      vertex -7.735368E00 -1.547074E00 -1.547074E00
      vertex -4.641221E00 -1.547074E00 -1.547074E00
    endloop
  endfacet
  facet normal -7.071068E-01 0.000000E00 7.071068E-01
    outer loop
      vertex -6.703986E00 1.547074E00 3.609838E00
      vertex -7.735368E00 2.578456E00 2.578456E00
      vertex -7.735368E00 -2.578456E00 2.578456E00
    endloop
  endfacet
  facet normal -7.071068E-01 0.000000E00 7.071068E-01
    outer loop
      vertex -6.703986E00 1.547074E00 3.609838E00
      vertex -7.735368E00 -2.578456E00 2.578456E00
      vertex -6.703986E00 -1.547074E00 3.609838E00
    endloop
  endfacet
  facet normal 0.000000E00 1.000000E00 0.000000E00
    outer loop
      vertex 1.547074E00 7.735368E00 -1.547074E00
      vertex 2.578456E00 7.735368E00 -2.578456E00
      vertex -2.578456E00 7.735368E00 -2.578456E00
    endloop
  endfacet
  facet normal 0.000000E00 1.000000E00 0.000000E00
    outer loop
      vertex 1.547074E00 7.735368E00 -1.547074E00
      vertex -2.578456E00 7.735368E00 -2.578456E00
      vertex -1.547074E00 7.735368E00 -1.547074E00
    endloop
  endfacet
  facet normal 5.773503E-01 5.773503E-01 5.773503E-01
    outer loop
      vertex 3.266044E00 3.266044E00 6.360191E00
      vertex 2.578456E00 2.578456E00 7.735368E00
      vertex 7.735368E00 2.578456E00 2.578456E00
    endloop
  endfacet
  facet normal 5.773503E-01 5.773503E-01 5.773503E-01
    outer loop
      vertex 3.266044E00 3.266044E00 6.360191E00
      vertex 7.735368E00 2.578456E00 2.578456E00
      vertex 6.360191E00 3.266044E00 3.266044E00
    endloop
  endfacet
  facet normal 0.000000E00 0.000000E00 1.000000E00
    outer loop
      vertex 6.703986E00 3.609838E00 -1.547074E00
      vertex 3.609838E00 6.703986E00 -1.547074E00
      vertex 1.547074E00 4.641221E00 -1.547074E00
    endloop
  endfacet
  facet normal 0.000000E00 0.000000E00 1.000000E00
    outer loop
      vertex 6.703986E00 3.609838E00 -1.547074E00
      vertex 1.547074E00 4.641221E00 -1.547074E00
      vertex 4.641221E00 1.547074E00 -1.547074E00
    endloop
  endfacet
  facet normal 5.773503E-01 -5.773503E-01 5.773503E-01
    outer loop
      vertex 3.266044E00 -6.360191E00 3.266044E00
      vertex 2.578456E00 -7.735368E00 2.578456E00
      vertex 7.735368E00 -2.578456E00 2.578456E00
    endloop
  endfacet
  facet normal 5.773503E-01 -5.773503E-01 5.773503E-01
    outer loop
      vertex 3.266044E00 -6.360191E00 3.266044E00
      vertex 7.735368E00 -2.578456E00 2.578456E00
      vertex 6.360191E00 -3.266044E00 3.266044E00
    endloop
  endfacet
  facet normal -7.071068E-01 7.071068E-01 0.000000E00
    outer loop
      vertex -6.703986E00 3.609838E00 -1.547074E00
      vertex -7.735368E00 2.578456E00 -2.578456E00
      vertex -7.735368E00 2.578456E00 2.578456E00
    endloop
  endfacet
  facet normal -7.071068E-01 7.071068E-01 0.000000E00
    outer loop
      vertex -6.703986E00 3.609838E00 -1.547074E00
      vertex -7.735368E00 2.578456E00 2.578456E00
      vertex -6.703986E00 3.609838E00 1.547074E00
    endloop
  endfacet
  facet normal 7.071068E-01 -7.071068E-01 0.000000E00
    outer loop
      vertex 3.609838E00 -6.703986E00 1.547074E00
      vertex 2.578456E00 -7.735368E00 2.578456E00
      vertex 2.578456E00 -7.735368E00 -2.578456E00
    endloop
  endfacet
  facet normal 7.071068E-01 -7.071068E-01 0.000000E00
    outer loop
      vertex 3.609838E00 -6.703986E00 1.547074E00
      vertex 2.578456E00 -7.735368E00 -2.578456E00
      vertex 3.609838E00 -6.703986E00 -1.547074E00
    endloop
  endfacet
  facet normal -7.071068E-01 0.000000E00 -7.071068E-01
    outer loop
      vertex -3.609838E00 -1.547074E00 -6.703986E00
      vertex -2.578456E00 -2.578456E00 -7.735368E00
      vertex -7.735368E00 -2.578456E00 -2.578456E00
    endloop
  endfacet
  facet normal -7.071068E-01 0.000000E00 -7.071068E-01
    outer loop
      vertex -3.609838E00 -1.547074E00 -6.703986E00
      vertex -7.735368E00 -2.578456E00 -2.578456E00
      vertex -6.703986E00 -1.547074E00 -3.609838E00
    endloop
  endfacet
  facet normal 0.000000E00 1.000000E00 0.000000E00
    outer loop
      vertex -3.609838E00 -1.547074E00 -6.703986E00
      vertex -6.703986E00 -1.547074E00 -3.609838E00
      vertex -4.641221E00 -1.547074E00 -1.547074E00
    endloop
  endfacet
  facet normal 0.000000E00 1.000000E00 0.000000E00
    outer loop
      vertex -3.609838E00 -1.547074E00 -6.703986E00
      vertex -4.641221E00 -1.547074E00 -1.547074E00
      vertex -1.547074E00 -1.547074E00 -4.641221E00
    endloop
  endfacet
  facet normal 7.071068E-01 -7.071068E-01 0.000000E00
    outer loop
      vertex 1.547074E00 4.641221E00 -1.547074E00
      vertex 3.609838E00 6.703986E00 -1.547074E00
      vertex 3.609838E00 6.703986E00 1.547074E00
    endloop
  endfacet
  facet normal 7.071068E-01 -7.071068E-01 0.000000E00
    outer loop
      vertex 1.547074E00 4.641221E00 -1.547074E00
      vertex 3.609838E00 6.703986E00 1.547074E00
      vertex 1.547074E00 4.641221E00 1.547074E00
    endloop
  endfacet
  facet normal 0.000000E00 1.000000E00 0.000000E00
    outer loop
      vertex 6.703986E00 -1.547074E00 -3.609838E00
      vertex 3.609838E00 -1.547074E00 -6.703986E00
      vertex 1.547074E00 -1.547074E00 -4.641221E00
    endloop
  endfacet
  facet normal 0.000000E00 1.000000E00 0.000000E00
    outer loop
      vertex 6.703986E00 -1.547074E00 -3.609838E00
      vertex 1.547074E00 -1.547074E00 -4.641221E00
      vertex 4.641221E00 -1.547074E00 -1.547074E00
    endloop
  endfacet
  facet normal -7.071068E-01 7.071068E-01 0.000000E00
    outer loop
      vertex -1.547074E00 -4.641221E00 -1.547074E00
      vertex -3.609838E00 -6.703986E00 -1.547074E00
      vertex -3.609838E00 -6.703986E00 1.547074E00
    endloop
  endfacet
  facet normal -7.071068E-01 7.071068E-01 0.000000E00
    outer loop
      vertex -1.547074E00 -4.641221E00 -1.547074E00
      vertex -3.609838E00 -6.703986E00 1.547074E00
      vertex -1.547074E00 -4.641221E00 1.547074E00
    endloop
  endfacet
  facet normal 4.082483E-01 -8.164966E-01 4.082483E-01
    outer loop
      vertex -4.641221E00 -1.547074E00 -1.547074E00
      vertex -6.360191E00 -3.266044E00 -3.266044E00
      vertex -3.266044E00 -3.266044E00 -6.360191E00
    endloop
  endfacet
  facet normal 4.082483E-01 -8.164966E-01 4.082483E-01
    outer loop
      vertex -4.641221E00 -1.547074E00 -1.547074E00
      vertex -3.266044E00 -3.266044E00 -6.360191E00
      vertex -1.547074E00 -1.547074E00 -4.641221E00
    endloop
  endfacet
  facet normal 7.071068E-01 0.000000E00 -7.071068E-01
    outer loop
      vertex 3.609838E00 1.547074E00 -6.703986E00
      vertex 2.578456E00 2.578456E00 -7.735368E00
      vertex 7.735368E00 2.578456E00 -2.578456E00
    endloop
  endfacet
  facet normal 7.071068E-01 0.000000E00 -7.071068E-01
    outer loop
      vertex 3.609838E00 1.547074E00 -6.703986E00
      vertex 7.735368E00 2.578456E00 -2.578456E00
      vertex 6.703986E00 1.547074E00 -3.609838E00
    endloop
  endfacet
  facet normal 4.082483E-01 4.082483E-01 8.164966E-01
    outer loop
      vertex -4.641221E00 -1.547074E00 1.547074E00
      vertex -6.360191E00 -3.266044E00 3.266044E00
      vertex -3.266044E00 -6.360191E00 3.266044E00
    endloop
  endfacet
  facet normal 4.082483E-01 4.082483E-01 8.164966E-01
    outer loop
      vertex -4.641221E00 -1.547074E00 1.547074E00
      vertex -3.266044E00 -6.360191E00 3.266044E00
      vertex -1.547074E00 -4.641221E00 1.547074E00
    endloop
  endfacet
  facet normal 7.071068E-01 0.000000E00 -7.071068E-01
    outer loop
      vertex -4.641221E00 -1.547074E00 -1.547074E00
      vertex -6.703986E00 -1.547074E00 -3.609838E00
      vertex -6.703986E00 1.547074E00 -3.609838E00
    endloop
  endfacet
  facet normal 7.071068E-01 0.000000E00 -7.071068E-01
    outer loop
      vertex -4.641221E00 -1.547074E00 -1.547074E00
      vertex -6.703986E00 1.547074E00 -3.609838E00
      vertex -4.641221E00 1.547074E00 -1.547074E00
    endloop
  endfacet
  facet normal 0.000000E00 7.071068E-01 7.071068E-01
    outer loop
      vertex 1.547074E00 6.703986E00 3.609838E00
      vertex 2.578456E00 7.735368E00 2.578456E00
      vertex -2.578456E00 7.735368E00 2.578456E00
    endloop
  endfacet
  facet normal 0.000000E00 7.071068E-01 7.071068E-01
    outer loop
      vertex 1.547074E00 6.703986E00 3.609838E00
      vertex -2.578456E00 7.735368E00 2.578456E00
      vertex -1.547074E00 6.703986E00 3.609838E00
    endloop
  endfacet
  facet normal -5.773503E-01 -5.773503E-01 5.773503E-01
    outer loop
      vertex -3.266044E00 -6.360191E00 3.266044E00
      vertex -2.578456E00 -7.735368E00 2.578456E00
      vertex -2.578456E00 -2.578456E00 7.735368E00
    endloop
  endfacet
  facet normal -5.773503E-01 -5.773503E-01 5.773503E-01
    outer loop
      vertex -3.266044E00 -6.360191E00 3.266044E00
      vertex -2.578456E00 -2.578456E00 7.735368E00
      vertex -3.266044E00 -3.266044E00 6.360191E00
    endloop
  endfacet
  facet normal -7.071068E-01 -7.071068E-01 0.000000E00
    outer loop
      vertex -6.703986E00 -3.609838E00 1.547074E00
      vertex -7.735368E00 -2.578456E00 2.578456E00
      vertex -7.735368E00 -2.578456E00 -2.578456E00
    endloop
  endfacet
  facet normal -7.071068E-01 -7.071068E-01 0.000000E00
    outer loop
      vertex -6.703986E00 -3.609838E00 1.547074E00
      vertex -7.735368E00 -2.578456E00 -2.578456E00
      vertex -6.703986E00 -3.609838E00 -1.547074E00
    endloop
  endfacet
  facet normal 7.071068E-01 -7.071068E-01 0.000000E00
    outer loop
      vertex 6.703986E00 -3.609838E00 -1.547074E00
      vertex 7.735368E00 -2.578456E00 -2.578456E00
      vertex 7.735368E00 -2.578456E00 2.578456E00
    endloop
  endfacet
  facet normal 7.071068E-01 -7.071068E-01 0.000000E00
    outer loop
      vertex 6.703986E00 -3.609838E00 -1.547074E00
      vertex 7.735368E00 -2.578456E00 2.578456E00
      vertex 6.703986E00 -3.609838E00 1.547074E00
    endloop
  endfacet
  facet normal 0.000000E00 0.000000E00 -1.000000E00
    outer loop
      vertex 6.703986E00 -3.609838E00 1.547074E00
      vertex 3.609838E00 -6.703986E00 1.547074E00
      vertex 1.547074E00 -4.641221E00 1.547074E00
    endloop
  endfacet
  facet normal 0.000000E00 0.000000E00 -1.000000E00
    outer loop
      vertex 6.703986E00 -3.609838E00 1.547074E00
      vertex 1.547074E00 -4.641221E00 1.547074E00
      vertex 4.641221E00 -1.547074E00 1.547074E00
    endloop
  endfacet
  facet normal 7.071068E-01 0.000000E00 -7.071068E-01
    outer loop
      vertex 6.703986E00 -1.547074E00 -3.609838E00
      vertex 7.735368E00 -2.578456E00 -2.578456E00
      vertex 2.578456E00 -2.578456E00 -7.735368E00
    endloop
  endfacet
  facet normal 7.071068E-01 0.000000E00 -7.071068E-01
    outer loop
      vertex 6.703986E00 -1.547074E00 -3.609838E00
      vertex 2.578456E00 -2.578456E00 -7.735368E00
      vertex 3.609838E00 -1.547074E00 -6.703986E00
    endloop
  endfacet
  facet normal 0.000000E00 1.000000E00 0.000000E00
    outer loop
      vertex 4.641221E00 -1.547074E00 1.547074E00
      vertex 7.735368E00 -1.547074E00 1.547074E00
      vertex 7.735368E00 -1.547074E00 -1.547074E00
    endloop
  endfacet
  facet normal 0.000000E00 1.000000E00 0.000000E00
    outer loop
      vertex 4.641221E00 -1.547074E00 1.547074E00
      vertex 7.735368E00 -1.547074E00 -1.547074E00
      vertex 4.641221E00 -1.547074E00 -1.547074E00
    endloop
  endfacet
  facet normal -7.071068E-01 7.071068E-01 0.000000E00
    outer loop
      vertex -6.703986E00 3.609838E00 1.547074E00
      vertex -7.735368E00 2.578456E00 2.578456E00
      vertex -2.578456E00 7.735368E00 2.578456E00
    endloop
  endfacet
  facet normal -7.071068E-01 7.071068E-01 0.000000E00
    outer loop
      vertex -6.703986E00 3.609838E00 1.547074E00
      vertex -2.578456E00 7.735368E00 2.578456E00
      vertex -3.609838E00 6.703986E00 1.547074E00
    endloop
  endfacet
  facet normal 0.000000E00 0.000000E00 -1.000000E00
    outer loop
      vertex -1.547074E00 -1.547074E00 -7.735368E00
      vertex -2.578456E00 -2.578456E00 -7.735368E00
      vertex -2.578456E00 2.578456E00 -7.735368E00
    endloop
  endfacet
  facet normal 0.000000E00 0.000000E00 -1.000000E00
    outer loop
      vertex -1.547074E00 -1.547074E00 -7.735368E00
      vertex -2.578456E00 2.578456E00 -7.735368E00
      vertex -1.547074E00 1.547074E00 -7.735368E00
    endloop
  endfacet
  facet normal 0.000000E00 0.000000E00 -1.000000E00
    outer loop
      vertex 1.547074E00 -4.641221E00 1.547074E00
      vertex 1.547074E00 -7.735368E00 1.547074E00
      vertex -1.547074E00 -7.735368E00 1.547074E00
    endloop
  endfacet
  facet normal 0.000000E00 0.000000E00 -1.000000E00
    outer loop
      vertex 1.547074E00 -4.641221E00 1.547074E00
      vertex -1.547074E00 -7.735368E00 1.547074E00
      vertex -1.547074E00 -4.641221E00 1.547074E00
    endloop
  endfacet
  facet normal -5.773503E-01 -5.773503E-01 -5.773503E-01
    outer loop
      vertex -3.266044E00 -6.360191E00 -3.266044E00
      vertex -2.578456E00 -7.735368E00 -2.578456E00
      vertex -7.735368E00 -2.578456E00 -2.578456E00
    endloop
  endfacet
  facet normal -5.773503E-01 -5.773503E-01 -5.773503E-01
    outer loop
      vertex -3.266044E00 -6.360191E00 -3.266044E00
      vertex -7.735368E00 -2.578456E00 -2.578456E00
      vertex -6.360191E00 -3.266044E00 -3.266044E00
    endloop
  endfacet
  facet normal 0.000000E00 0.000000E00 1.000000E00
    outer loop
      vertex -1.547074E00 -4.641221E00 -1.547074E00
      vertex -1.547074E00 -7.735368E00 -1.547074E00
      vertex 1.547074E00 -7.735368E00 -1.547074E00
    endloop
  endfacet
  facet normal 0.000000E00 0.000000E00 1.000000E00
    outer loop
      vertex -1.547074E00 -4.641221E00 -1.547074E00
      vertex 1.547074E00 -7.735368E00 -1.547074E00
      vertex 1.547074E00 -4.641221E00 -1.547074E00
    endloop
  endfacet
  facet normal -1.000000E00 0.000000E00 0.000000E00
    outer loop
      vertex -7.735368E00 1.547074E00 1.547074E00
      vertex -7.735368E00 2.578456E00 2.578456E00
      vertex -7.735368E00 2.578456E00 -2.578456E00
    endloop
  endfacet
  facet normal -1.000000E00 0.000000E00 0.000000E00
    outer loop
      vertex -7.735368E00 1.547074E00 1.547074E00
      vertex -7.735368E00 2.578456E00 -2.578456E00
      vertex -7.735368E00 1.547074E00 -1.547074E00
    endloop
  endfacet
  facet normal -5.773503E-01 -5.773503E-01 -5.773503E-01
    outer loop
      vertex -6.360191E00 -3.266044E00 -3.266044E00
      vertex -7.735368E00 -2.578456E00 -2.578456E00
      vertex -2.578456E00 -2.578456E00 -7.735368E00
    endloop
  endfacet
  facet normal -5.773503E-01 -5.773503E-01 -5.773503E-01
    outer loop
      vertex -6.360191E00 -3.266044E00 -3.266044E00
      vertex -2.578456E00 -2.578456E00 -7.735368E00
      vertex -3.266044E00 -3.266044E00 -6.360191E00
    endloop
  endfacet
  facet normal 0.000000E00 1.000000E00 0.000000E00
    outer loop
      vertex -1.547074E00 7.735368E00 1.547074E00
      vertex -2.578456E00 7.735368E00 2.578456E00
      vertex 2.578456E00 7.735368E00 2.578456E00
    endloop
  endfacet
  facet normal 0.000000E00 1.000000E00 0.000000E00
    outer loop
      vertex -1.547074E00 7.735368E00 1.547074E00
      vertex 2.578456E00 7.735368E00 2.578456E00
      vertex 1.547074E00 7.735368E00 1.547074E00
    endloop
  endfacet
  facet normal 0.000000E00 -1.000000E00 0.000000E00
    outer loop
      vertex -4.641221E00 1.547074E00 1.547074E00
      vertex -7.735368E00 1.547074E00 1.547074E00
      vertex -7.735368E00 1.547074E00 -1.547074E00
    endloop
  endfacet
  facet normal 0.000000E00 -1.000000E00 0.000000E00
    outer loop
      vertex -4.641221E00 1.547074E00 1.547074E00
      vertex -7.735368E00 1.547074E00 -1.547074E00
      vertex -4.641221E00 1.547074E00 -1.547074E00
    endloop
  endfacet
  facet normal 5.773503E-01 -5.773503E-01 5.773503E-01
    outer loop
      vertex 3.266044E00 -3.266044E00 6.360191E00
      vertex 2.578456E00 -2.578456E00 7.735368E00
      vertex 2.578456E00 -7.735368E00 2.578456E00
    endloop
  endfacet
  facet normal 5.773503E-01 -5.773503E-01 5.773503E-01
    outer loop
      vertex 3.266044E00 -3.266044E00 6.360191E00
      vertex 2.578456E00 -7.735368E00 2.578456E00
      vertex 3.266044E00 -6.360191E00 3.266044E00
    endloop
  endfacet
  facet normal 7.071068E-01 0.000000E00 -7.071068E-01
    outer loop
      vertex 1.547074E00 1.547074E00 4.641221E00
      vertex 3.609838E00 1.547074E00 6.703986E00
      vertex 3.609838E00 -1.547074E00 6.703986E00
    endloop
  endfacet
  facet normal 7.071068E-01 0.000000E00 -7.071068E-01
    outer loop
      vertex 1.547074E00 1.547074E00 4.641221E00
      vertex 3.609838E00 -1.547074E00 6.703986E00
      vertex 1.547074E00 -1.547074E00 4.641221E00
    endloop
  endfacet
  facet normal 0.000000E00 -7.071068E-01 7.071068E-01
    outer loop
      vertex -1.547074E00 -1.547074E00 -4.641221E00
      vertex -1.547074E00 -3.609838E00 -6.703986E00
      vertex 1.547074E00 -3.609838E00 -6.703986E00
    endloop
  endfacet
  facet normal 0.000000E00 -7.071068E-01 7.071068E-01
    outer loop
      vertex -1.547074E00 -1.547074E00 -4.641221E00
      vertex 1.547074E00 -3.609838E00 -6.703986E00
      vertex 1.547074E00 -1.547074E00 -4.641221E00
    endloop
  endfacet
  facet normal 0.000000E00 0.000000E00 -1.000000E00
    outer loop
      vertex 1.547074E00 -1.547074E00 -7.735368E00
      vertex 2.578456E00 -2.578456E00 -7.735368E00
      vertex -2.578456E00 -2.578456E00 -7.735368E00
    endloop
  endfacet
  facet normal 0.000000E00 0.000000E00 -1.000000E00
    outer loop
      vertex 1.547074E00 -1.547074E00 -7.735368E00
      vertex -2.578456E00 -2.578456E00 -7.735368E00
      vertex -1.547074E00 -1.547074E00 -7.735368E00
    endloop
  endfacet
  facet normal 0.000000E00 -7.071068E-01 7.071068E-01
    outer loop
      vertex -1.547074E00 -6.703986E00 3.609838E00
      vertex -2.578456E00 -7.735368E00 2.578456E00
      vertex 2.578456E00 -7.735368E00 2.578456E00
    endloop
  endfacet
  facet normal 0.000000E00 -7.071068E-01 7.071068E-01
    outer loop
      vertex -1.547074E00 -6.703986E00 3.609838E00
      vertex 2.578456E00 -7.735368E00 2.578456E00
      vertex 1.547074E00 -6.703986E00 3.609838E00
    endloop
  endfacet
  facet normal 0.000000E00 -1.000000E00 0.000000E00
    outer loop
      vertex 4.641221E00 1.547074E00 -1.547074E00
      vertex 7.735368E00 1.547074E00 -1.547074E00
      vertex 7.735368E00 1.547074E00 1.547074E00
    endloop
  endfacet
  facet normal 0.000000E00 -1.000000E00 0.000000E00
    outer loop
      vertex 4.641221E00 1.547074E00 -1.547074E00
      vertex 7.735368E00 1.547074E00 1.547074E00
      vertex 4.641221E00 1.547074E00 1.547074E00
    endloop
  endfacet
  facet normal 5.773503E-01 5.773503E-01 5.773503E-01
    outer loop
      vertex 6.360191E00 3.266044E00 3.266044E00
      vertex 7.735368E00 2.578456E00 2.578456E00
      vertex 2.578456E00 7.735368E00 2.578456E00
    endloop
  endfacet
  facet normal 5.773503E-01 5.773503E-01 5.773503E-01
    outer loop
      vertex 6.360191E00 3.266044E00 3.266044E00
      vertex 2.578456E00 7.735368E00 2.578456E00
      vertex 3.266044E00 6.360191E00 3.266044E00
    endloop
  endfacet
  facet normal -1.000000E00 0.000000E00 0.000000E00
    outer loop
      vertex 1.547074E00 -6.703986E00 3.609838E00
      vertex 1.547074E00 -3.609838E00 6.703986E00
      vertex 1.547074E00 -1.547074E00 4.641221E00
    endloop
  endfacet
  facet normal -1.000000E00 0.000000E00 0.000000E00
    outer loop
      vertex 1.547074E00 -6.703986E00 3.609838E00
      vertex 1.547074E00 -1.547074E00 4.641221E00
      vertex 1.547074E00 -4.641221E00 1.547074E00
    endloop
  endfacet
  facet normal 5.773503E-01 5.773503E-01 5.773503E-01
    outer loop
      vertex 3.266044E00 6.360191E00 3.266044E00
      vertex 2.578456E00 7.735368E00 2.578456E00
      vertex 2.578456E00 2.578456E00 7.735368E00
    endloop
  endfacet
  facet normal 5.773503E-01 5.773503E-01 5.773503E-01
    outer loop
      vertex 3.266044E00 6.360191E00 3.266044E00
      vertex 2.578456E00 2.578456E00 7.735368E00
      vertex 3.266044E00 3.266044E00 6.360191E00
    endloop
  endfacet
  facet normal 0.000000E00 1.000000E00 0.000000E00
    outer loop
      vertex -6.703986E00 -1.547074E00 3.609838E00
      vertex -3.609838E00 -1.547074E00 6.703986E00
      vertex -1.547074E00 -1.547074E00 4.641221E00
    endloop
  endfacet
  facet normal 0.000000E00 1.000000E00 0.000000E00
    outer loop
      vertex -6.703986E00 -1.547074E00 3.609838E00
      vertex -1.547074E00 -1.547074E00 4.641221E00
      vertex -4.641221E00 -1.547074E00 1.547074E00
    endloop
  endfacet
  facet normal -7.071068E-01 0.000000E00 7.071068E-01
    outer loop
      vertex -3.609838E00 -1.547074E00 6.703986E00
      vertex -2.578456E00 -2.578456E00 7.735368E00
      vertex -2.578456E00 2.578456E00 7.735368E00
    endloop
  endfacet
  facet normal -7.071068E-01 0.000000E00 7.071068E-01
    outer loop
      vertex -3.609838E00 -1.547074E00 6.703986E00
      vertex -2.578456E00 2.578456E00 7.735368E00
      vertex -3.609838E00 1.547074E00 6.703986E00
    endloop
  endfacet
  facet normal -1.000000E00 0.000000E00 0.000000E00
    outer loop
      vertex 1.547074E00 -3.609838E00 -6.703986E00
      vertex 1.547074E00 -6.703986E00 -3.609838E00
      vertex 1.547074E00 -4.641221E00 -1.547074E00
    endloop
  endfacet
  facet normal -1.000000E00 0.000000E00 0.000000E00
    outer loop
      vertex 1.547074E00 -3.609838E00 -6.703986E00
      vertex 1.547074E00 -4.641221E00 -1.547074E00
      vertex 1.547074E00 -1.547074E00 -4.641221E00
    endloop
  endfacet
  facet normal 7.071068E-01 0.000000E00 -7.071068E-01
    outer loop
      vertex 6.703986E00 1.547074E00 -3.609838E00
      vertex 7.735368E00 2.578456E00 -2.578456E00
      vertex 7.735368E00 -2.578456E00 -2.578456E00
    endloop
  endfacet
  facet normal 7.071068E-01 0.000000E00 -7.071068E-01
    outer loop
      vertex 6.703986E00 1.547074E00 -3.609838E00
      vertex 7.735368E00 -2.578456E00 -2.578456E00
      vertex 6.703986E00 -1.547074E00 -3.609838E00
    endloop
  endfacet
  facet normal 4.082483E-01 8.164966E-01 4.082483E-01
    outer loop
      vertex -1.547074E00 1.547074E00 -4.641221E00
      vertex -3.266044E00 3.266044E00 -6.360191E00
      vertex -6.360191E00 3.266044E00 -3.266044E00
    endloop
  endfacet
  facet normal 4.082483E-01 8.164966E-01 4.082483E-01
    outer loop
      vertex -1.547074E00 1.547074E00 -4.641221E00
      vertex -6.360191E00 3.266044E00 -3.266044E00
      vertex -4.641221E00 1.547074E00 -1.547074E00
    endloop
  endfacet
  facet normal -8.164966E-01 4.082483E-01 4.082483E-01
    outer loop
      vertex -1.547074E00 -1.547074E00 -4.641221E00
      vertex -3.266044E00 -3.266044E00 -6.360191E00
      vertex -3.266044E00 -6.360191E00 -3.266044E00
    endloop
  endfacet
  facet normal -8.164966E-01 4.082483E-01 4.082483E-01
    outer loop
      vertex -1.547074E00 -1.547074E00 -4.641221E00
      vertex -3.266044E00 -6.360191E00 -3.266044E00
      vertex -1.547074E00 -4.641221E00 -1.547074E00
    endloop
  endfacet
  facet normal -4.082483E-01 -4.082483E-01 -8.164966E-01
    outer loop
      vertex 1.547074E00 4.641221E00 -1.547074E00
      vertex 3.266044E00 6.360191E00 -3.266044E00
      vertex 6.360191E00 3.266044E00 -3.266044E00
    endloop
  endfacet
  facet normal -4.082483E-01 -4.082483E-01 -8.164966E-01
    outer loop
      vertex 1.547074E00 4.641221E00 -1.547074E00
      vertex 6.360191E00 3.266044E00 -3.266044E00
      vertex 4.641221E00 1.547074E00 -1.547074E00
    endloop
  endfacet
  facet normal 1.000000E00 0.000000E00 0.000000E00
    outer loop
      vertex 7.735368E00 -1.547074E00 -1.547074E00
      vertex 7.735368E00 -2.578456E00 -2.578456E00
      vertex 7.735368E00 2.578456E00 -2.578456E00
    endloop
  endfacet
  facet normal 1.000000E00 0.000000E00 0.000000E00
    outer loop
      vertex 7.735368E00 -1.547074E00 -1.547074E00
      vertex 7.735368E00 2.578456E00 -2.578456E00
      vertex 7.735368E00 1.547074E00 -1.547074E00
    endloop
  endfacet
  facet normal -1.000000E00 0.000000E00 0.000000E00
    outer loop
      vertex -7.735368E00 1.547074E00 -1.547074E00
      vertex -7.735368E00 2.578456E00 -2.578456E00
      vertex -7.735368E00 -2.578456E00 -2.578456E00
    endloop
  endfacet
  facet normal -1.000000E00 0.000000E00 0.000000E00
    outer loop
      vertex -7.735368E00 1.547074E00 -1.547074E00
      vertex -7.735368E00 -2.578456E00 -2.578456E00
      vertex -7.735368E00 -1.547074E00 -1.547074E00
    endloop
  endfacet
  facet normal -7.071068E-01 0.000000E00 -7.071068E-01
    outer loop
      vertex -3.609838E00 1.547074E00 -6.703986E00
      vertex -2.578456E00 2.578456E00 -7.735368E00
      vertex -2.578456E00 -2.578456E00 -7.735368E00
    endloop
  endfacet
  facet normal -7.071068E-01 0.000000E00 -7.071068E-01
    outer loop
      vertex -3.609838E00 1.547074E00 -6.703986E00
      vertex -2.578456E00 -2.578456E00 -7.735368E00
      vertex -3.609838E00 -1.547074E00 -6.703986E00
    endloop
  endfacet
  facet normal 0.000000E00 0.000000E00 -1.000000E00
    outer loop
      vertex 1.547074E00 1.547074E00 -7.735368E00
      vertex 2.578456E00 2.578456E00 -7.735368E00
      vertex 2.578456E00 -2.578456E00 -7.735368E00
    endloop
  endfacet
  facet normal 0.000000E00 0.000000E00 -1.000000E00
    outer loop
      vertex 1.547074E00 1.547074E00 -7.735368E00
      vertex 2.578456E00 -2.578456E00 -7.735368E00
      vertex 1.547074E00 -1.547074E00 -7.735368E00
    endloop
  endfacet
  facet normal -5.773503E-01 5.773503E-01 -5.773503E-01
    outer loop
      vertex -3.266044E00 6.360191E00 -3.266044E00
      vertex -2.578456E00 7.735368E00 -2.578456E00
      vertex -2.578456E00 2.578456E00 -7.735368E00
    endloop
  endfacet
  facet normal -5.773503E-01 5.773503E-01 -5.773503E-01
    outer loop
      vertex -3.266044E00 6.360191E00 -3.266044E00
      vertex -2.578456E00 2.578456E00 -7.735368E00
      vertex -3.266044E00 3.266044E00 -6.360191E00
    endloop
  endfacet
  facet normal 1.000000E00 0.000000E00 0.000000E00
    outer loop
      vertex -1.547074E00 -6.703986E00 -3.609838E00
      vertex -1.547074E00 -3.609838E00 -6.703986E00
      vertex -1.547074E00 -1.547074E00 -4.641221E00
    endloop
  endfacet
  facet normal 1.000000E00 0.000000E00 0.000000E00
    outer loop
      vertex -1.547074E00 -6.703986E00 -3.609838E00
      vertex -1.547074E00 -1.547074E00 -4.641221E00
      vertex -1.547074E00 -4.641221E00 -1.547074E00
    endloop
  endfacet
  facet normal 7.071068E-01 7.071068E-01 0.000000E00
    outer loop
      vertex 6.703986E00 3.609838E00 -1.547074E00
      vertex 7.735368E00 2.578456E00 -2.578456E00
      vertex 2.578456E00 7.735368E00 -2.578456E00
    endloop
  endfacet
  facet normal 7.071068E-01 7.071068E-01 0.000000E00
    outer loop
      vertex 6.703986E00 3.609838E00 -1.547074E00
      vertex 2.578456E00 7.735368E00 -2.578456E00
      vertex 3.609838E00 6.703986E00 -1.547074E00
    endloop
  endfacet
  facet normal 0.000000E00 -7.071068E-01 7.071068E-01
    outer loop
      vertex -1.547074E00 -3.609838E00 6.703986E00
      vertex -2.578456E00 -2.578456E00 7.735368E00
      vertex -2.578456E00 -7.735368E00 2.578456E00
    endloop
  endfacet
  facet normal 0.000000E00 -7.071068E-01 7.071068E-01
    outer loop
      vertex -1.547074E00 -3.609838E00 6.703986E00
      vertex -2.578456E00 -7.735368E00 2.578456E00
      vertex -1.547074E00 -6.703986E00 3.609838E00
    endloop
  endfacet
  facet normal 0.000000E00 7.071068E-01 -7.071068E-01
    outer loop
      vertex 1.547074E00 -4.641221E00 -1.547074E00
      vertex 1.547074E00 -6.703986E00 -3.609838E00
      vertex -1.547074E00 -6.703986E00 -3.609838E00
    endloop
  endfacet
  facet normal 0.000000E00 7.071068E-01 -7.071068E-01
    outer loop
      vertex 1.547074E00 -4.641221E00 -1.547074E00
      vertex -1.547074E00 -6.703986E00 -3.609838E00
      vertex -1.547074E00 -4.641221E00 -1.547074E00
    endloop
  endfacet
  facet normal 0.000000E00 0.000000E00 -1.000000E00
    outer loop
      vertex 3.609838E00 6.703986E00 1.547074E00
      vertex 6.703986E00 3.609838E00 1.547074E00
      vertex 4.641221E00 1.547074E00 1.547074E00
    endloop
  endfacet
  facet normal 0.000000E00 0.000000E00 -1.000000E00
    outer loop
      vertex 3.609838E00 6.703986E00 1.547074E00
      vertex 4.641221E00 1.547074E00 1.547074E00
      vertex 1.547074E00 4.641221E00 1.547074E00
    endloop
  endfacet
  facet normal 0.000000E00 1.000000E00 0.000000E00
    outer loop
      vertex -4.641221E00 -1.547074E00 -1.547074E00
      vertex -7.735368E00 -1.547074E00 -1.547074E00
      vertex -7.735368E00 -1.547074E00 1.547074E00
    endloop
  endfacet
  facet normal 0.000000E00 1.000000E00 0.000000E00
    outer loop
      vertex -4.641221E00 -1.547074E00 -1.547074E00
      vertex -7.735368E00 -1.547074E00 1.547074E00
      vertex -4.641221E00 -1.547074E00 1.547074E00
    endloop
  endfacet
  facet normal 0.000000E00 0.000000E00 1.000000E00
    outer loop
      vertex 3.609838E00 -6.703986E00 -1.547074E00
      vertex 6.703986E00 -3.609838E00 -1.547074E00
      vertex 4.641221E00 -1.547074E00 -1.547074E00
    endloop
  endfacet
  facet normal 0.000000E00 0.000000E00 1.000000E00
    outer loop
      vertex 3.609838E00 -6.703986E00 -1.547074E00
      vertex 4.641221E00 -1.547074E00 -1.547074E00
      vertex 1.547074E00 -4.641221E00 -1.547074E00
    endloop
  endfacet
  facet normal 5.773503E-01 -5.773503E-01 -5.773503E-01
    outer loop
      vertex 6.360191E00 -3.266044E00 -3.266044E00
      vertex 7.735368E00 -2.578456E00 -2.578456E00
      vertex 2.578456E00 -7.735368E00 -2.578456E00
    endloop
  endfacet
  facet normal 5.773503E-01 -5.773503E-01 -5.773503E-01
    outer loop
      vertex 6.360191E00 -3.266044E00 -3.266044E00
      vertex 2.578456E00 -7.735368E00 -2.578456E00
      vertex 3.266044E00 -6.360191E00 -3.266044E00
    endloop
  endfacet
  facet normal -4.082483E-01 4.082483E-01 -8.164966E-01
    outer loop
      vertex 4.641221E00 -1.547074E00 -1.547074E00
      vertex 6.360191E00 -3.266044E00 -3.266044E00
      vertex 3.266044E00 -6.360191E00 -3.266044E00
    endloop
  endfacet
  facet normal -4.082483E-01 4.082483E-01 -8.164966E-01
    outer loop
      vertex 4.641221E00 -1.547074E00 -1.547074E00
      vertex 3.266044E00 -6.360191E00 -3.266044E00
      vertex 1.547074E00 -4.641221E00 -1.547074E00
    endloop
  endfacet
  facet normal 0.000000E00 -1.000000E00 0.000000E00
    outer loop
      vertex -1.547074E00 1.547074E00 -4.641221E00
      vertex -1.547074E00 1.547074E00 -7.735368E00
      vertex 1.547074E00 1.547074E00 -7.735368E00
    endloop
  endfacet
  facet normal 0.000000E00 -1.000000E00 0.000000E00
    outer loop
      vertex -1.547074E00 1.547074E00 -4.641221E00
      vertex 1.547074E00 1.547074E00 -7.735368E00
      vertex 1.547074E00 1.547074E00 -4.641221E00
    endloop
  endfacet
  facet normal -7.071068E-01 7.071068E-01 0.000000E00
    outer loop
      vertex -3.609838E00 6.703986E00 -1.547074E00
      vertex -2.578456E00 7.735368E00 -2.578456E00
      vertex -7.735368E00 2.578456E00 -2.578456E00
    endloop
  endfacet
  facet normal -7.071068E-01 7.071068E-01 0.000000E00
    outer loop
      vertex -3.609838E00 6.703986E00 -1.547074E00
      vertex -7.735368E00 2.578456E00 -2.578456E00
      vertex -6.703986E00 3.609838E00 -1.547074E00
    endloop
  endfacet
  facet normal 5.773503E-01 -5.773503E-01 -5.773503E-01
    outer loop
      vertex 3.266044E00 -3.266044E00 -6.360191E00
      vertex 2.578456E00 -2.578456E00 -7.735368E00
      vertex 7.735368E00 -2.578456E00 -2.578456E00
    endloop
  endfacet
  facet normal 5.773503E-01 -5.773503E-01 -5.773503E-01
    outer loop
      vertex 3.266044E00 -3.266044E00 -6.360191E00
      vertex 7.735368E00 -2.578456E00 -2.578456E00
      vertex 6.360191E00 -3.266044E00 -3.266044E00
    endloop
  endfacet
  facet normal 0.000000E00 7.071068E-01 -7.071068E-01
    outer loop
      vertex 1.547074E00 3.609838E00 -6.703986E00
      vertex 2.578456E00 2.578456E00 -7.735368E00
      vertex -2.578456E00 2.578456E00 -7.735368E00
    endloop
  endfacet
  facet normal 0.000000E00 7.071068E-01 -7.071068E-01
    outer loop
      vertex 1.547074E00 3.609838E00 -6.703986E00
      vertex -2.578456E00 2.578456E00 -7.735368E00
      vertex -1.547074E00 3.609838E00 -6.703986E00
    endloop
  endfacet
  facet normal 0.000000E00 7.071068E-01 -7.071068E-01
    outer loop
      vertex -1.547074E00 6.703986E00 -3.609838E00
      vertex -2.578456E00 7.735368E00 -2.578456E00
      vertex 2.578456E00 7.735368E00 -2.578456E00
    endloop
  endfacet
  facet normal 0.000000E00 7.071068E-01 -7.071068E-01
    outer loop
      vertex -1.547074E00 6.703986E00 -3.609838E00
      vertex 2.578456E00 7.735368E00 -2.578456E00
      vertex 1.547074E00 6.703986E00 -3.609838E00
    endloop
  endfacet
  facet normal 0.000000E00 1.000000E00 0.000000E00
    outer loop
      vertex 1.547074E00 -1.547074E00 -4.641221E00
      vertex 1.547074E00 -1.547074E00 -7.735368E00
      vertex -1.547074E00 -1.547074E00 -7.735368E00
    endloop
  endfacet
  facet normal 0.000000E00 1.000000E00 0.000000E00
    outer loop
      vertex 1.547074E00 -1.547074E00 -4.641221E00
      vertex -1.547074E00 -1.547074E00 -7.735368E00
      vertex -1.547074E00 -1.547074E00 -4.641221E00
    endloop
  endfacet
  facet normal 0.000000E00 1.000000E00 0.000000E00
    outer loop
      vertex -1.547074E00 7.735368E00 -1.547074E00
      vertex -2.578456E00 7.735368E00 -2.578456E00
      vertex -2.578456E00 7.735368E00 2.578456E00
    endloop
  endfacet
  facet normal 0.000000E00 1.000000E00 0.000000E00
    outer loop
      vertex -1.547074E00 7.735368E00 -1.547074E00
      vertex -2.578456E00 7.735368E00 2.578456E00
      vertex -1.547074E00 7.735368E00 1.547074E00
    endloop
  endfacet
  facet normal -7.071068E-01 0.000000E00 7.071068E-01
    outer loop
      vertex -6.703986E00 -1.547074E00 3.609838E00
      vertex -7.735368E00 -2.578456E00 2.578456E00
      vertex -2.578456E00 -2.578456E00 7.735368E00
    endloop
  endfacet
  facet normal -7.071068E-01 0.000000E00 7.071068E-01
    outer loop
      vertex -6.703986E00 -1.547074E00 3.609838E00
      vertex -2.578456E00 -2.578456E00 7.735368E00
      vertex -3.609838E00 -1.547074E00 6.703986E00
    endloop
  endfacet
  facet normal 0.000000E00 -7.071068E-01 7.071068E-01
    outer loop
      vertex 1.547074E00 4.641221E00 1.547074E00
      vertex 1.547074E00 6.703986E00 3.609838E00
      vertex -1.547074E00 6.703986E00 3.609838E00
    endloop
  endfacet
  facet normal 0.000000E00 -7.071068E-01 7.071068E-01
    outer loop
      vertex 1.547074E00 4.641221E00 1.547074E00
      vertex -1.547074E00 6.703986E00 3.609838E00
      vertex -1.547074E00 4.641221E00 1.547074E00
    endloop
  endfacet
  facet normal 1.000000E00 0.000000E00 0.000000E00
    outer loop
      vertex 7.735368E00 1.547074E00 -1.547074E00
      vertex 7.735368E00 2.578456E00 -2.578456E00
      vertex 7.735368E00 2.578456E00 2.578456E00
    endloop
  endfacet
  facet normal 1.000000E00 0.000000E00 0.000000E00
    outer loop
      vertex 7.735368E00 1.547074E00 -1.547074E00
      vertex 7.735368E00 2.578456E00 2.578456E00
      vertex 7.735368E00 1.547074E00 1.547074E00
    endloop
  endfacet
  facet normal 0.000000E00 -7.071068E-01 -7.071068E-01
    outer loop
      vertex 1.547074E00 -1.547074E00 4.641221E00
      vertex 1.547074E00 -3.609838E00 6.703986E00
      vertex -1.547074E00 -3.609838E00 6.703986E00
    endloop
  endfacet
  facet normal 0.000000E00 -7.071068E-01 -7.071068E-01
    outer loop
      vertex 1.547074E00 -1.547074E00 4.641221E00
      vertex -1.547074E00 -3.609838E00 6.703986E00
      vertex -1.547074E00 -1.547074E00 4.641221E00
    endloop
  endfacet
  facet normal 7.071068E-01 0.000000E00 -7.071068E-01
    outer loop
      vertex 3.609838E00 -1.547074E00 -6.703986E00
      vertex 2.578456E00 -2.578456E00 -7.735368E00
      vertex 2.578456E00 2.578456E00 -7.735368E00
    endloop
  endfacet
  facet normal 7.071068E-01 0.000000E00 -7.071068E-01
    outer loop
      vertex 3.609838E00 -1.547074E00 -6.703986E00
      vertex 2.578456E00 2.578456E00 -7.735368E00
      vertex 3.609838E00 1.547074E00 -6.703986E00
    endloop
  endfacet
  facet normal 5.773503E-01 5.773503E-01 -5.773503E-01
    outer loop
      vertex 6.360191E00 3.266044E00 -3.266044E00
      vertex 7.735368E00 2.578456E00 -2.578456E00
      vertex 2.578456E00 2.578456E00 -7.735368E00
    endloop
  endfacet
  facet normal 5.773503E-01 5.773503E-01 -5.773503E-01
    outer loop
      vertex 6.360191E00 3.266044E00 -3.266044E00
      vertex 2.578456E00 2.578456E00 -7.735368E00
      vertex 3.266044E00 3.266044E00 -6.360191E00
    endloop
  endfacet
  facet normal -1.000000E00 0.000000E00 0.000000E00
    outer loop
      vertex 1.547074E00 3.609838E00 6.703986E00
      vertex 1.547074E00 6.703986E00 3.609838E00
      vertex 1.547074E00 4.641221E00 1.547074E00
    endloop
  endfacet
  facet normal -1.000000E00 0.000000E00 0.000000E00
    outer loop
      vertex 1.547074E00 3.609838E00 6.703986E00
      vertex 1.547074E00 4.641221E00 1.547074E00
      vertex 1.547074E00 1.547074E00 4.641221E00
    endloop
  endfacet
  facet normal 4.082483E-01 8.164966E-01 -4.082483E-01
    outer loop
      vertex -4.641221E00 1.547074E00 1.547074E00
      vertex -6.360191E00 3.266044E00 3.266044E00
      vertex -3.266044E00 3.266044E00 6.360191E00
    endloop
  endfacet
  facet normal 4.082483E-01 8.164966E-01 -4.082483E-01
    outer loop
      vertex -4.641221E00 1.547074E00 1.547074E00
      vertex -3.266044E00 3.266044E00 6.360191E00
      vertex -1.547074E00 1.547074E00 4.641221E00
    endloop
  endfacet
  facet normal 0.000000E00 -1.000000E00 0.000000E00
    outer loop
      vertex 1.547074E00 -7.735368E00 1.547074E00
      vertex 2.578456E00 -7.735368E00 2.578456E00
      vertex -2.578456E00 -7.735368E00 2.578456E00
    endloop
  endfacet
  facet normal 0.000000E00 -1.000000E00 0.000000E00
    outer loop
      vertex 1.547074E00 -7.735368E00 1.547074E00
      vertex -2.578456E00 -7.735368E00 2.578456E00
      vertex -1.547074E00 -7.735368E00 1.547074E00
    endloop
  endfacet
  facet normal -7.071068E-01 -7.071068E-01 0.000000E00
    outer loop
      vertex -3.609838E00 -6.703986E00 -1.547074E00
      vertex -2.578456E00 -7.735368E00 -2.578456E00
      vertex -2.578456E00 -7.735368E00 2.578456E00
    endloop
  endfacet
  facet normal -7.071068E-01 -7.071068E-01 0.000000E00
    outer loop
      vertex -3.609838E00 -6.703986E00 -1.547074E00
      vertex -2.578456E00 -7.735368E00 2.578456E00
      vertex -3.609838E00 -6.703986E00 1.547074E00
    endloop
  endfacet
  facet normal -4.082483E-01 8.164966E-01 -4.082483E-01
    outer loop
      vertex 1.547074E00 1.547074E00 4.641221E00
      vertex 3.266044E00 3.266044E00 6.360191E00
      vertex 6.360191E00 3.266044E00 3.266044E00
    endloop
  endfacet
  facet normal -4.082483E-01 8.164966E-01 -4.082483E-01
    outer loop
      vertex 1.547074E00 1.547074E00 4.641221E00
      vertex 6.360191E00 3.266044E00 3.266044E00
      vertex 4.641221E00 1.547074E00 1.547074E00
    endloop
  endfacet
  facet normal 0.000000E00 7.071068E-01 7.071068E-01
    outer loop
      vertex 1.547074E00 3.609838E00 6.703986E00
      vertex 2.578456E00 2.578456E00 7.735368E00
      vertex 2.578456E00 7.735368E00 2.578456E00
    endloop
  endfacet
  facet normal 0.000000E00 7.071068E-01 7.071068E-01
    outer loop
      vertex 1.547074E00 3.609838E00 6.703986E00
      vertex 2.578456E00 7.735368E00 2.578456E00
      vertex 1.547074E00 6.703986E00 3.609838E00
    endloop
  endfacet
  facet normal 1.000000E00 0.000000E00 0.000000E00
    outer loop
      vertex -1.547074E00 3.609838E00 -6.703986E00
      vertex -1.547074E00 6.703986E00 -3.609838E00
      vertex -1.547074E00 4.641221E00 -1.547074E00
    endloop
  endfacet
  facet normal 1.000000E00 0.000000E00 0.000000E00
    outer loop
      vertex -1.547074E00 3.609838E00 -6.703986E00
      vertex -1.547074E00 4.641221E00 -1.547074E00
      vertex -1.547074E00 1.547074E00 -4.641221E00
    endloop
  endfacet
  facet normal 0.000000E00 -1.000000E00 0.000000E00
    outer loop
      vertex -1.547074E00 -7.735368E00 -1.547074E00
      vertex -2.578456E00 -7.735368E00 -2.578456E00
      vertex 2.578456E00 -7.735368E00 -2.578456E00
    endloop
  endfacet
  facet normal 0.000000E00 -1.000000E00 0.000000E00
    outer loop
      vertex -1.547074E00 -7.735368E00 -1.547074E00
      vertex 2.578456E00 -7.735368E00 -2.578456E00
      vertex 1.547074E00 -7.735368E00 -1.547074E00
    endloop
  endfacet
  facet normal 0.000000E00 0.000000E00 1.000000E00
    outer loop
      vertex -1.547074E00 1.547074E00 7.735368E00
      vertex -2.578456E00 2.578456E00 7.735368E00
      vertex -2.578456E00 -2.578456E00 7.735368E00
    endloop
  endfacet
  facet normal 0.000000E00 0.000000E00 1.000000E00
    outer loop
      vertex -1.547074E00 1.547074E00 7.735368E00
      vertex -2.578456E00 -2.578456E00 7.735368E00
      vertex -1.547074E00 -1.547074E00 7.735368E00
    endloop
  endfacet
  facet normal -4.082483E-01 -4.082483E-01 8.164966E-01
    outer loop
      vertex 4.641221E00 1.547074E00 1.547074E00
      vertex 6.360191E00 3.266044E00 3.266044E00
      vertex 3.266044E00 6.360191E00 3.266044E00
    endloop
  endfacet
  facet normal -4.082483E-01 -4.082483E-01 8.164966E-01
    outer loop
      vertex 4.641221E00 1.547074E00 1.547074E00
      vertex 3.266044E00 6.360191E00 3.266044E00
      vertex 1.547074E00 4.641221E00 1.547074E00
    endloop
  endfacet
  facet normal 0.000000E00 0.000000E00 -1.000000E00
    outer loop
      vertex -4.641221E00 -1.547074E00 1.547074E00
      vertex -7.735368E00 -1.547074E00 1.547074E00
      vertex -7.735368E00 1.547074E00 1.547074E00
    endloop
  endfacet
  facet normal 0.000000E00 0.000000E00 -1.000000E00
    outer loop
      vertex -4.641221E00 -1.547074E00 1.547074E00
      vertex -7.735368E00 1.547074E00 1.547074E00
      vertex -4.641221E00 1.547074E00 1.547074E00
    endloop
  endfacet
  facet normal 7.071068E-01 0.000000E00 7.071068E-01
    outer loop
      vertex 3.609838E00 -1.547074E00 6.703986E00
      vertex 2.578456E00 -2.578456E00 7.735368E00
      vertex 7.735368E00 -2.578456E00 2.578456E00
    endloop
  endfacet
  facet normal 7.071068E-01 0.000000E00 7.071068E-01
    outer loop
      vertex 3.609838E00 -1.547074E00 6.703986E00
      vertex 7.735368E00 -2.578456E00 2.578456E00
      vertex 6.703986E00 -1.547074E00 3.609838E00
    endloop
  endfacet
  facet normal -1.000000E00 0.000000E00 0.000000E00
    outer loop
      vertex 1.547074E00 6.703986E00 -3.609838E00
      vertex 1.547074E00 3.609838E00 -6.703986E00
      vertex 1.547074E00 1.547074E00 -4.641221E00
    endloop
  endfacet
  facet normal -1.000000E00 0.000000E00 0.000000E00
    outer loop
      vertex 1.547074E00 6.703986E00 -3.609838E00
      vertex 1.547074E00 1.547074E00 -4.641221E00
      vertex 1.547074E00 4.641221E00 -1.547074E00
    endloop
  endfacet
  facet normal -8.164966E-01 -4.082483E-01 4.082483E-01
    outer loop
      vertex -1.547074E00 4.641221E00 -1.547074E00
      vertex -3.266044E00 6.360191E00 -3.266044E00
      vertex -3.266044E00 3.266044E00 -6.360191E00
    endloop
  endfacet
  facet normal -8.164966E-01 -4.082483E-01 4.082483E-01
    outer loop
      vertex -1.547074E00 4.641221E00 -1.547074E00
      vertex -3.266044E00 3.266044E00 -6.360191E00
      vertex -1.547074E00 1.547074E00 -4.641221E00
    endloop
  endfacet
  facet normal 0.000000E00 -7.071068E-01 -7.071068E-01
    outer loop
      vertex 1.547074E00 -6.703986E00 -3.609838E00
      vertex 2.578456E00 -7.735368E00 -2.578456E00
      vertex -2.578456E00 -7.735368E00 -2.578456E00
    endloop
  endfacet
  facet normal 0.000000E00 -7.071068E-01 -7.071068E-01
    outer loop
      vertex 1.547074E00 -6.703986E00 -3.609838E00
      vertex -2.578456E00 -7.735368E00 -2.578456E00
      vertex -1.547074E00 -6.703986E00 -3.609838E00
    endloop
  endfacet
  facet normal -8.164966E-01 4.082483E-01 -4.082483E-01
    outer loop
      vertex -1.547074E00 -4.641221E00 1.547074E00
      vertex -3.266044E00 -6.360191E00 3.266044E00
      vertex -3.266044E00 -3.266044E00 6.360191E00
    endloop
  endfacet
  facet normal -8.164966E-01 4.082483E-01 -4.082483E-01
    outer loop
      vertex -1.547074E00 -4.641221E00 1.547074E00
      vertex -3.266044E00 -3.266044E00 6.360191E00
      vertex -1.547074E00 -1.547074E00 4.641221E00
    endloop
  endfacet
  facet normal 1.000000E00 0.000000E00 0.000000E00
    outer loop
      vertex -1.547074E00 -3.609838E00 6.703986E00
      vertex -1.547074E00 -6.703986E00 3.609838E00
      vertex -1.547074E00 -4.641221E00 1.547074E00
    endloop
  endfacet
  facet normal 1.000000E00 0.000000E00 0.000000E00
    outer loop
      vertex -1.547074E00 -3.609838E00 6.703986E00
      vertex -1.547074E00 -4.641221E00 1.547074E00
      vertex -1.547074E00 -1.547074E00 4.641221E00
    endloop
  endfacet
  facet normal 0.000000E00 -7.071068E-01 7.071068E-01
    outer loop
      vertex 1.547074E00 -6.703986E00 3.609838E00
      vertex 2.578456E00 -7.735368E00 2.578456E00
      vertex 2.578456E00 -2.578456E00 7.735368E00
    endloop
  endfacet
  facet normal 0.000000E00 -7.071068E-01 7.071068E-01
    outer loop
      vertex 1.547074E00 -6.703986E00 3.609838E00
      vertex 2.578456E00 -2.578456E00 7.735368E00
      vertex 1.547074E00 -3.609838E00 6.703986E00
    endloop
  endfacet
  facet normal 1.000000E00 0.000000E00 0.000000E00
    outer loop
      vertex 7.735368E00 -1.547074E00 1.547074E00
      vertex 7.735368E00 -2.578456E00 2.578456E00
      vertex 7.735368E00 -2.578456E00 -2.578456E00
    endloop
  endfacet
  facet normal 1.000000E00 0.000000E00 0.000000E00
    outer loop
      vertex 7.735368E00 -1.547074E00 1.547074E00
      vertex 7.735368E00 -2.578456E00 -2.578456E00
      vertex 7.735368E00 -1.547074E00 -1.547074E00
    endloop
  endfacet
  facet normal 0.000000E00 7.071068E-01 -7.071068E-01
    outer loop
      vertex -1.547074E00 1.547074E00 4.641221E00
      vertex -1.547074E00 3.609838E00 6.703986E00
      vertex 1.547074E00 3.609838E00 6.703986E00
    endloop
  endfacet
  facet normal 0.000000E00 7.071068E-01 -7.071068E-01
    outer loop
      vertex -1.547074E00 1.547074E00 4.641221E00
      vertex 1.547074E00 3.609838E00 6.703986E00
      vertex 1.547074E00 1.547074E00 4.641221E00
    endloop
  endfacet
  facet normal -1.000000E00 0.000000E00 0.000000E00
    outer loop
      vertex 1.547074E00 -1.547074E00 4.641221E00
      vertex 1.547074E00 -1.547074E00 7.735368E00
      vertex 1.547074E00 1.547074E00 7.735368E00
    endloop
  endfacet
  facet normal -1.000000E00 0.000000E00 0.000000E00
    outer loop
      vertex 1.547074E00 -1.547074E00 4.641221E00
      vertex 1.547074E00 1.547074E00 7.735368E00
      vertex 1.547074E00 1.547074E00 4.641221E00
    endloop
  endfacet
  facet normal 8.164966E-01 4.082483E-01 -4.082483E-01
    outer loop
      vertex 1.547074E00 -1.547074E00 4.641221E00
      vertex 3.266044E00 -3.266044E00 6.360191E00
      vertex 3.266044E00 -6.360191E00 3.266044E00
    endloop
  endfacet
  facet normal 8.164966E-01 4.082483E-01 -4.082483E-01
    outer loop
      vertex 1.547074E00 -1.547074E00 4.641221E00
      vertex 3.266044E00 -6.360191E00 3.266044E00
      vertex 1.547074E00 -4.641221E00 1.547074E00
    endloop
  endfacet
  facet normal 7.071068E-01 -7.071068E-01 0.000000E00
    outer loop
      vertex -4.641221E00 -1.547074E00 1.547074E00
      vertex -6.703986E00 -3.609838E00 1.547074E00
      vertex -6.703986E00 -3.609838E00 -1.547074E00
    endloop
  endfacet
  facet normal 7.071068E-01 -7.071068E-01 0.000000E00
    outer loop
      vertex -4.641221E00 -1.547074E00 1.547074E00
      vertex -6.703986E00 -3.609838E00 -1.547074E00
      vertex -4.641221E00 -1.547074E00 -1.547074E00
    endloop
  endfacet
  facet normal 0.000000E00 7.071068E-01 7.071068E-01
    outer loop
      vertex 1.547074E00 1.547074E00 -4.641221E00
      vertex 1.547074E00 3.609838E00 -6.703986E00
      vertex -1.547074E00 3.609838E00 -6.703986E00
    endloop
  endfacet
  facet normal 0.000000E00 7.071068E-01 7.071068E-01
    outer loop
      vertex 1.547074E00 1.547074E00 -4.641221E00
      vertex -1.547074E00 3.609838E00 -6.703986E00
      vertex -1.547074E00 1.547074E00 -4.641221E00
    endloop
  endfacet
  facet normal -7.071068E-01 0.000000E00 7.071068E-01
    outer loop
      vertex -1.547074E00 1.547074E00 -4.641221E00
      vertex -3.609838E00 1.547074E00 -6.703986E00
      vertex -3.609838E00 -1.547074E00 -6.703986E00
    endloop
  endfacet
  facet normal -7.071068E-01 0.000000E00 7.071068E-01
    outer loop
      vertex -1.547074E00 1.547074E00 -4.641221E00
      vertex -3.609838E00 -1.547074E00 -6.703986E00
      vertex -1.547074E00 -1.547074E00 -4.641221E00
    endloop
  endfacet
  facet normal -7.071068E-01 -7.071068E-01 0.000000E00
    outer loop
      vertex -1.547074E00 4.641221E00 1.547074E00
      vertex -3.609838E00 6.703986E00 1.547074E00
      vertex -3.609838E00 6.703986E00 -1.547074E00
    endloop
  endfacet
  facet normal -7.071068E-01 -7.071068E-01 0.000000E00
    outer loop
      vertex -1.547074E00 4.641221E00 1.547074E00
      vertex -3.609838E00 6.703986E00 -1.547074E00
      vertex -1.547074E00 4.641221E00 -1.547074E00
    endloop
  endfacet
  facet normal 0.000000E00 0.000000E00 -1.000000E00
    outer loop
      vertex -1.547074E00 1.547074E00 -7.735368E00
      vertex -2.578456E00 2.578456E00 -7.735368E00
      vertex 2.578456E00 2.578456E00 -7.735368E00
    endloop
  endfacet
  facet normal 0.000000E00 0.000000E00 -1.000000E00
    outer loop
      vertex -1.547074E00 1.547074E00 -7.735368E00
      vertex 2.578456E00 2.578456E00 -7.735368E00
      vertex 1.547074E00 1.547074E00 -7.735368E00
    endloop
  endfacet
  facet normal 0.000000E00 -7.071068E-01 -7.071068E-01
    outer loop
      vertex -1.547074E00 -3.609838E00 -6.703986E00
      vertex -2.578456E00 -2.578456E00 -7.735368E00
      vertex 2.578456E00 -2.578456E00 -7.735368E00
    endloop
  endfacet
  facet normal 0.000000E00 -7.071068E-01 -7.071068E-01
    outer loop
      vertex -1.547074E00 -3.609838E00 -6.703986E00
      vertex 2.578456E00 -2.578456E00 -7.735368E00
      vertex 1.547074E00 -3.609838E00 -6.703986E00
    endloop
  endfacet
  facet normal 0.000000E00 -1.000000E00 0.000000E00
    outer loop
      vertex 6.703986E00 1.547074E00 3.609838E00
      vertex 3.609838E00 1.547074E00 6.703986E00
      vertex 1.547074E00 1.547074E00 4.641221E00
    endloop
  endfacet
  facet normal 0.000000E00 -1.000000E00 0.000000E00
    outer loop
      vertex 6.703986E00 1.547074E00 3.609838E00
      vertex 1.547074E00 1.547074E00 4.641221E00
      vertex 4.641221E00 1.547074E00 1.547074E00
    endloop
  endfacet
  facet normal 8.164966E-01 -4.082483E-01 4.082483E-01
    outer loop
      vertex 1.547074E00 1.547074E00 -4.641221E00
      vertex 3.266044E00 3.266044E00 -6.360191E00
      vertex 3.266044E00 6.360191E00 -3.266044E00
    endloop
  endfacet
  facet normal 8.164966E-01 -4.082483E-01 4.082483E-01
    outer loop
      vertex 1.547074E00 1.547074E00 -4.641221E00
      vertex 3.266044E00 6.360191E00 -3.266044E00
      vertex 1.547074E00 4.641221E00 -1.547074E00
    endloop
  endfacet
  facet normal 7.071068E-01 7.071068E-01 0.000000E00
    outer loop
      vertex 3.609838E00 6.703986E00 -1.547074E00
      vertex 2.578456E00 7.735368E00 -2.578456E00
      vertex 2.578456E00 7.735368E00 2.578456E00
    endloop
  endfacet
  facet normal 7.071068E-01 7.071068E-01 0.000000E00
    outer loop
      vertex 3.609838E00 6.703986E00 -1.547074E00
      vertex 2.578456E00 7.735368E00 2.578456E00
      vertex 3.609838E00 6.703986E00 1.547074E00
    endloop
  endfacet
  facet normal 7.071068E-01 7.071068E-01 0.000000E00
    outer loop
      vertex 3.609838E00 6.703986E00 1.547074E00
      vertex 2.578456E00 7.735368E00 2.578456E00
      vertex 7.735368E00 2.578456E00 2.578456E00
    endloop
  endfacet
  facet normal 7.071068E-01 7.071068E-01 0.000000E00
    outer loop
      vertex 3.609838E00 6.703986E00 1.547074E00
      vertex 7.735368E00 2.578456E00 2.578456E00
      vertex 6.703986E00 3.609838E00 1.547074E00
    endloop
  endfacet
  facet normal 0.000000E00 -1.000000E00 0.000000E00
    outer loop
      vertex -6.703986E00 1.547074E00 -3.609838E00
      vertex -3.609838E00 1.547074E00 -6.703986E00
      vertex -1.547074E00 1.547074E00 -4.641221E00
    endloop
  endfacet
  facet normal 0.000000E00 -1.000000E00 0.000000E00
    outer loop
      vertex -6.703986E00 1.547074E00 -3.609838E00
      vertex -1.547074E00 1.547074E00 -4.641221E00
      vertex -4.641221E00 1.547074E00 -1.547074E00
    endloop
  endfacet
  facet normal 1.000000E00 0.000000E00 0.000000E00
    outer loop
      vertex -1.547074E00 4.641221E00 -1.547074E00
      vertex -1.547074E00 7.735368E00 -1.547074E00
      vertex -1.547074E00 7.735368E00 1.547074E00
    endloop
  endfacet
  facet normal 1.000000E00 0.000000E00 0.000000E00
    outer loop
      vertex -1.547074E00 4.641221E00 -1.547074E00
      vertex -1.547074E00 7.735368E00 1.547074E00
      vertex -1.547074E00 4.641221E00 1.547074E00
    endloop
  endfacet
  facet normal 1.000000E00 0.000000E00 0.000000E00
    outer loop
      vertex -1.547074E00 6.703986E00 3.609838E00
      vertex -1.547074E00 3.609838E00 6.703986E00
      vertex -1.547074E00 1.547074E00 4.641221E00
    endloop
  endfacet
  facet normal 1.000000E00 0.000000E00 0.000000E00
    outer loop
      vertex -1.547074E00 6.703986E00 3.609838E00
      vertex -1.547074E00 1.547074E00 4.641221E00
      vertex -1.547074E00 4.641221E00 1.547074E00
    endloop
  endfacet
  facet normal -7.071068E-01 0.000000E00 7.071068E-01
    outer loop
      vertex 4.641221E00 -1.547074E00 1.547074E00
      vertex 6.703986E00 -1.547074E00 3.609838E00
      vertex 6.703986E00 1.547074E00 3.609838E00
    endloop
  endfacet
  facet normal -7.071068E-01 0.000000E00 7.071068E-01
    outer loop
      vertex 4.641221E00 -1.547074E00 1.547074E00
      vertex 6.703986E00 1.547074E00 3.609838E00
      vertex 4.641221E00 1.547074E00 1.547074E00
    endloop
  endfacet
  facet normal -5.773503E-01 5.773503E-01 5.773503E-01
    outer loop
      vertex -3.266044E00 6.360191E00 3.266044E00
      vertex -2.578456E00 7.735368E00 2.578456E00
      vertex -7.735368E00 2.578456E00 2.578456E00
    endloop
  endfacet
  facet normal -5.773503E-01 5.773503E-01 5.773503E-01
    outer loop
      vertex -3.266044E00 6.360191E00 3.266044E00
      vertex -7.735368E00 2.578456E00 2.578456E00
      vertex -6.360191E00 3.266044E00 3.266044E00
    endloop
  endfacet
  facet normal -4.082483E-01 8.164966E-01 4.082483E-01
    outer loop
      vertex 4.641221E00 1.547074E00 -1.547074E00
      vertex 6.360191E00 3.266044E00 -3.266044E00
      vertex 3.266044E00 3.266044E00 -6.360191E00
    endloop
  endfacet
  facet normal -4.082483E-01 8.164966E-01 4.082483E-01
    outer loop
      vertex 4.641221E00 1.547074E00 -1.547074E00
      vertex 3.266044E00 3.266044E00 -6.360191E00
      vertex 1.547074E00 1.547074E00 -4.641221E00
    endloop
  endfacet
  facet normal -1.000000E00 0.000000E00 0.000000E00
    outer loop
      vertex 1.547074E00 1.547074E00 -4.641221E00
      vertex 1.547074E00 1.547074E00 -7.735368E00
      vertex 1.547074E00 -1.547074E00 -7.735368E00
    endloop
  endfacet
  facet normal -1.000000E00 0.000000E00 0.000000E00
    outer loop
      vertex 1.547074E00 1.547074E00 -4.641221E00
      vertex 1.547074E00 -1.547074E00 -7.735368E00
      vertex 1.547074E00 -1.547074E00 -4.641221E00
    endloop
  endfacet
  facet normal -7.071068E-01 0.000000E00 -7.071068E-01
    outer loop
      vertex -1.547074E00 -1.547074E00 4.641221E00
      vertex -3.609838E00 -1.547074E00 6.703986E00
      vertex -3.609838E00 1.547074E00 6.703986E00
    endloop
  endfacet
  facet normal -7.071068E-01 0.000000E00 -7.071068E-01
    outer loop
      vertex -1.547074E00 -1.547074E00 4.641221E00
      vertex -3.609838E00 1.547074E00 6.703986E00
      vertex -1.547074E00 1.547074E00 4.641221E00
    endloop
  endfacet
  facet normal -4.082483E-01 -8.164966E-01 -4.082483E-01
    outer loop
      vertex 4.641221E00 -1.547074E00 1.547074E00
      vertex 6.360191E00 -3.266044E00 3.266044E00
      vertex 3.266044E00 -3.266044E00 6.360191E00
    endloop
  endfacet
  facet normal -4.082483E-01 -8.164966E-01 -4.082483E-01
    outer loop
      vertex 4.641221E00 -1.547074E00 1.547074E00
      vertex 3.266044E00 -3.266044E00 6.360191E00
      vertex 1.547074E00 -1.547074E00 4.641221E00
    endloop
  endfacet
  facet normal 1.000000E00 0.000000E00 0.000000E00
    outer loop
      vertex -1.547074E00 -1.547074E00 -4.641221E00
      vertex -1.547074E00 -1.547074E00 -7.735368E00
      vertex -1.547074E00 1.547074E00 -7.735368E00
    endloop
  endfacet
  facet normal 1.000000E00 0.000000E00 0.000000E00
    outer loop
      vertex -1.547074E00 -1.547074E00 -4.641221E00
      vertex -1.547074E00 1.547074E00 -7.735368E00
      vertex -1.547074E00 1.547074E00 -4.641221E00
    endloop
  endfacet
  facet normal 0.000000E00 -1.000000E00 0.000000E00
    outer loop
      vertex -3.609838E00 1.547074E00 6.703986E00
      vertex -6.703986E00 1.547074E00 3.609838E00
      vertex -4.641221E00 1.547074E00 1.547074E00
    endloop
  endfacet
  facet normal 0.000000E00 -1.000000E00 0.000000E00
    outer loop
      vertex -3.609838E00 1.547074E00 6.703986E00
      vertex -4.641221E00 1.547074E00 1.547074E00
      vertex -1.547074E00 1.547074E00 4.641221E00
    endloop
  endfacet
  facet normal -7.071068E-01 -7.071068E-01 0.000000E00
    outer loop
      vertex 4.641221E00 -1.547074E00 -1.547074E00
      vertex 6.703986E00 -3.609838E00 -1.547074E00
      vertex 6.703986E00 -3.609838E00 1.547074E00
    endloop
  endfacet
  facet normal -7.071068E-01 -7.071068E-01 0.000000E00
    outer loop
      vertex 4.641221E00 -1.547074E00 -1.547074E00
      vertex 6.703986E00 -3.609838E00 1.547074E00
      vertex 4.641221E00 -1.547074E00 1.547074E00
    endloop
  endfacet
  facet normal 0.000000E00 -1.000000E00 0.000000E00
    outer loop
      vertex 1.547074E00 -7.735368E00 -1.547074E00
      vertex 2.578456E00 -7.735368E00 -2.578456E00
      vertex 2.578456E00 -7.735368E00 2.578456E00
    endloop
  endfacet
  facet normal 0.000000E00 -1.000000E00 0.000000E00
    outer loop
      vertex 1.547074E00 -7.735368E00 -1.547074E00
      vertex 2.578456E00 -7.735368E00 2.578456E00
      vertex 1.547074E00 -7.735368E00 1.547074E00
    endloop
  endfacet
  facet normal 0.000000E00 7.071068E-01 7.071068E-01
    outer loop
      vertex -1.547074E00 -4.641221E00 1.547074E00
      vertex -1.547074E00 -6.703986E00 3.609838E00
      vertex 1.547074E00 -6.703986E00 3.609838E00
    endloop
  endfacet
  facet normal 0.000000E00 7.071068E-01 7.071068E-01
    outer loop
      vertex -1.547074E00 -4.641221E00 1.547074E00
      vertex 1.547074E00 -6.703986E00 3.609838E00
      vertex 1.547074E00 -4.641221E00 1.547074E00
    endloop
  endfacet
  facet normal 0.000000E00 0.000000E00 1.000000E00
    outer loop
      vertex -6.703986E00 -3.609838E00 -1.547074E00
      vertex -3.609838E00 -6.703986E00 -1.547074E00
      vertex -1.547074E00 -4.641221E00 -1.547074E00
    endloop
  endfacet
  facet normal 0.000000E00 0.000000E00 1.000000E00
    outer loop
      vertex -6.703986E00 -3.609838E00 -1.547074E00
      vertex -1.547074E00 -4.641221E00 -1.547074E00
      vertex -4.641221E00 -1.547074E00 -1.547074E00
    endloop
  endfacet
  facet normal 0.000000E00 0.000000E00 1.000000E00
    outer loop
      vertex -1.547074E00 -1.547074E00 7.735368E00
      vertex -2.578456E00 -2.578456E00 7.735368E00
      vertex 2.578456E00 -2.578456E00 7.735368E00
    endloop
  endfacet
  facet normal 0.000000E00 0.000000E00 1.000000E00
    outer loop
      vertex -1.547074E00 -1.547074E00 7.735368E00
      vertex 2.578456E00 -2.578456E00 7.735368E00
      vertex 1.547074E00 -1.547074E00 7.735368E00
    endloop
  endfacet
  facet normal -1.000000E00 0.000000E00 0.000000E00
    outer loop
      vertex -7.735368E00 -1.547074E00 -1.547074E00
      vertex -7.735368E00 -2.578456E00 -2.578456E00
      vertex -7.735368E00 -2.578456E00 2.578456E00
    endloop
  endfacet
  facet normal -1.000000E00 0.000000E00 0.000000E00
    outer loop
      vertex -7.735368E00 -1.547074E00 -1.547074E00
      vertex -7.735368E00 -2.578456E00 2.578456E00
      vertex -7.735368E00 -1.547074E00 1.547074E00
    endloop
  endfacet
  facet normal 0.000000E00 0.000000E00 -1.000000E00
    outer loop
      vertex -6.703986E00 3.609838E00 1.547074E00
      vertex -3.609838E00 6.703986E00 1.547074E00
      vertex -1.547074E00 4.641221E00 1.547074E00
    endloop
  endfacet
  facet normal 0.000000E00 0.000000E00 -1.000000E00
    outer loop
      vertex -6.703986E00 3.609838E00 1.547074E00
      vertex -1.547074E00 4.641221E00 1.547074E00
      vertex -4.641221E00 1.547074E00 1.547074E00
    endloop
  endfacet
  facet normal 7.071068E-01 0.000000E00 7.071068E-01
    outer loop
      vertex -4.641221E00 1.547074E00 1.547074E00
      vertex -6.703986E00 1.547074E00 3.609838E00
      vertex -6.703986E00 -1.547074E00 3.609838E00
    endloop
  endfacet
  facet normal 7.071068E-01 0.000000E00 7.071068E-01
    outer loop
      vertex -4.641221E00 1.547074E00 1.547074E00
      vertex -6.703986E00 -1.547074E00 3.609838E00
      vertex -4.641221E00 -1.547074E00 1.547074E00
    endloop
  endfacet
  facet normal -1.000000E00 0.000000E00 0.000000E00
    outer loop
      vertex 1.547074E00 4.641221E00 1.547074E00
      vertex 1.547074E00 7.735368E00 1.547074E00
      vertex 1.547074E00 7.735368E00 -1.547074E00
    endloop
  endfacet
  facet normal -1.000000E00 0.000000E00 0.000000E00
    outer loop
      vertex 1.547074E00 4.641221E00 1.547074E00
      vertex 1.547074E00 7.735368E00 -1.547074E00
      vertex 1.547074E00 4.641221E00 -1.547074E00
    endloop
  endfacet
  facet normal 0.000000E00 0.000000E00 1.000000E00
    outer loop
      vertex 1.547074E00 -1.547074E00 7.735368E00
      vertex 2.578456E00 -2.578456E00 7.735368E00
      vertex 2.578456E00 2.578456E00 7.735368E00
    endloop
  endfacet
  facet normal 0.000000E00 0.000000E00 1.000000E00
    outer loop
      vertex 1.547074E00 -1.547074E00 7.735368E00
      vertex 2.578456E00 2.578456E00 7.735368E00
      vertex 1.547074E00 1.547074E00 7.735368E00
    endloop
  endfacet
  facet normal 7.071068E-01 7.071068E-01 0.000000E00
    outer loop
      vertex 1.547074E00 -4.641221E00 1.547074E00
      vertex 3.609838E00 -6.703986E00 1.547074E00
      vertex 3.609838E00 -6.703986E00 -1.547074E00
    endloop
  endfacet
  facet normal 7.071068E-01 7.071068E-01 0.000000E00
    outer loop
      vertex 1.547074E00 -4.641221E00 1.547074E00
      vertex 3.609838E00 -6.703986E00 -1.547074E00
      vertex 1.547074E00 -4.641221E00 -1.547074E00
    endloop
  endfacet
  facet normal 4.082483E-01 4.082483E-01 -8.164966E-01
    outer loop
      vertex -1.547074E00 -4.641221E00 -1.547074E00
      vertex -3.266044E00 -6.360191E00 -3.266044E00
      vertex -6.360191E00 -3.266044E00 -3.266044E00
    endloop
  endfacet
  facet normal 4.082483E-01 4.082483E-01 -8.164966E-01
    outer loop
      vertex -1.547074E00 -4.641221E00 -1.547074E00
      vertex -6.360191E00 -3.266044E00 -3.266044E00
      vertex -4.641221E00 -1.547074E00 -1.547074E00
    endloop
  endfacet
  facet normal 0.000000E00 0.000000E00 1.000000E00
    outer loop
      vertex 1.547074E00 1.547074E00 7.735368E00
      vertex 2.578456E00 2.578456E00 7.735368E00
      vertex -2.578456E00 2.578456E00 7.735368E00
    endloop
  endfacet
  facet normal 0.000000E00 0.000000E00 1.000000E00
    outer loop
      vertex 1.547074E00 1.547074E00 7.735368E00
      vertex -2.578456E00 2.578456E00 7.735368E00
      vertex -1.547074E00 1.547074E00 7.735368E00
    endloop
  endfacet
  facet normal -7.071068E-01 0.000000E00 -7.071068E-01
    outer loop
      vertex -6.703986E00 1.547074E00 -3.609838E00
      vertex -7.735368E00 2.578456E00 -2.578456E00
      vertex -2.578456E00 2.578456E00 -7.735368E00
    endloop
  endfacet
  facet normal -7.071068E-01 0.000000E00 -7.071068E-01
    outer loop
      vertex -6.703986E00 1.547074E00 -3.609838E00
      vertex -2.578456E00 2.578456E00 -7.735368E00
      vertex -3.609838E00 1.547074E00 -6.703986E00
    endloop
  endfacet
  facet normal 7.071068E-01 0.000000E00 7.071068E-01
    outer loop
      vertex 6.703986E00 1.547074E00 3.609838E00
      vertex 7.735368E00 2.578456E00 2.578456E00
      vertex 2.578456E00 2.578456E00 7.735368E00
    endloop
  endfacet
  facet normal 7.071068E-01 0.000000E00 7.071068E-01
    outer loop
      vertex 6.703986E00 1.547074E00 3.609838E00
      vertex 2.578456E00 2.578456E00 7.735368E00
      vertex 3.609838E00 1.547074E00 6.703986E00
    endloop
  endfacet
  facet normal 0.000000E00 -7.071068E-01 -7.071068E-01
    outer loop
      vertex -1.547074E00 4.641221E00 -1.547074E00
      vertex -1.547074E00 6.703986E00 -3.609838E00
      vertex 1.547074E00 6.703986E00 -3.609838E00
    endloop
  endfacet
  facet normal 0.000000E00 -7.071068E-01 -7.071068E-01
    outer loop
      vertex -1.547074E00 4.641221E00 -1.547074E00
      vertex 1.547074E00 6.703986E00 -3.609838E00
      vertex 1.547074E00 4.641221E00 -1.547074E00
    endloop
  endfacet
  facet normal 7.071068E-01 0.000000E00 7.071068E-01
    outer loop
      vertex 1.547074E00 -1.547074E00 -4.641221E00
      vertex 3.609838E00 -1.547074E00 -6.703986E00
      vertex 3.609838E00 1.547074E00 -6.703986E00
    endloop
  endfacet
  facet normal 7.071068E-01 0.000000E00 7.071068E-01
    outer loop
      vertex 1.547074E00 -1.547074E00 -4.641221E00
      vertex 3.609838E00 1.547074E00 -6.703986E00
      vertex 1.547074E00 1.547074E00 -4.641221E00
    endloop
  endfacet
  facet normal 0.000000E00 7.071068E-01 -7.071068E-01
    outer loop
      vertex 1.547074E00 6.703986E00 -3.609838E00
      vertex 2.578456E00 7.735368E00 -2.578456E00
      vertex 2.578456E00 2.578456E00 -7.735368E00
    endloop
  endfacet
  facet normal 0.000000E00 7.071068E-01 -7.071068E-01
    outer loop
      vertex 1.547074E00 6.703986E00 -3.609838E00
      vertex 2.578456E00 2.578456E00 -7.735368E00
      vertex 1.547074E00 3.609838E00 -6.703986E00
    endloop
  endfacet
  facet normal 8.164966E-01 4.082483E-01 4.082483E-01
    outer loop
      vertex 1.547074E00 -4.641221E00 -1.547074E00
      vertex 3.266044E00 -6.360191E00 -3.266044E00
      vertex 3.266044E00 -3.266044E00 -6.360191E00
    endloop
  endfacet
  facet normal 8.164966E-01 4.082483E-01 4.082483E-01
    outer loop
      vertex 1.547074E00 -4.641221E00 -1.547074E00
      vertex 3.266044E00 -3.266044E00 -6.360191E00
      vertex 1.547074E00 -1.547074E00 -4.641221E00
    endloop
  endfacet
  facet normal 0.000000E00 1.000000E00 0.000000E00
    outer loop
      vertex 1.547074E00 7.735368E00 1.547074E00
      vertex 2.578456E00 7.735368E00 2.578456E00
      vertex 2.578456E00 7.735368E00 -2.578456E00
    endloop
  endfacet
  facet normal 0.000000E00 1.000000E00 0.000000E00
    outer loop
      vertex 1.547074E00 7.735368E00 1.547074E00
      vertex 2.578456E00 7.735368E00 -2.578456E00
      vertex 1.547074E00 7.735368E00 -1.547074E00
    endloop
  endfacet
  facet normal 1.000000E00 0.000000E00 0.000000E00
    outer loop
      vertex 7.735368E00 1.547074E00 1.547074E00
      vertex 7.735368E00 2.578456E00 2.578456E00
      vertex 7.735368E00 -2.578456E00 2.578456E00
    endloop
  endfacet
  facet normal 1.000000E00 0.000000E00 0.000000E00
    outer loop
      vertex 7.735368E00 1.547074E00 1.547074E00
      vertex 7.735368E00 -2.578456E00 2.578456E00
      vertex 7.735368E00 -1.547074E00 1.547074E00
    endloop
  endfacet
  facet normal -7.071068E-01 -7.071068E-01 0.000000E00
    outer loop
      vertex -3.609838E00 -6.703986E00 1.547074E00
      vertex -2.578456E00 -7.735368E00 2.578456E00
      vertex -7.735368E00 -2.578456E00 2.578456E00
    endloop
  endfacet
  facet normal -7.071068E-01 -7.071068E-01 0.000000E00
    outer loop
      vertex -3.609838E00 -6.703986E00 1.547074E00
      vertex -7.735368E00 -2.578456E00 2.578456E00
      vertex -6.703986E00 -3.609838E00 1.547074E00
    endloop
  endfacet
  facet normal 5.773503E-01 -5.773503E-01 -5.773503E-01
    outer loop
      vertex 3.266044E00 -6.360191E00 -3.266044E00
      vertex 2.578456E00 -7.735368E00 -2.578456E00
      vertex 2.578456E00 -2.578456E00 -7.735368E00
    endloop
  endfacet
  facet normal 5.773503E-01 -5.773503E-01 -5.773503E-01
    outer loop
      vertex 3.266044E00 -6.360191E00 -3.266044E00
      vertex 2.578456E00 -2.578456E00 -7.735368E00
      vertex 3.266044E00 -3.266044E00 -6.360191E00
    endloop
  endfacet
  facet normal -7.071068E-01 0.000000E00 7.071068E-01
    outer loop
      vertex -3.609838E00 1.547074E00 6.703986E00
      vertex -2.578456E00 2.578456E00 7.735368E00
      vertex -7.735368E00 2.578456E00 2.578456E00
    endloop
  endfacet
  facet normal -7.071068E-01 0.000000E00 7.071068E-01
    outer loop
      vertex -3.609838E00 1.547074E00 6.703986E00
      vertex -7.735368E00 2.578456E00 2.578456E00
      vertex -6.703986E00 1.547074E00 3.609838E00
    endloop
  endfacet
  facet normal 0.000000E00 0.000000E00 1.000000E00
    outer loop
      vertex -3.609838E00 6.703986E00 -1.547074E00
      vertex -6.703986E00 3.609838E00 -1.547074E00
      vertex -4.641221E00 1.547074E00 -1.547074E00
    endloop
  endfacet
  facet normal 0.000000E00 0.000000E00 1.000000E00
    outer loop
      vertex -3.609838E00 6.703986E00 -1.547074E00
      vertex -4.641221E00 1.547074E00 -1.547074E00
      vertex -1.547074E00 4.641221E00 -1.547074E00
    endloop
  endfacet
  facet normal -5.773503E-01 -5.773503E-01 5.773503E-01
    outer loop
      vertex -3.266044E00 -3.266044E00 6.360191E00
      vertex -2.578456E00 -2.578456E00 7.735368E00
      vertex -7.735368E00 -2.578456E00 2.578456E00
    endloop
  endfacet
  facet normal -5.773503E-01 -5.773503E-01 5.773503E-01
    outer loop
      vertex -3.266044E00 -3.266044E00 6.360191E00
      vertex -7.735368E00 -2.578456E00 2.578456E00
      vertex -6.360191E00 -3.266044E00 3.266044E00
    endloop
  endfacet
  facet normal 7.071068E-01 7.071068E-01 0.000000E00
    outer loop
      vertex 6.703986E00 3.609838E00 1.547074E00
      vertex 7.735368E00 2.578456E00 2.578456E00
      vertex 7.735368E00 2.578456E00 -2.578456E00
    endloop
  endfacet
  facet normal 7.071068E-01 7.071068E-01 0.000000E00
    outer loop
      vertex 6.703986E00 3.609838E00 1.547074E00
      vertex 7.735368E00 2.578456E00 -2.578456E00
      vertex 6.703986E00 3.609838E00 -1.547074E00
    endloop
  endfacet
  facet normal 0.000000E00 1.000000E00 0.000000E00
    outer loop
      vertex -1.547074E00 -1.547074E00 4.641221E00
      vertex -1.547074E00 -1.547074E00 7.735368E00
      vertex 1.547074E00 -1.547074E00 7.735368E00
    endloop
  endfacet
  facet normal 0.000000E00 1.000000E00 0.000000E00
    outer loop
      vertex -1.547074E00 -1.547074E00 4.641221E00
      vertex 1.547074E00 -1.547074E00 7.735368E00
      vertex 1.547074E00 -1.547074E00 4.641221E00
    endloop
  endfacet
  facet normal 0.000000E00 0.000000E00 -1.000000E00
    outer loop
      vertex -1.547074E00 4.641221E00 1.547074E00
      vertex -1.547074E00 7.735368E00 1.547074E00
      vertex 1.547074E00 7.735368E00 1.547074E00
    endloop
  endfacet
  facet normal 0.000000E00 0.000000E00 -1.000000E00
    outer loop
      vertex -1.547074E00 4.641221E00 1.547074E00
      vertex 1.547074E00 7.735368E00 1.547074E00
      vertex 1.547074E00 4.641221E00 1.547074E00
    endloop
  endfacet
  facet normal 4.082483E-01 -8.164966E-01 -4.082483E-01
    outer loop
      vertex -1.547074E00 -1.547074E00 4.641221E00
      vertex -3.266044E00 -3.266044E00 6.360191E00
      vertex -6.360191E00 -3.266044E00 3.266044E00
    endloop
  endfacet
  facet normal 4.082483E-01 -8.164966E-01 -4.082483E-01
    outer loop
      vertex -1.547074E00 -1.547074E00 4.641221E00
      vertex -6.360191E00 -3.266044E00 3.266044E00
      vertex -4.641221E00 -1.547074E00 1.547074E00
    endloop
  endfacet
endsolid vcg
