solid vcg
  facet normal -5.257311E-01 0.000000E00 -8.506508E-01
    outer loop
      vertex -6.215984E00 0.000000E00 -6.682432E00
      vertex -7.148879E00 0.000000E00 -6.105871E00
      vertex -5.461257E00 2.730629E00 -7.148879E00
    endloop
  endfacet
  facet normal -5.257311E-01 0.000000E00 -8.506508E-01
    outer loop
      vertex -6.215984E00 0.000000E00 -6.682432E00
      vertex -5.461257E00 2.730629E00 -7.148879E00
      vertex -5.172977E00 1.687621E00 -7.327045E00
    endloop
  endfacet
  facet normal 2.628655E-01 -9.510565E-01 -1.624599E-01
    outer loop
      vertex 4.454173E-01 1.213142E00 3.896746E00
      vertex 2.408322E00 1.962904E00 2.683605E00
      vertex 3.451329E00 1.962904E00 4.371226E00
    endloop
  endfacet
  facet normal 2.628655E-01 -9.510565E-01 -1.624599E-01
    outer loop
      vertex 4.454173E-01 1.213142E00 3.896746E00
      vertex 3.451329E00 1.962904E00 4.371226E00
      vertex 1.488425E00 1.213142E00 5.584367E00
    endloop
  endfacet
  facet normal 2.628655E-01 -9.510565E-01 -1.624599E-01
    outer loop
      vertex 2.086015E00 -1.687621E00 -1.043007E00
      vertex -1.687621E00 -2.730629E00 -1.043007E00
      vertex -5.461257E00 -2.730629E00 -7.148879E00
    endloop
  endfacet
  facet normal 2.628655E-01 -9.510565E-01 -1.624599E-01
    outer loop
      vertex 2.086015E00 -1.687621E00 -1.043007E00
      vertex -5.461257E00 -2.730629E00 -7.148879E00
      vertex -2.730629E00 -1.687621E00 -8.836500E00
    endloop
  endfacet
  facet normal -1.784111E-01 -8.660254E-01 -4.670862E-01
    outer loop
      vertex -5.461257E00 1.687621E00 1.043007E00
      vertex -4.418250E00 0.000000E00 3.773636E00
      vertex -7.578621E00 0.000000E00 4.980790E00
    endloop
  endfacet
  facet normal -1.784111E-01 -8.660254E-01 -4.670862E-01
    outer loop
      vertex -5.461257E00 1.687621E00 1.043007E00
      vertex -7.578621E00 0.000000E00 4.980790E00
      vertex -8.621629E00 1.687621E00 2.250162E00
    endloop
  endfacet
  facet normal -2.628655E-01 -9.510565E-01 1.624598E-01
    outer loop
      vertex 5.461257E00 -2.730629E00 7.148879E00
      vertex 2.730629E00 -1.687621E00 8.836500E00
      vertex -2.086015E00 -1.687621E00 1.043007E00
    endloop
  endfacet
  facet normal -2.628655E-01 -9.510565E-01 1.624598E-01
    outer loop
      vertex 5.461257E00 -2.730629E00 7.148879E00
      vertex -2.086015E00 -1.687621E00 1.043007E00
      vertex 1.687621E00 -2.730629E00 1.043007E00
    endloop
  endfacet
  facet normal 6.881910E-01 -5.877853E-01 -4.253254E-01
    outer loop
      vertex -5.172977E00 1.687621E00 -7.327045E00
      vertex -3.375243E00 1.687621E00 -4.418250E00
      vertex -4.418250E00 0.000000E00 -3.773636E00
    endloop
  endfacet
  facet normal 6.881910E-01 -5.877853E-01 -4.253254E-01
    outer loop
      vertex -5.172977E00 1.687621E00 -7.327045E00
      vertex -4.418250E00 0.000000E00 -3.773636E00
      vertex -6.215984E00 0.000000E00 -6.682432E00
    endloop
  endfacet
  facet normal 9.341723E-01 0.000000E00 -3.568221E-01
    outer loop
      vertex 4.465274E00 -1.915880E00 -5.215037E-01
      vertex 3.281195E00 0.000000E00 -3.621463E00
      vertex 4.465274E00 1.915880E00 -5.215037E-01
    endloop
  endfacet
  facet normal -5.257311E-01 0.000000E00 -8.506508E-01
    outer loop
      vertex -2.408322E00 1.962904E00 -2.683605E00
      vertex -4.454173E-01 1.213142E00 -3.896746E00
      vertex -4.454173E-01 -1.213142E00 -3.896746E00
    endloop
  endfacet
  facet normal -5.257311E-01 0.000000E00 -8.506508E-01
    outer loop
      vertex -2.408322E00 1.962904E00 -2.683605E00
      vertex -4.454173E-01 -1.213142E00 -3.896746E00
      vertex -2.408322E00 -1.962904E00 -2.683605E00
    endloop
  endfacet
  facet normal -5.257311E-01 0.000000E00 -8.506508E-01
    outer loop
      vertex -2.408322E00 1.962904E00 -2.683605E00
      vertex -2.408322E00 -1.962904E00 -2.683605E00
      vertex -3.621463E00 0.000000E00 -1.933842E00
    endloop
  endfacet
  facet normal 1.784111E-01 8.660254E-01 4.670862E-01
    outer loop
      vertex -5.215037E-01 0.000000E00 3.574439E00
      vertex -2.086015E00 1.687621E00 1.043007E00
      vertex -8.836500E00 2.730629E00 1.687621E00
    endloop
  endfacet
  facet normal 1.784111E-01 8.660254E-01 4.670862E-01
    outer loop
      vertex -5.215037E-01 0.000000E00 3.574439E00
      vertex -8.836500E00 2.730629E00 1.687621E00
      vertex -7.148879E00 0.000000E00 6.105871E00
    endloop
  endfacet
  facet normal -9.341724E-01 0.000000E00 3.568221E-01
    outer loop
      vertex -8.621629E00 1.687621E00 2.250162E00
      vertex -8.836500E00 2.730629E00 1.687621E00
      vertex -8.836500E00 -2.730629E00 1.687621E00
    endloop
  endfacet
  facet normal -9.341724E-01 0.000000E00 3.568221E-01
    outer loop
      vertex -8.621629E00 1.687621E00 2.250162E00
      vertex -8.836500E00 -2.730629E00 1.687621E00
      vertex -8.621629E00 -1.687621E00 2.250162E00
    endloop
  endfacet
  facet normal -6.881910E-01 5.877853E-01 4.253254E-01
    outer loop
      vertex 6.215984E00 0.000000E00 6.682432E00
      vertex 4.418250E00 0.000000E00 3.773636E00
      vertex 3.375243E00 -1.687621E00 4.418250E00
    endloop
  endfacet
  facet normal -6.881910E-01 5.877853E-01 4.253254E-01
    outer loop
      vertex 6.215984E00 0.000000E00 6.682432E00
      vertex 3.375243E00 -1.687621E00 4.418250E00
      vertex 5.172977E00 -1.687621E00 7.327045E00
    endloop
  endfacet
  facet normal 5.257311E-01 0.000000E00 8.506508E-01
    outer loop
      vertex 2.408322E00 1.962904E00 2.683605E00
      vertex 4.454173E-01 1.213142E00 3.896746E00
      vertex 4.454173E-01 -1.213142E00 3.896746E00
    endloop
  endfacet
  facet normal 5.257311E-01 0.000000E00 8.506508E-01
    outer loop
      vertex 2.408322E00 1.962904E00 2.683605E00
      vertex 4.454173E-01 -1.213142E00 3.896746E00
      vertex 2.408322E00 -1.962904E00 2.683605E00
    endloop
  endfacet
  facet normal 5.257311E-01 0.000000E00 8.506508E-01
    outer loop
      vertex 2.408322E00 1.962904E00 2.683605E00
      vertex 2.408322E00 -1.962904E00 2.683605E00
      vertex 3.621463E00 0.000000E00 1.933842E00
    endloop
  endfacet
  facet normal -1.784111E-01 -8.660254E-01 -4.670862E-01
    outer loop
      vertex -5.508282E00 1.915880E00 9.198970E-01
      vertex -4.465274E00 1.915880E00 5.215037E-01
      vertex -3.281195E00 0.000000E00 3.621463E00
    endloop
  endfacet
  facet normal -1.784111E-01 -8.660254E-01 -4.670862E-01
    outer loop
      vertex -5.508282E00 1.915880E00 9.198970E-01
      vertex -3.281195E00 0.000000E00 3.621463E00
      vertex -4.324202E00 0.000000E00 4.019856E00
    endloop
  endfacet
  facet normal 3.568221E-01 0.000000E00 9.341723E-01
    outer loop
      vertex 3.574439E00 0.000000E00 3.223070E-01
      vertex 8.836500E00 2.730629E00 -1.687621E00
      vertex 1.687621E00 2.730629E00 1.043007E00
    endloop
  endfacet
  facet normal 6.881909E-01 5.877853E-01 -4.253254E-01
    outer loop
      vertex -3.621463E00 0.000000E00 -1.933842E00
      vertex -2.408322E00 -1.962904E00 -2.683605E00
      vertex -3.451329E00 -1.962904E00 -4.371226E00
    endloop
  endfacet
  facet normal 6.881909E-01 5.877853E-01 -4.253254E-01
    outer loop
      vertex -3.621463E00 0.000000E00 -1.933842E00
      vertex -3.451329E00 -1.962904E00 -4.371226E00
      vertex -4.664471E00 0.000000E00 -3.621463E00
    endloop
  endfacet
  facet normal 9.341724E-01 0.000000E00 -3.568221E-01
    outer loop
      vertex 8.621629E00 1.687621E00 -2.250162E00
      vertex 8.836500E00 2.730629E00 -1.687621E00
      vertex 8.836500E00 -2.730629E00 -1.687621E00
    endloop
  endfacet
  facet normal 9.341724E-01 0.000000E00 -3.568221E-01
    outer loop
      vertex 8.621629E00 1.687621E00 -2.250162E00
      vertex 8.836500E00 -2.730629E00 -1.687621E00
      vertex 8.621629E00 -1.687621E00 -2.250162E00
    endloop
  endfacet
  facet normal -3.568221E-01 0.000000E00 -9.341723E-01
    outer loop
      vertex -3.574439E00 0.000000E00 -3.223070E-01
      vertex -1.687621E00 -2.730629E00 -1.043007E00
      vertex -8.836500E00 -2.730629E00 1.687621E00
    endloop
  endfacet
  facet normal 3.568221E-01 0.000000E00 9.341724E-01
    outer loop
      vertex -5.461257E00 -1.687621E00 1.043007E00
      vertex -5.461257E00 1.687621E00 1.043007E00
      vertex -8.621629E00 1.687621E00 2.250162E00
    endloop
  endfacet
  facet normal 3.568221E-01 0.000000E00 9.341724E-01
    outer loop
      vertex -5.461257E00 -1.687621E00 1.043007E00
      vertex -8.621629E00 1.687621E00 2.250162E00
      vertex -8.621629E00 -1.687621E00 2.250162E00
    endloop
  endfacet
  facet normal 5.257311E-01 0.000000E00 8.506508E-01
    outer loop
      vertex -1.687621E00 1.043007E00 -5.461257E00
      vertex -1.488425E00 1.213142E00 -5.584367E00
      vertex -3.451329E00 1.962904E00 -4.371226E00
    endloop
  endfacet
  facet normal 5.257311E-01 0.000000E00 8.506508E-01
    outer loop
      vertex -1.687621E00 1.043007E00 -5.461257E00
      vertex -3.451329E00 1.962904E00 -4.371226E00
      vertex -3.375243E00 1.687621E00 -4.418250E00
    endloop
  endfacet
  facet normal 2.446443E-01 8.851314E-01 -3.958428E-01
    outer loop
      vertex 1.687621E00 2.730629E00 1.043007E00
      vertex 2.086015E00 1.687621E00 -1.043007E00
      vertex -1.687621E00 2.730629E00 -1.043007E00
    endloop
  endfacet
  facet normal 6.881910E-01 5.877852E-01 -4.253254E-01
    outer loop
      vertex 7.148879E00 0.000000E00 6.105871E00
      vertex 3.574439E00 0.000000E00 3.223070E-01
      vertex 1.687621E00 2.730629E00 1.043007E00
    endloop
  endfacet
  facet normal 6.881910E-01 5.877852E-01 -4.253254E-01
    outer loop
      vertex 7.148879E00 0.000000E00 6.105871E00
      vertex 1.687621E00 2.730629E00 1.043007E00
      vertex 5.461257E00 2.730629E00 7.148879E00
    endloop
  endfacet
  facet normal 5.257311E-01 0.000000E00 8.506508E-01
    outer loop
      vertex 3.485356E00 1.043007E00 8.370053E00
      vertex 2.730629E00 1.687621E00 8.836500E00
      vertex 2.730629E00 -1.687621E00 8.836500E00
    endloop
  endfacet
  facet normal 5.257311E-01 0.000000E00 8.506508E-01
    outer loop
      vertex 3.485356E00 1.043007E00 8.370053E00
      vertex 2.730629E00 -1.687621E00 8.836500E00
      vertex 3.485356E00 -1.043007E00 8.370053E00
    endloop
  endfacet
  facet normal 1.784111E-01 8.660254E-01 4.670862E-01
    outer loop
      vertex 4.324202E00 0.000000E00 -4.019856E00
      vertex 3.281195E00 0.000000E00 -3.621463E00
      vertex 4.465274E00 -1.915880E00 -5.215037E-01
    endloop
  endfacet
  facet normal 1.784111E-01 8.660254E-01 4.670862E-01
    outer loop
      vertex 4.324202E00 0.000000E00 -4.019856E00
      vertex 4.465274E00 -1.915880E00 -5.215037E-01
      vertex 5.508282E00 -1.915880E00 -9.198970E-01
    endloop
  endfacet
  facet normal 1.784111E-01 8.660254E-01 4.670862E-01
    outer loop
      vertex 4.418250E00 0.000000E00 -3.773636E00
      vertex 5.461257E00 -1.687621E00 -1.043007E00
      vertex 8.621629E00 -1.687621E00 -2.250162E00
    endloop
  endfacet
  facet normal 1.784111E-01 8.660254E-01 4.670862E-01
    outer loop
      vertex 4.418250E00 0.000000E00 -3.773636E00
      vertex 8.621629E00 -1.687621E00 -2.250162E00
      vertex 7.578621E00 0.000000E00 -4.980790E00
    endloop
  endfacet
  facet normal -9.341724E-01 0.000000E00 3.568221E-01
    outer loop
      vertex -7.578621E00 0.000000E00 4.980790E00
      vertex -7.148879E00 0.000000E00 6.105871E00
      vertex -8.836500E00 2.730629E00 1.687621E00
    endloop
  endfacet
  facet normal -9.341724E-01 0.000000E00 3.568221E-01
    outer loop
      vertex -7.578621E00 0.000000E00 4.980790E00
      vertex -8.836500E00 2.730629E00 1.687621E00
      vertex -8.621629E00 1.687621E00 2.250162E00
    endloop
  endfacet
  facet normal 5.257311E-01 0.000000E00 8.506508E-01
    outer loop
      vertex 6.215984E00 0.000000E00 6.682432E00
      vertex 7.148879E00 0.000000E00 6.105871E00
      vertex 5.461257E00 2.730629E00 7.148879E00
    endloop
  endfacet
  facet normal 5.257311E-01 0.000000E00 8.506508E-01
    outer loop
      vertex 6.215984E00 0.000000E00 6.682432E00
      vertex 5.461257E00 2.730629E00 7.148879E00
      vertex 5.172977E00 1.687621E00 7.327045E00
    endloop
  endfacet
  facet normal -2.628655E-01 9.510565E-01 1.624599E-01
    outer loop
      vertex -2.408322E00 -1.962904E00 -2.683605E00
      vertex -4.454173E-01 -1.213142E00 -3.896746E00
      vertex -1.488425E00 -1.213142E00 -5.584367E00
    endloop
  endfacet
  facet normal -2.628655E-01 9.510565E-01 1.624599E-01
    outer loop
      vertex -2.408322E00 -1.962904E00 -2.683605E00
      vertex -1.488425E00 -1.213142E00 -5.584367E00
      vertex -3.451329E00 -1.962904E00 -4.371226E00
    endloop
  endfacet
  facet normal -9.341724E-01 0.000000E00 3.568221E-01
    outer loop
      vertex -8.621629E00 -1.687621E00 2.250162E00
      vertex -8.836500E00 -2.730629E00 1.687621E00
      vertex -7.148879E00 0.000000E00 6.105871E00
    endloop
  endfacet
  facet normal -9.341724E-01 0.000000E00 3.568221E-01
    outer loop
      vertex -8.621629E00 -1.687621E00 2.250162E00
      vertex -7.148879E00 0.000000E00 6.105871E00
      vertex -7.578621E00 0.000000E00 4.980790E00
    endloop
  endfacet
  facet normal 3.568221E-01 0.000000E00 9.341723E-01
    outer loop
      vertex -5.508282E00 -1.915880E00 9.198970E-01
      vertex -4.465274E00 -1.915880E00 5.215037E-01
      vertex -4.465274E00 1.915880E00 5.215037E-01
    endloop
  endfacet
  facet normal 3.568221E-01 0.000000E00 9.341723E-01
    outer loop
      vertex -5.508282E00 -1.915880E00 9.198970E-01
      vertex -4.465274E00 1.915880E00 5.215037E-01
      vertex -5.508282E00 1.915880E00 9.198970E-01
    endloop
  endfacet
  facet normal 1.784111E-01 -8.660254E-01 4.670862E-01
    outer loop
      vertex 5.508282E00 1.915880E00 -9.198970E-01
      vertex 4.465274E00 1.915880E00 -5.215037E-01
      vertex 3.281195E00 0.000000E00 -3.621463E00
    endloop
  endfacet
  facet normal 1.784111E-01 -8.660254E-01 4.670862E-01
    outer loop
      vertex 5.508282E00 1.915880E00 -9.198970E-01
      vertex 3.281195E00 0.000000E00 -3.621463E00
      vertex 4.324202E00 0.000000E00 -4.019856E00
    endloop
  endfacet
  facet normal -5.257311E-01 0.000000E00 -8.506508E-01
    outer loop
      vertex -3.485356E00 -1.043007E00 -8.370053E00
      vertex -2.730629E00 -1.687621E00 -8.836500E00
      vertex -5.461257E00 -2.730629E00 -7.148879E00
    endloop
  endfacet
  facet normal -5.257311E-01 0.000000E00 -8.506508E-01
    outer loop
      vertex -3.485356E00 -1.043007E00 -8.370053E00
      vertex -5.461257E00 -2.730629E00 -7.148879E00
      vertex -5.172977E00 -1.687621E00 -7.327045E00
    endloop
  endfacet
  facet normal -1.784111E-01 8.660254E-01 -4.670862E-01
    outer loop
      vertex -4.418250E00 0.000000E00 3.773636E00
      vertex -5.461257E00 -1.687621E00 1.043007E00
      vertex -8.621629E00 -1.687621E00 2.250162E00
    endloop
  endfacet
  facet normal -1.784111E-01 8.660254E-01 -4.670862E-01
    outer loop
      vertex -4.418250E00 0.000000E00 3.773636E00
      vertex -8.621629E00 -1.687621E00 2.250162E00
      vertex -7.578621E00 0.000000E00 4.980790E00
    endloop
  endfacet
  facet normal 5.257311E-01 0.000000E00 8.506508E-01
    outer loop
      vertex 3.485356E00 -1.043007E00 8.370053E00
      vertex 2.730629E00 -1.687621E00 8.836500E00
      vertex 5.461257E00 -2.730629E00 7.148879E00
    endloop
  endfacet
  facet normal 5.257311E-01 0.000000E00 8.506508E-01
    outer loop
      vertex 3.485356E00 -1.043007E00 8.370053E00
      vertex 5.461257E00 -2.730629E00 7.148879E00
      vertex 5.172977E00 -1.687621E00 7.327045E00
    endloop
  endfacet
  facet normal 2.446443E-01 -8.851314E-01 -3.958428E-01
    outer loop
      vertex -1.687621E00 -2.730629E00 -1.043007E00
      vertex 2.086015E00 -1.687621E00 -1.043007E00
      vertex 1.687621E00 -2.730629E00 1.043007E00
    endloop
  endfacet
  facet normal -5.257311E-01 0.000000E00 -8.506508E-01
    outer loop
      vertex 1.687621E00 1.043007E00 5.461257E00
      vertex 1.488425E00 1.213142E00 5.584367E00
      vertex 3.451329E00 1.962904E00 4.371226E00
    endloop
  endfacet
  facet normal -5.257311E-01 0.000000E00 -8.506508E-01
    outer loop
      vertex 1.687621E00 1.043007E00 5.461257E00
      vertex 3.451329E00 1.962904E00 4.371226E00
      vertex 3.375243E00 1.687621E00 4.418250E00
    endloop
  endfacet
  facet normal 5.257311E-01 0.000000E00 8.506508E-01
    outer loop
      vertex 5.172977E00 1.687621E00 7.327045E00
      vertex 5.461257E00 2.730629E00 7.148879E00
      vertex 2.730629E00 1.687621E00 8.836500E00
    endloop
  endfacet
  facet normal 5.257311E-01 0.000000E00 8.506508E-01
    outer loop
      vertex 5.172977E00 1.687621E00 7.327045E00
      vertex 2.730629E00 1.687621E00 8.836500E00
      vertex 3.485356E00 1.043007E00 8.370053E00
    endloop
  endfacet
  facet normal -5.257311E-01 0.000000E00 -8.506508E-01
    outer loop
      vertex 4.418250E00 0.000000E00 3.773636E00
      vertex 4.664471E00 0.000000E00 3.621463E00
      vertex 3.451329E00 -1.962904E00 4.371226E00
    endloop
  endfacet
  facet normal -5.257311E-01 0.000000E00 -8.506508E-01
    outer loop
      vertex 4.418250E00 0.000000E00 3.773636E00
      vertex 3.451329E00 -1.962904E00 4.371226E00
      vertex 3.375243E00 -1.687621E00 4.418250E00
    endloop
  endfacet
  facet normal -1.784110E-01 -8.660254E-01 -4.670862E-01
    outer loop
      vertex 2.086015E00 -1.687621E00 -1.043007E00
      vertex 8.836500E00 -2.730629E00 -1.687621E00
      vertex 1.687621E00 -2.730629E00 1.043007E00
    endloop
  endfacet
  facet normal 1.784110E-01 8.660254E-01 4.670862E-01
    outer loop
      vertex -2.086015E00 1.687621E00 1.043007E00
      vertex -1.687621E00 2.730629E00 -1.043007E00
      vertex -8.836500E00 2.730629E00 1.687621E00
    endloop
  endfacet
  facet normal 5.257311E-01 0.000000E00 8.506508E-01
    outer loop
      vertex -4.418250E00 0.000000E00 -3.773636E00
      vertex -4.664471E00 0.000000E00 -3.621463E00
      vertex -3.451329E00 -1.962904E00 -4.371226E00
    endloop
  endfacet
  facet normal 5.257311E-01 0.000000E00 8.506508E-01
    outer loop
      vertex -4.418250E00 0.000000E00 -3.773636E00
      vertex -3.451329E00 -1.962904E00 -4.371226E00
      vertex -3.375243E00 -1.687621E00 -4.418250E00
    endloop
  endfacet
  facet normal 8.506508E-01 0.000000E00 -5.257311E-01
    outer loop
      vertex 3.485356E00 -1.043007E00 8.370053E00
      vertex 1.687621E00 -1.043007E00 5.461257E00
      vertex 1.687621E00 1.043007E00 5.461257E00
    endloop
  endfacet
  facet normal 8.506508E-01 0.000000E00 -5.257311E-01
    outer loop
      vertex 3.485356E00 -1.043007E00 8.370053E00
      vertex 1.687621E00 1.043007E00 5.461257E00
      vertex 3.485356E00 1.043007E00 8.370053E00
    endloop
  endfacet
  facet normal 9.341724E-01 0.000000E00 -3.568221E-01
    outer loop
      vertex 7.578621E00 0.000000E00 -4.980790E00
      vertex 7.148879E00 0.000000E00 -6.105871E00
      vertex 8.836500E00 2.730629E00 -1.687621E00
    endloop
  endfacet
  facet normal 9.341724E-01 0.000000E00 -3.568221E-01
    outer loop
      vertex 7.578621E00 0.000000E00 -4.980790E00
      vertex 8.836500E00 2.730629E00 -1.687621E00
      vertex 8.621629E00 1.687621E00 -2.250162E00
    endloop
  endfacet
  facet normal -3.568221E-01 0.000000E00 -9.341724E-01
    outer loop
      vertex 5.461257E00 -1.687621E00 -1.043007E00
      vertex 5.461257E00 1.687621E00 -1.043007E00
      vertex 8.621629E00 1.687621E00 -2.250162E00
    endloop
  endfacet
  facet normal -3.568221E-01 0.000000E00 -9.341724E-01
    outer loop
      vertex 5.461257E00 -1.687621E00 -1.043007E00
      vertex 8.621629E00 1.687621E00 -2.250162E00
      vertex 8.621629E00 -1.687621E00 -2.250162E00
    endloop
  endfacet
  facet normal 5.257311E-01 0.000000E00 8.506508E-01
    outer loop
      vertex -1.687621E00 -1.043007E00 -5.461257E00
      vertex -1.488425E00 -1.213142E00 -5.584367E00
      vertex -1.488425E00 1.213142E00 -5.584367E00
    endloop
  endfacet
  facet normal 5.257311E-01 0.000000E00 8.506508E-01
    outer loop
      vertex -1.687621E00 -1.043007E00 -5.461257E00
      vertex -1.488425E00 1.213142E00 -5.584367E00
      vertex -1.687621E00 1.043007E00 -5.461257E00
    endloop
  endfacet
  facet normal 5.257311E-01 0.000000E00 8.506508E-01
    outer loop
      vertex -3.375243E00 1.687621E00 -4.418250E00
      vertex -3.451329E00 1.962904E00 -4.371226E00
      vertex -4.664471E00 0.000000E00 -3.621463E00
    endloop
  endfacet
  facet normal 5.257311E-01 0.000000E00 8.506508E-01
    outer loop
      vertex -3.375243E00 1.687621E00 -4.418250E00
      vertex -4.664471E00 0.000000E00 -3.621463E00
      vertex -4.418250E00 0.000000E00 -3.773636E00
    endloop
  endfacet
  facet normal -6.881909E-01 5.877852E-01 4.253254E-01
    outer loop
      vertex -1.687621E00 2.730629E00 -1.043007E00
      vertex -5.461257E00 2.730629E00 -7.148879E00
      vertex -7.148879E00 0.000000E00 -6.105871E00
    endloop
  endfacet
  facet normal -6.881909E-01 5.877852E-01 4.253254E-01
    outer loop
      vertex -1.687621E00 2.730629E00 -1.043007E00
      vertex -7.148879E00 0.000000E00 -6.105871E00
      vertex -3.574439E00 0.000000E00 -3.223070E-01
    endloop
  endfacet
  facet normal 2.628655E-01 9.510565E-01 -1.624599E-01
    outer loop
      vertex -5.461257E00 2.730629E00 -7.148879E00
      vertex -1.687621E00 2.730629E00 -1.043007E00
      vertex 2.086015E00 1.687621E00 -1.043007E00
    endloop
  endfacet
  facet normal 2.628655E-01 9.510565E-01 -1.624599E-01
    outer loop
      vertex -5.461257E00 2.730629E00 -7.148879E00
      vertex 2.086015E00 1.687621E00 -1.043007E00
      vertex -2.730629E00 1.687621E00 -8.836500E00
    endloop
  endfacet
  facet normal 2.628656E-01 -9.510565E-01 -1.624599E-01
    outer loop
      vertex 3.485356E00 1.043007E00 8.370053E00
      vertex 1.687621E00 1.043007E00 5.461257E00
      vertex 3.375243E00 1.687621E00 4.418250E00
    endloop
  endfacet
  facet normal 2.628656E-01 -9.510565E-01 -1.624599E-01
    outer loop
      vertex 3.485356E00 1.043007E00 8.370053E00
      vertex 3.375243E00 1.687621E00 4.418250E00
      vertex 5.172977E00 1.687621E00 7.327045E00
    endloop
  endfacet
  facet normal -6.881910E-01 -5.877853E-01 4.253254E-01
    outer loop
      vertex 5.172977E00 1.687621E00 7.327045E00
      vertex 3.375243E00 1.687621E00 4.418250E00
      vertex 4.418250E00 0.000000E00 3.773636E00
    endloop
  endfacet
  facet normal -6.881910E-01 -5.877853E-01 4.253254E-01
    outer loop
      vertex 5.172977E00 1.687621E00 7.327045E00
      vertex 4.418250E00 0.000000E00 3.773636E00
      vertex 6.215984E00 0.000000E00 6.682432E00
    endloop
  endfacet
  facet normal -8.506508E-01 0.000000E00 5.257311E-01
    outer loop
      vertex -4.454173E-01 -1.213142E00 -3.896746E00
      vertex -4.454173E-01 1.213142E00 -3.896746E00
      vertex -1.488425E00 1.213142E00 -5.584367E00
    endloop
  endfacet
  facet normal -8.506508E-01 0.000000E00 5.257311E-01
    outer loop
      vertex -4.454173E-01 -1.213142E00 -3.896746E00
      vertex -1.488425E00 1.213142E00 -5.584367E00
      vertex -1.488425E00 -1.213142E00 -5.584367E00
    endloop
  endfacet
  facet normal 6.881910E-01 -5.877852E-01 -4.253254E-01
    outer loop
      vertex 1.687621E00 -2.730629E00 1.043007E00
      vertex 3.574439E00 0.000000E00 3.223070E-01
      vertex 7.148879E00 0.000000E00 6.105871E00
    endloop
  endfacet
  facet normal 6.881910E-01 -5.877852E-01 -4.253254E-01
    outer loop
      vertex 1.687621E00 -2.730629E00 1.043007E00
      vertex 7.148879E00 0.000000E00 6.105871E00
      vertex 5.461257E00 -2.730629E00 7.148879E00
    endloop
  endfacet
  facet normal 8.506508E-01 0.000000E00 -5.257311E-01
    outer loop
      vertex -2.730629E00 1.687621E00 -8.836500E00
      vertex 2.086015E00 1.687621E00 -1.043007E00
      vertex 5.215037E-01 0.000000E00 -3.574439E00
    endloop
  endfacet
  facet normal -3.568221E-01 0.000000E00 -9.341723E-01
    outer loop
      vertex -1.687621E00 2.730629E00 -1.043007E00
      vertex -3.574439E00 0.000000E00 -3.223070E-01
      vertex -8.836500E00 -2.730629E00 1.687621E00
    endloop
  endfacet
  facet normal -3.568221E-01 0.000000E00 -9.341723E-01
    outer loop
      vertex -1.687621E00 2.730629E00 -1.043007E00
      vertex -8.836500E00 -2.730629E00 1.687621E00
      vertex -8.836500E00 2.730629E00 1.687621E00
    endloop
  endfacet
  facet normal -6.881909E-01 -5.877853E-01 4.253254E-01
    outer loop
      vertex 2.408322E00 1.962904E00 2.683605E00
      vertex 3.621463E00 0.000000E00 1.933842E00
      vertex 4.664471E00 0.000000E00 3.621463E00
    endloop
  endfacet
  facet normal -6.881909E-01 -5.877853E-01 4.253254E-01
    outer loop
      vertex 2.408322E00 1.962904E00 2.683605E00
      vertex 4.664471E00 0.000000E00 3.621463E00
      vertex 3.451329E00 1.962904E00 4.371226E00
    endloop
  endfacet
  facet normal 6.881909E-01 -5.877853E-01 -4.253254E-01
    outer loop
      vertex -2.408322E00 1.962904E00 -2.683605E00
      vertex -3.621463E00 0.000000E00 -1.933842E00
      vertex -4.664471E00 0.000000E00 -3.621463E00
    endloop
  endfacet
  facet normal 6.881909E-01 -5.877853E-01 -4.253254E-01
    outer loop
      vertex -2.408322E00 1.962904E00 -2.683605E00
      vertex -4.664471E00 0.000000E00 -3.621463E00
      vertex -3.451329E00 1.962904E00 -4.371226E00
    endloop
  endfacet
  facet normal -2.628655E-01 -9.510565E-01 1.624599E-01
    outer loop
      vertex -4.454173E-01 1.213142E00 -3.896746E00
      vertex -2.408322E00 1.962904E00 -2.683605E00
      vertex -3.451329E00 1.962904E00 -4.371226E00
    endloop
  endfacet
  facet normal -2.628655E-01 -9.510565E-01 1.624599E-01
    outer loop
      vertex -4.454173E-01 1.213142E00 -3.896746E00
      vertex -3.451329E00 1.962904E00 -4.371226E00
      vertex -1.488425E00 1.213142E00 -5.584367E00
    endloop
  endfacet
  facet normal 9.341723E-01 0.000000E00 -3.568221E-01
    outer loop
      vertex -4.418250E00 0.000000E00 3.773636E00
      vertex -4.324202E00 0.000000E00 4.019856E00
      vertex -5.508282E00 -1.915880E00 9.198970E-01
    endloop
  endfacet
  facet normal 9.341723E-01 0.000000E00 -3.568221E-01
    outer loop
      vertex -4.418250E00 0.000000E00 3.773636E00
      vertex -5.508282E00 -1.915880E00 9.198970E-01
      vertex -5.461257E00 -1.687621E00 1.043007E00
    endloop
  endfacet
  facet normal 2.628656E-01 9.510565E-01 -1.624599E-01
    outer loop
      vertex 5.172977E00 -1.687621E00 7.327045E00
      vertex 3.375243E00 -1.687621E00 4.418250E00
      vertex 1.687621E00 -1.043007E00 5.461257E00
    endloop
  endfacet
  facet normal 2.628656E-01 9.510565E-01 -1.624599E-01
    outer loop
      vertex 5.172977E00 -1.687621E00 7.327045E00
      vertex 1.687621E00 -1.043007E00 5.461257E00
      vertex 3.485356E00 -1.043007E00 8.370053E00
    endloop
  endfacet
  facet normal 9.341723E-01 0.000000E00 -3.568221E-01
    outer loop
      vertex -5.461257E00 1.687621E00 1.043007E00
      vertex -5.508282E00 1.915880E00 9.198970E-01
      vertex -4.324202E00 0.000000E00 4.019856E00
    endloop
  endfacet
  facet normal 9.341723E-01 0.000000E00 -3.568221E-01
    outer loop
      vertex -5.461257E00 1.687621E00 1.043007E00
      vertex -4.324202E00 0.000000E00 4.019856E00
      vertex -4.418250E00 0.000000E00 3.773636E00
    endloop
  endfacet
  facet normal -5.257311E-01 0.000000E00 -8.506508E-01
    outer loop
      vertex -3.485356E00 1.043007E00 -8.370053E00
      vertex -2.730629E00 1.687621E00 -8.836500E00
      vertex -2.730629E00 -1.687621E00 -8.836500E00
    endloop
  endfacet
  facet normal -5.257311E-01 0.000000E00 -8.506508E-01
    outer loop
      vertex -3.485356E00 1.043007E00 -8.370053E00
      vertex -2.730629E00 -1.687621E00 -8.836500E00
      vertex -3.485356E00 -1.043007E00 -8.370053E00
    endloop
  endfacet
  facet normal -5.257311E-01 0.000000E00 -8.506508E-01
    outer loop
      vertex -5.172977E00 -1.687621E00 -7.327045E00
      vertex -5.461257E00 -2.730629E00 -7.148879E00
      vertex -7.148879E00 0.000000E00 -6.105871E00
    endloop
  endfacet
  facet normal -5.257311E-01 0.000000E00 -8.506508E-01
    outer loop
      vertex -5.172977E00 -1.687621E00 -7.327045E00
      vertex -7.148879E00 0.000000E00 -6.105871E00
      vertex -6.215984E00 0.000000E00 -6.682432E00
    endloop
  endfacet
  facet normal -5.257311E-01 0.000000E00 -8.506508E-01
    outer loop
      vertex -5.172977E00 1.687621E00 -7.327045E00
      vertex -5.461257E00 2.730629E00 -7.148879E00
      vertex -2.730629E00 1.687621E00 -8.836500E00
    endloop
  endfacet
  facet normal -5.257311E-01 0.000000E00 -8.506508E-01
    outer loop
      vertex -5.172977E00 1.687621E00 -7.327045E00
      vertex -2.730629E00 1.687621E00 -8.836500E00
      vertex -3.485356E00 1.043007E00 -8.370053E00
    endloop
  endfacet
  facet normal 2.628655E-01 9.510565E-01 -1.624599E-01
    outer loop
      vertex 2.408322E00 -1.962904E00 2.683605E00
      vertex 4.454173E-01 -1.213142E00 3.896746E00
      vertex 1.488425E00 -1.213142E00 5.584367E00
    endloop
  endfacet
  facet normal 2.628655E-01 9.510565E-01 -1.624599E-01
    outer loop
      vertex 2.408322E00 -1.962904E00 2.683605E00
      vertex 1.488425E00 -1.213142E00 5.584367E00
      vertex 3.451329E00 -1.962904E00 4.371226E00
    endloop
  endfacet
  facet normal 1.784110E-01 -8.660254E-01 4.670862E-01
    outer loop
      vertex -1.687621E00 -2.730629E00 -1.043007E00
      vertex -2.086015E00 -1.687621E00 1.043007E00
      vertex -8.836500E00 -2.730629E00 1.687621E00
    endloop
  endfacet
  facet normal 6.881910E-01 5.877853E-01 -4.253254E-01
    outer loop
      vertex -6.215984E00 0.000000E00 -6.682432E00
      vertex -4.418250E00 0.000000E00 -3.773636E00
      vertex -3.375243E00 -1.687621E00 -4.418250E00
    endloop
  endfacet
  facet normal 6.881910E-01 5.877853E-01 -4.253254E-01
    outer loop
      vertex -6.215984E00 0.000000E00 -6.682432E00
      vertex -3.375243E00 -1.687621E00 -4.418250E00
      vertex -5.172977E00 -1.687621E00 -7.327045E00
    endloop
  endfacet
  facet normal -2.628656E-01 9.510565E-01 1.624599E-01
    outer loop
      vertex -5.172977E00 -1.687621E00 -7.327045E00
      vertex -3.375243E00 -1.687621E00 -4.418250E00
      vertex -1.687621E00 -1.043007E00 -5.461257E00
    endloop
  endfacet
  facet normal -2.628656E-01 9.510565E-01 1.624599E-01
    outer loop
      vertex -5.172977E00 -1.687621E00 -7.327045E00
      vertex -1.687621E00 -1.043007E00 -5.461257E00
      vertex -3.485356E00 -1.043007E00 -8.370053E00
    endloop
  endfacet
  facet normal -8.506508E-01 0.000000E00 5.257311E-01
    outer loop
      vertex -2.086015E00 -1.687621E00 1.043007E00
      vertex 2.730629E00 -1.687621E00 8.836500E00
      vertex 2.730629E00 1.687621E00 8.836500E00
    endloop
  endfacet
  facet normal -8.506508E-01 0.000000E00 5.257311E-01
    outer loop
      vertex -2.086015E00 -1.687621E00 1.043007E00
      vertex 2.730629E00 1.687621E00 8.836500E00
      vertex -5.215037E-01 0.000000E00 3.574439E00
    endloop
  endfacet
  facet normal -2.628656E-01 -9.510565E-01 1.624599E-01
    outer loop
      vertex -3.485356E00 1.043007E00 -8.370053E00
      vertex -1.687621E00 1.043007E00 -5.461257E00
      vertex -3.375243E00 1.687621E00 -4.418250E00
    endloop
  endfacet
  facet normal -2.628656E-01 -9.510565E-01 1.624599E-01
    outer loop
      vertex -3.485356E00 1.043007E00 -8.370053E00
      vertex -3.375243E00 1.687621E00 -4.418250E00
      vertex -5.172977E00 1.687621E00 -7.327045E00
    endloop
  endfacet
  facet normal -9.341723E-01 0.000000E00 3.568221E-01
    outer loop
      vertex -4.465274E00 -1.915880E00 5.215037E-01
      vertex -3.281195E00 0.000000E00 3.621463E00
      vertex -4.465274E00 1.915880E00 5.215037E-01
    endloop
  endfacet
  facet normal -2.628655E-01 9.510565E-01 1.624599E-01
    outer loop
      vertex 5.461257E00 2.730629E00 7.148879E00
      vertex 1.687621E00 2.730629E00 1.043007E00
      vertex -2.086015E00 1.687621E00 1.043007E00
    endloop
  endfacet
  facet normal -2.628655E-01 9.510565E-01 1.624599E-01
    outer loop
      vertex 5.461257E00 2.730629E00 7.148879E00
      vertex -2.086015E00 1.687621E00 1.043007E00
      vertex 2.730629E00 1.687621E00 8.836500E00
    endloop
  endfacet
  facet normal 5.257311E-01 0.000000E00 8.506508E-01
    outer loop
      vertex -3.375243E00 -1.687621E00 -4.418250E00
      vertex -3.451329E00 -1.962904E00 -4.371226E00
      vertex -1.488425E00 -1.213142E00 -5.584367E00
    endloop
  endfacet
  facet normal 5.257311E-01 0.000000E00 8.506508E-01
    outer loop
      vertex -3.375243E00 -1.687621E00 -4.418250E00
      vertex -1.488425E00 -1.213142E00 -5.584367E00
      vertex -1.687621E00 -1.043007E00 -5.461257E00
    endloop
  endfacet
  facet normal -9.341723E-01 0.000000E00 3.568221E-01
    outer loop
      vertex 5.461257E00 1.687621E00 -1.043007E00
      vertex 5.508282E00 1.915880E00 -9.198970E-01
      vertex 4.324202E00 0.000000E00 -4.019856E00
    endloop
  endfacet
  facet normal -9.341723E-01 0.000000E00 3.568221E-01
    outer loop
      vertex 5.461257E00 1.687621E00 -1.043007E00
      vertex 4.324202E00 0.000000E00 -4.019856E00
      vertex 4.418250E00 0.000000E00 -3.773636E00
    endloop
  endfacet
  facet normal 3.568221E-01 0.000000E00 9.341724E-01
    outer loop
      vertex 8.836500E00 -2.730629E00 -1.687621E00
      vertex 8.836500E00 2.730629E00 -1.687621E00
      vertex 3.574439E00 0.000000E00 3.223070E-01
    endloop
  endfacet
  facet normal 3.568221E-01 0.000000E00 9.341724E-01
    outer loop
      vertex 8.836500E00 -2.730629E00 -1.687621E00
      vertex 3.574439E00 0.000000E00 3.223070E-01
      vertex 1.687621E00 -2.730629E00 1.043007E00
    endloop
  endfacet
  facet normal -1.784111E-01 8.660254E-01 -4.670862E-01
    outer loop
      vertex -4.324202E00 0.000000E00 4.019856E00
      vertex -3.281195E00 0.000000E00 3.621463E00
      vertex -4.465274E00 -1.915880E00 5.215037E-01
    endloop
  endfacet
  facet normal -1.784111E-01 8.660254E-01 -4.670862E-01
    outer loop
      vertex -4.324202E00 0.000000E00 4.019856E00
      vertex -4.465274E00 -1.915880E00 5.215037E-01
      vertex -5.508282E00 -1.915880E00 9.198970E-01
    endloop
  endfacet
  facet normal 1.784111E-01 -8.660254E-01 4.670862E-01
    outer loop
      vertex 5.461257E00 1.687621E00 -1.043007E00
      vertex 4.418250E00 0.000000E00 -3.773636E00
      vertex 7.578621E00 0.000000E00 -4.980790E00
    endloop
  endfacet
  facet normal 1.784111E-01 -8.660254E-01 4.670862E-01
    outer loop
      vertex 5.461257E00 1.687621E00 -1.043007E00
      vertex 7.578621E00 0.000000E00 -4.980790E00
      vertex 8.621629E00 1.687621E00 -2.250162E00
    endloop
  endfacet
  facet normal -8.506508E-01 0.000000E00 5.257311E-01
    outer loop
      vertex -5.215037E-01 0.000000E00 3.574439E00
      vertex 2.730629E00 1.687621E00 8.836500E00
      vertex -2.086015E00 1.687621E00 1.043007E00
    endloop
  endfacet
  facet normal -3.568221E-01 0.000000E00 -9.341723E-01
    outer loop
      vertex 5.508282E00 -1.915880E00 -9.198970E-01
      vertex 4.465274E00 -1.915880E00 -5.215037E-01
      vertex 4.465274E00 1.915880E00 -5.215037E-01
    endloop
  endfacet
  facet normal -3.568221E-01 0.000000E00 -9.341723E-01
    outer loop
      vertex 5.508282E00 -1.915880E00 -9.198970E-01
      vertex 4.465274E00 1.915880E00 -5.215037E-01
      vertex 5.508282E00 1.915880E00 -9.198970E-01
    endloop
  endfacet
  facet normal -5.257311E-01 0.000000E00 -8.506508E-01
    outer loop
      vertex 1.687621E00 -1.043007E00 5.461257E00
      vertex 1.488425E00 -1.213142E00 5.584367E00
      vertex 1.488425E00 1.213142E00 5.584367E00
    endloop
  endfacet
  facet normal -5.257311E-01 0.000000E00 -8.506508E-01
    outer loop
      vertex 1.687621E00 -1.043007E00 5.461257E00
      vertex 1.488425E00 1.213142E00 5.584367E00
      vertex 1.687621E00 1.043007E00 5.461257E00
    endloop
  endfacet
  facet normal 8.506508E-01 0.000000E00 -5.257311E-01
    outer loop
      vertex 5.215037E-01 0.000000E00 -3.574439E00
      vertex 2.086015E00 -1.687621E00 -1.043007E00
      vertex -2.730629E00 -1.687621E00 -8.836500E00
    endloop
  endfacet
  facet normal 8.506508E-01 0.000000E00 -5.257311E-01
    outer loop
      vertex 5.215037E-01 0.000000E00 -3.574439E00
      vertex -2.730629E00 -1.687621E00 -8.836500E00
      vertex -2.730629E00 1.687621E00 -8.836500E00
    endloop
  endfacet
  facet normal -1.784110E-01 -8.660254E-01 -4.670862E-01
    outer loop
      vertex 7.148879E00 0.000000E00 -6.105871E00
      vertex 8.836500E00 -2.730629E00 -1.687621E00
      vertex 2.086015E00 -1.687621E00 -1.043007E00
    endloop
  endfacet
  facet normal -1.784110E-01 -8.660254E-01 -4.670862E-01
    outer loop
      vertex 7.148879E00 0.000000E00 -6.105871E00
      vertex 2.086015E00 -1.687621E00 -1.043007E00
      vertex 5.215037E-01 0.000000E00 -3.574439E00
    endloop
  endfacet
  facet normal -9.341723E-01 0.000000E00 3.568221E-01
    outer loop
      vertex 5.461257E00 -1.687621E00 -1.043007E00
      vertex 5.508282E00 -1.915880E00 -9.198970E-01
      vertex 5.508282E00 1.915880E00 -9.198970E-01
    endloop
  endfacet
  facet normal -9.341723E-01 0.000000E00 3.568221E-01
    outer loop
      vertex 5.461257E00 -1.687621E00 -1.043007E00
      vertex 5.508282E00 1.915880E00 -9.198970E-01
      vertex 5.461257E00 1.687621E00 -1.043007E00
    endloop
  endfacet
  facet normal -6.881909E-01 5.877853E-01 4.253254E-01
    outer loop
      vertex 3.621463E00 0.000000E00 1.933842E00
      vertex 2.408322E00 -1.962904E00 2.683605E00
      vertex 3.451329E00 -1.962904E00 4.371226E00
    endloop
  endfacet
  facet normal -6.881909E-01 5.877853E-01 4.253254E-01
    outer loop
      vertex 3.621463E00 0.000000E00 1.933842E00
      vertex 3.451329E00 -1.962904E00 4.371226E00
      vertex 4.664471E00 0.000000E00 3.621463E00
    endloop
  endfacet
  facet normal 5.257311E-01 0.000000E00 8.506508E-01
    outer loop
      vertex 5.172977E00 -1.687621E00 7.327045E00
      vertex 5.461257E00 -2.730629E00 7.148879E00
      vertex 7.148879E00 0.000000E00 6.105871E00
    endloop
  endfacet
  facet normal 5.257311E-01 0.000000E00 8.506508E-01
    outer loop
      vertex 5.172977E00 -1.687621E00 7.327045E00
      vertex 7.148879E00 0.000000E00 6.105871E00
      vertex 6.215984E00 0.000000E00 6.682432E00
    endloop
  endfacet
  facet normal -5.257311E-01 0.000000E00 -8.506508E-01
    outer loop
      vertex 3.375243E00 -1.687621E00 4.418250E00
      vertex 3.451329E00 -1.962904E00 4.371226E00
      vertex 1.488425E00 -1.213142E00 5.584367E00
    endloop
  endfacet
  facet normal -5.257311E-01 0.000000E00 -8.506508E-01
    outer loop
      vertex 3.375243E00 -1.687621E00 4.418250E00
      vertex 1.488425E00 -1.213142E00 5.584367E00
      vertex 1.687621E00 -1.043007E00 5.461257E00
    endloop
  endfacet
  facet normal 1.784111E-01 -8.660254E-01 4.670862E-01
    outer loop
      vertex -8.836500E00 -2.730629E00 1.687621E00
      vertex -2.086015E00 -1.687621E00 1.043007E00
      vertex -5.215037E-01 0.000000E00 3.574439E00
    endloop
  endfacet
  facet normal 1.784111E-01 -8.660254E-01 4.670862E-01
    outer loop
      vertex -8.836500E00 -2.730629E00 1.687621E00
      vertex -5.215037E-01 0.000000E00 3.574439E00
      vertex -7.148879E00 0.000000E00 6.105871E00
    endloop
  endfacet
  facet normal -6.881909E-01 -5.877852E-01 4.253254E-01
    outer loop
      vertex -5.461257E00 -2.730629E00 -7.148879E00
      vertex -1.687621E00 -2.730629E00 -1.043007E00
      vertex -3.574439E00 0.000000E00 -3.223070E-01
    endloop
  endfacet
  facet normal -6.881909E-01 -5.877852E-01 4.253254E-01
    outer loop
      vertex -5.461257E00 -2.730629E00 -7.148879E00
      vertex -3.574439E00 0.000000E00 -3.223070E-01
      vertex -7.148879E00 0.000000E00 -6.105871E00
    endloop
  endfacet
  facet normal 9.341723E-01 0.000000E00 -3.568221E-01
    outer loop
      vertex -5.461257E00 -1.687621E00 1.043007E00
      vertex -5.508282E00 -1.915880E00 9.198970E-01
      vertex -5.508282E00 1.915880E00 9.198970E-01
    endloop
  endfacet
  facet normal 9.341723E-01 0.000000E00 -3.568221E-01
    outer loop
      vertex -5.461257E00 -1.687621E00 1.043007E00
      vertex -5.508282E00 1.915880E00 9.198970E-01
      vertex -5.461257E00 1.687621E00 1.043007E00
    endloop
  endfacet
  facet normal -2.446443E-01 -8.851314E-01 3.958428E-01
    outer loop
      vertex -1.687621E00 -2.730629E00 -1.043007E00
      vertex 1.687621E00 -2.730629E00 1.043007E00
      vertex -2.086015E00 -1.687621E00 1.043007E00
    endloop
  endfacet
  facet normal -1.784110E-01 8.660254E-01 -4.670862E-01
    outer loop
      vertex 8.836500E00 2.730629E00 -1.687621E00
      vertex 2.086015E00 1.687621E00 -1.043007E00
      vertex 1.687621E00 2.730629E00 1.043007E00
    endloop
  endfacet
  facet normal -1.784111E-01 8.660254E-01 -4.670862E-01
    outer loop
      vertex 5.215037E-01 0.000000E00 -3.574439E00
      vertex 2.086015E00 1.687621E00 -1.043007E00
      vertex 8.836500E00 2.730629E00 -1.687621E00
    endloop
  endfacet
  facet normal -1.784111E-01 8.660254E-01 -4.670862E-01
    outer loop
      vertex 5.215037E-01 0.000000E00 -3.574439E00
      vertex 8.836500E00 2.730629E00 -1.687621E00
      vertex 7.148879E00 0.000000E00 -6.105871E00
    endloop
  endfacet
  facet normal 9.341724E-01 0.000000E00 -3.568221E-01
    outer loop
      vertex 8.621629E00 -1.687621E00 -2.250162E00
      vertex 8.836500E00 -2.730629E00 -1.687621E00
      vertex 7.148879E00 0.000000E00 -6.105871E00
    endloop
  endfacet
  facet normal 9.341724E-01 0.000000E00 -3.568221E-01
    outer loop
      vertex 8.621629E00 -1.687621E00 -2.250162E00
      vertex 7.148879E00 0.000000E00 -6.105871E00
      vertex 7.578621E00 0.000000E00 -4.980790E00
    endloop
  endfacet
  facet normal -8.506508E-01 0.000000E00 5.257311E-01
    outer loop
      vertex -3.485356E00 -1.043007E00 -8.370053E00
      vertex -1.687621E00 -1.043007E00 -5.461257E00
      vertex -1.687621E00 1.043007E00 -5.461257E00
    endloop
  endfacet
  facet normal -8.506508E-01 0.000000E00 5.257311E-01
    outer loop
      vertex -3.485356E00 -1.043007E00 -8.370053E00
      vertex -1.687621E00 1.043007E00 -5.461257E00
      vertex -3.485356E00 1.043007E00 -8.370053E00
    endloop
  endfacet
  facet normal -2.446443E-01 8.851314E-01 3.958428E-01
    outer loop
      vertex -1.687621E00 2.730629E00 -1.043007E00
      vertex -2.086015E00 1.687621E00 1.043007E00
      vertex 1.687621E00 2.730629E00 1.043007E00
    endloop
  endfacet
  facet normal -9.341723E-01 0.000000E00 3.568221E-01
    outer loop
      vertex 4.418250E00 0.000000E00 -3.773636E00
      vertex 4.324202E00 0.000000E00 -4.019856E00
      vertex 5.508282E00 -1.915880E00 -9.198970E-01
    endloop
  endfacet
  facet normal -9.341723E-01 0.000000E00 3.568221E-01
    outer loop
      vertex 4.418250E00 0.000000E00 -3.773636E00
      vertex 5.508282E00 -1.915880E00 -9.198970E-01
      vertex 5.461257E00 -1.687621E00 -1.043007E00
    endloop
  endfacet
  facet normal 8.506508E-01 0.000000E00 -5.257311E-01
    outer loop
      vertex 4.454173E-01 -1.213142E00 3.896746E00
      vertex 4.454173E-01 1.213142E00 3.896746E00
      vertex 1.488425E00 1.213142E00 5.584367E00
    endloop
  endfacet
  facet normal 8.506508E-01 0.000000E00 -5.257311E-01
    outer loop
      vertex 4.454173E-01 -1.213142E00 3.896746E00
      vertex 1.488425E00 1.213142E00 5.584367E00
      vertex 1.488425E00 -1.213142E00 5.584367E00
    endloop
  endfacet
  facet normal -5.257311E-01 0.000000E00 -8.506508E-01
    outer loop
      vertex 3.375243E00 1.687621E00 4.418250E00
      vertex 3.451329E00 1.962904E00 4.371226E00
      vertex 4.664471E00 0.000000E00 3.621463E00
    endloop
  endfacet
  facet normal -5.257311E-01 0.000000E00 -8.506508E-01
    outer loop
      vertex 3.375243E00 1.687621E00 4.418250E00
      vertex 4.664471E00 0.000000E00 3.621463E00
      vertex 4.418250E00 0.000000E00 3.773636E00
    endloop
  endfacet
endsolid vcg
