solid vcg
  facet normal -8.660254E-01 -4.670861E-01 -1.784110E-01
    outer loop
      vertex 1.585645E02 2.086015E00 -5.461257E00
      vertex 1.585645E02 0.000000E00 0.000000E00
      vertex 9.799828E01 9.799828E01 3.743201E01
    endloop
  endfacet
  facet normal -8.660254E-01 -4.670861E-01 -1.784110E-01
    outer loop
      vertex 1.585645E02 2.086015E00 -5.461257E00
      vertex 9.799828E01 9.799828E01 3.743201E01
      vertex 9.799828E01 1.000843E02 3.197076E01
    endloop
  endfacet
  facet normal 0.000000E00 9.341724E-01 3.568221E-01
    outer loop
      vertex -1.013735E02 1.034595E02 3.951803E01
      vertex -1.013735E02 1.026628E02 4.160404E01
      vertex 1.013735E02 1.026628E02 4.160404E01
    endloop
  endfacet
  facet normal 0.000000E00 9.341724E-01 3.568221E-01
    outer loop
      vertex -1.013735E02 1.034595E02 3.951803E01
      vertex 1.013735E02 1.026628E02 4.160404E01
      vertex 1.013735E02 1.034595E02 3.951803E01
    endloop
  endfacet
  facet normal 0.000000E00 -3.568221E-01 9.341723E-01
    outer loop
      vertex 1.299690E02 -7.967867E-01 2.086015E00
      vertex 1.585645E02 -7.967867E-01 2.086015E00
      vertex 9.799828E01 9.720150E01 3.951803E01
    endloop
  endfacet
  facet normal 0.000000E00 -3.568221E-01 9.341723E-01
    outer loop
      vertex 1.299690E02 -7.967867E-01 2.086015E00
      vertex 9.799828E01 9.720150E01 3.951803E01
      vertex 8.370052E01 7.406724E01 3.068153E01
    endloop
  endfacet
  facet normal 0.000000E00 -3.568221E-01 9.341724E-01
    outer loop
      vertex -6.056627E01 -1.593613E02 -5.848026E01
      vertex -6.394151E01 -1.648226E02 -6.056627E01
      vertex 6.394151E01 -1.648226E02 -6.056627E01
    endloop
  endfacet
  facet normal 0.000000E00 -3.568221E-01 9.341724E-01
    outer loop
      vertex -6.056627E01 -1.593613E02 -5.848026E01
      vertex 6.394151E01 -1.648226E02 -6.056627E01
      vertex 6.056627E01 -1.593613E02 -5.848026E01
    endloop
  endfacet
  facet normal 0.000000E00 3.568221E-01 -9.341723E-01
    outer loop
      vertex -9.799828E01 1.000843E02 3.197076E01
      vertex -1.585645E02 2.086015E00 -5.461257E00
      vertex -1.653150E02 2.086015E00 -5.461257E00
    endloop
  endfacet
  facet normal 0.000000E00 3.568221E-01 -9.341723E-01
    outer loop
      vertex -9.799828E01 1.000843E02 3.197076E01
      vertex -1.653150E02 2.086015E00 -5.461257E00
      vertex -1.013735E02 1.055456E02 3.405677E01
    endloop
  endfacet
  facet normal 0.000000E00 -9.341723E-01 -3.568221E-01
    outer loop
      vertex -6.394151E01 -1.648226E02 -6.056627E01
      vertex -6.394151E01 -1.640258E02 -6.265229E01
      vertex 6.394151E01 -1.640258E02 -6.265229E01
    endloop
  endfacet
  facet normal 0.000000E00 -9.341723E-01 -3.568221E-01
    outer loop
      vertex -6.394151E01 -1.648226E02 -6.056627E01
      vertex 6.394151E01 -1.640258E02 -6.265229E01
      vertex 6.394151E01 -1.648226E02 -6.056627E01
    endloop
  endfacet
  facet normal 0.000000E00 3.568221E-01 -9.341723E-01
    outer loop
      vertex 8.370052E01 7.486403E01 2.859551E01
      vertex 9.799828E01 9.799828E01 3.743201E01
      vertex 1.585645E02 0.000000E00 0.000000E00
    endloop
  endfacet
  facet normal 0.000000E00 3.568221E-01 -9.341723E-01
    outer loop
      vertex 8.370052E01 7.486403E01 2.859551E01
      vertex 1.585645E02 0.000000E00 0.000000E00
      vertex 1.299690E02 0.000000E00 0.000000E00
    endloop
  endfacet
  facet normal 8.660254E-01 -4.670862E-01 -1.784111E-01
    outer loop
      vertex -1.299690E02 -7.967867E-01 2.086015E00
      vertex -1.299690E02 0.000000E00 0.000000E00
      vertex -8.370052E01 7.486403E01 2.859551E01
    endloop
  endfacet
  facet normal 8.660254E-01 -4.670862E-01 -1.784111E-01
    outer loop
      vertex -1.299690E02 -7.967867E-01 2.086015E00
      vertex -8.370052E01 7.486403E01 2.859551E01
      vertex -8.370052E01 7.406724E01 3.068153E01
    endloop
  endfacet
  facet normal 0.000000E00 9.341723E-01 3.568221E-01
    outer loop
      vertex 4.626851E01 -1.362271E02 -4.964376E01
      vertex 4.626851E01 -1.354303E02 -5.172977E01
      vertex -4.626851E01 -1.354303E02 -5.172977E01
    endloop
  endfacet
  facet normal 0.000000E00 9.341723E-01 3.568221E-01
    outer loop
      vertex 4.626851E01 -1.362271E02 -4.964376E01
      vertex -4.626851E01 -1.354303E02 -5.172977E01
      vertex -4.626851E01 -1.362271E02 -4.964376E01
    endloop
  endfacet
  facet normal 0.000000E00 3.568221E-01 -9.341723E-01
    outer loop
      vertex -1.653150E02 2.086015E00 -5.461257E00
      vertex -1.585645E02 2.086015E00 -5.461257E00
      vertex -6.056627E01 -1.564785E02 -6.602753E01
    endloop
  endfacet
  facet normal 0.000000E00 3.568221E-01 -9.341723E-01
    outer loop
      vertex -1.653150E02 2.086015E00 -5.461257E00
      vertex -6.056627E01 -1.564785E02 -6.602753E01
      vertex -6.394151E01 -1.619398E02 -6.811354E01
    endloop
  endfacet
  facet normal 0.000000E00 3.568221E-01 -9.341723E-01
    outer loop
      vertex 4.626851E01 -1.354303E02 -5.172977E01
      vertex 6.056627E01 -1.585645E02 -6.056627E01
      vertex -6.056627E01 -1.585645E02 -6.056627E01
    endloop
  endfacet
  facet normal 0.000000E00 3.568221E-01 -9.341723E-01
    outer loop
      vertex 4.626851E01 -1.354303E02 -5.172977E01
      vertex -6.056627E01 -1.585645E02 -6.056627E01
      vertex -4.626851E01 -1.354303E02 -5.172977E01
    endloop
  endfacet
  facet normal 8.660254E-01 -4.670862E-01 -1.784111E-01
    outer loop
      vertex 6.394151E01 -1.640258E02 -6.265229E01
      vertex 6.394151E01 -1.619398E02 -6.811354E01
      vertex 1.653150E02 2.086015E00 -5.461257E00
    endloop
  endfacet
  facet normal 8.660254E-01 -4.670862E-01 -1.784111E-01
    outer loop
      vertex 6.394151E01 -1.640258E02 -6.265229E01
      vertex 1.653150E02 2.086015E00 -5.461257E00
      vertex 1.653150E02 0.000000E00 0.000000E00
    endloop
  endfacet
  facet normal 0.000000E00 3.568221E-01 -9.341723E-01
    outer loop
      vertex -1.585645E02 0.000000E00 0.000000E00
      vertex -1.299690E02 0.000000E00 0.000000E00
      vertex -4.626851E01 -1.354303E02 -5.172977E01
    endloop
  endfacet
  facet normal 0.000000E00 3.568221E-01 -9.341723E-01
    outer loop
      vertex -1.585645E02 0.000000E00 0.000000E00
      vertex -4.626851E01 -1.354303E02 -5.172977E01
      vertex -6.056627E01 -1.585645E02 -6.056627E01
    endloop
  endfacet
  facet normal 0.000000E00 -3.568221E-01 9.341723E-01
    outer loop
      vertex 9.799828E01 9.720150E01 3.951803E01
      vertex -9.799828E01 9.720150E01 3.951803E01
      vertex -8.370052E01 7.406724E01 3.068153E01
    endloop
  endfacet
  facet normal 0.000000E00 -3.568221E-01 9.341723E-01
    outer loop
      vertex 9.799828E01 9.720150E01 3.951803E01
      vertex -8.370052E01 7.406724E01 3.068153E01
      vertex 8.370052E01 7.406724E01 3.068153E01
    endloop
  endfacet
  facet normal 0.000000E00 -3.568221E-01 9.341724E-01
    outer loop
      vertex -9.799828E01 9.720150E01 3.951803E01
      vertex -1.013735E02 1.026628E02 4.160404E01
      vertex -1.653150E02 -7.967867E-01 2.086015E00
    endloop
  endfacet
  facet normal 0.000000E00 -3.568221E-01 9.341724E-01
    outer loop
      vertex -9.799828E01 9.720150E01 3.951803E01
      vertex -1.653150E02 -7.967867E-01 2.086015E00
      vertex -1.585645E02 -7.967867E-01 2.086015E00
    endloop
  endfacet
  facet normal 0.000000E00 -3.568221E-01 9.341723E-01
    outer loop
      vertex 6.056627E01 -1.593613E02 -5.848026E01
      vertex 6.394151E01 -1.648226E02 -6.056627E01
      vertex 1.653150E02 -7.967867E-01 2.086015E00
    endloop
  endfacet
  facet normal 0.000000E00 -3.568221E-01 9.341723E-01
    outer loop
      vertex 6.056627E01 -1.593613E02 -5.848026E01
      vertex 1.653150E02 -7.967867E-01 2.086015E00
      vertex 1.585645E02 -7.967867E-01 2.086015E00
    endloop
  endfacet
  facet normal 0.000000E00 9.341723E-01 3.568221E-01
    outer loop
      vertex 1.013735E02 1.034595E02 3.951803E01
      vertex 1.013735E02 1.055456E02 3.405677E01
      vertex -1.013735E02 1.055456E02 3.405677E01
    endloop
  endfacet
  facet normal 0.000000E00 9.341723E-01 3.568221E-01
    outer loop
      vertex 1.013735E02 1.034595E02 3.951803E01
      vertex -1.013735E02 1.055456E02 3.405677E01
      vertex -1.013735E02 1.034595E02 3.951803E01
    endloop
  endfacet
  facet normal -8.660254E-01 4.670862E-01 1.784110E-01
    outer loop
      vertex 1.585645E02 0.000000E00 0.000000E00
      vertex 1.585645E02 2.086015E00 -5.461257E00
      vertex 6.056627E01 -1.564785E02 -6.602753E01
    endloop
  endfacet
  facet normal -8.660254E-01 4.670862E-01 1.784110E-01
    outer loop
      vertex 1.585645E02 0.000000E00 0.000000E00
      vertex 6.056627E01 -1.564785E02 -6.602753E01
      vertex 6.056627E01 -1.585645E02 -6.056627E01
    endloop
  endfacet
  facet normal 8.660254E-01 4.670862E-01 1.784110E-01
    outer loop
      vertex -6.056627E01 -1.585645E02 -6.056627E01
      vertex -6.056627E01 -1.564785E02 -6.602753E01
      vertex -1.585645E02 2.086015E00 -5.461257E00
    endloop
  endfacet
  facet normal 8.660254E-01 4.670862E-01 1.784110E-01
    outer loop
      vertex -6.056627E01 -1.585645E02 -6.056627E01
      vertex -1.585645E02 2.086015E00 -5.461257E00
      vertex -1.585645E02 0.000000E00 0.000000E00
    endloop
  endfacet
  facet normal 0.000000E00 3.568221E-01 -9.341723E-01
    outer loop
      vertex 1.013735E02 1.055456E02 3.405677E01
      vertex 9.799828E01 1.000843E02 3.197076E01
      vertex -9.799828E01 1.000843E02 3.197076E01
    endloop
  endfacet
  facet normal 0.000000E00 3.568221E-01 -9.341723E-01
    outer loop
      vertex 1.013735E02 1.055456E02 3.405677E01
      vertex -9.799828E01 1.000843E02 3.197076E01
      vertex -1.013735E02 1.055456E02 3.405677E01
    endloop
  endfacet
  facet normal 0.000000E00 -3.568221E-01 9.341723E-01
    outer loop
      vertex 6.056627E01 -1.593613E02 -5.848026E01
      vertex 1.585645E02 -7.967867E-01 2.086015E00
      vertex 1.299690E02 -7.967867E-01 2.086015E00
    endloop
  endfacet
  facet normal 0.000000E00 -3.568221E-01 9.341723E-01
    outer loop
      vertex 6.056627E01 -1.593613E02 -5.848026E01
      vertex 1.299690E02 -7.967867E-01 2.086015E00
      vertex 4.626851E01 -1.362271E02 -4.964376E01
    endloop
  endfacet
  facet normal 0.000000E00 -3.568221E-01 9.341723E-01
    outer loop
      vertex -1.585645E02 -7.967867E-01 2.086015E00
      vertex -1.653150E02 -7.967867E-01 2.086015E00
      vertex -6.394151E01 -1.648226E02 -6.056627E01
    endloop
  endfacet
  facet normal 0.000000E00 -3.568221E-01 9.341723E-01
    outer loop
      vertex -1.585645E02 -7.967867E-01 2.086015E00
      vertex -6.394151E01 -1.648226E02 -6.056627E01
      vertex -6.056627E01 -1.593613E02 -5.848026E01
    endloop
  endfacet
  facet normal 0.000000E00 -9.341724E-01 -3.568221E-01
    outer loop
      vertex -6.394151E01 -1.619398E02 -6.811354E01
      vertex 6.394151E01 -1.619398E02 -6.811354E01
      vertex 6.394151E01 -1.640258E02 -6.265229E01
    endloop
  endfacet
  facet normal 0.000000E00 -9.341724E-01 -3.568221E-01
    outer loop
      vertex -6.394151E01 -1.619398E02 -6.811354E01
      vertex 6.394151E01 -1.640258E02 -6.265229E01
      vertex -6.394151E01 -1.640258E02 -6.265229E01
    endloop
  endfacet
  facet normal -8.660254E-01 4.670862E-01 1.784110E-01
    outer loop
      vertex -1.013735E02 1.026628E02 4.160404E01
      vertex -1.013735E02 1.034595E02 3.951803E01
      vertex -1.653150E02 0.000000E00 0.000000E00
    endloop
  endfacet
  facet normal -8.660254E-01 4.670862E-01 1.784110E-01
    outer loop
      vertex -1.013735E02 1.026628E02 4.160404E01
      vertex -1.653150E02 0.000000E00 0.000000E00
      vertex -1.653150E02 -7.967867E-01 2.086015E00
    endloop
  endfacet
  facet normal -8.660254E-01 4.670862E-01 1.784111E-01
    outer loop
      vertex 4.626851E01 -1.354303E02 -5.172977E01
      vertex 4.626851E01 -1.362271E02 -4.964376E01
      vertex 1.299690E02 -7.967867E-01 2.086015E00
    endloop
  endfacet
  facet normal -8.660254E-01 4.670862E-01 1.784111E-01
    outer loop
      vertex 4.626851E01 -1.354303E02 -5.172977E01
      vertex 1.299690E02 -7.967867E-01 2.086015E00
      vertex 1.299690E02 0.000000E00 0.000000E00
    endloop
  endfacet
  facet normal 0.000000E00 -9.341723E-01 -3.568221E-01
    outer loop
      vertex -9.799828E01 9.799828E01 3.743201E01
      vertex -9.799828E01 1.000843E02 3.197076E01
      vertex 9.799828E01 1.000843E02 3.197076E01
    endloop
  endfacet
  facet normal 0.000000E00 -9.341723E-01 -3.568221E-01
    outer loop
      vertex -9.799828E01 9.799828E01 3.743201E01
      vertex 9.799828E01 1.000843E02 3.197076E01
      vertex 9.799828E01 9.799828E01 3.743201E01
    endloop
  endfacet
  facet normal 8.660254E-01 -4.670862E-01 -1.784111E-01
    outer loop
      vertex 1.653150E02 0.000000E00 0.000000E00
      vertex 1.653150E02 -7.967867E-01 2.086015E00
      vertex 6.394151E01 -1.648226E02 -6.056627E01
    endloop
  endfacet
  facet normal 8.660254E-01 -4.670862E-01 -1.784111E-01
    outer loop
      vertex 1.653150E02 0.000000E00 0.000000E00
      vertex 6.394151E01 -1.648226E02 -6.056627E01
      vertex 6.394151E01 -1.640258E02 -6.265229E01
    endloop
  endfacet
  facet normal 0.000000E00 -3.568221E-01 9.341723E-01
    outer loop
      vertex 9.799828E01 9.720150E01 3.951803E01
      vertex 1.013735E02 1.026628E02 4.160404E01
      vertex -1.013735E02 1.026628E02 4.160404E01
    endloop
  endfacet
  facet normal 0.000000E00 -3.568221E-01 9.341723E-01
    outer loop
      vertex 9.799828E01 9.720150E01 3.951803E01
      vertex -1.013735E02 1.026628E02 4.160404E01
      vertex -9.799828E01 9.720150E01 3.951803E01
    endloop
  endfacet
  facet normal 0.000000E00 -3.568221E-01 9.341724E-01
    outer loop
      vertex 1.585645E02 -7.967867E-01 2.086015E00
      vertex 1.653150E02 -7.967867E-01 2.086015E00
      vertex 1.013735E02 1.026628E02 4.160404E01
    endloop
  endfacet
  facet normal 0.000000E00 -3.568221E-01 9.341724E-01
    outer loop
      vertex 1.585645E02 -7.967867E-01 2.086015E00
      vertex 1.013735E02 1.026628E02 4.160404E01
      vertex 9.799828E01 9.720150E01 3.951803E01
    endloop
  endfacet
  facet normal 0.000000E00 3.568221E-01 -9.341723E-01
    outer loop
      vertex 1.585645E02 2.086015E00 -5.461257E00
      vertex 9.799828E01 1.000843E02 3.197076E01
      vertex 1.013735E02 1.055456E02 3.405677E01
    endloop
  endfacet
  facet normal 0.000000E00 3.568221E-01 -9.341723E-01
    outer loop
      vertex 1.585645E02 2.086015E00 -5.461257E00
      vertex 1.013735E02 1.055456E02 3.405677E01
      vertex 1.653150E02 2.086015E00 -5.461257E00
    endloop
  endfacet
  facet normal 0.000000E00 3.568221E-01 -9.341723E-01
    outer loop
      vertex -1.299690E02 0.000000E00 0.000000E00
      vertex -1.585645E02 0.000000E00 0.000000E00
      vertex -9.799828E01 9.799828E01 3.743201E01
    endloop
  endfacet
  facet normal 0.000000E00 3.568221E-01 -9.341723E-01
    outer loop
      vertex -1.299690E02 0.000000E00 0.000000E00
      vertex -9.799828E01 9.799828E01 3.743201E01
      vertex -8.370052E01 7.486403E01 2.859551E01
    endloop
  endfacet
  facet normal 0.000000E00 -3.568221E-01 9.341723E-01
    outer loop
      vertex -4.626851E01 -1.362271E02 -4.964376E01
      vertex -6.056627E01 -1.593613E02 -5.848026E01
      vertex 6.056627E01 -1.593613E02 -5.848026E01
    endloop
  endfacet
  facet normal 0.000000E00 -3.568221E-01 9.341723E-01
    outer loop
      vertex -4.626851E01 -1.362271E02 -4.964376E01
      vertex 6.056627E01 -1.593613E02 -5.848026E01
      vertex 4.626851E01 -1.362271E02 -4.964376E01
    endloop
  endfacet
  facet normal 0.000000E00 3.568221E-01 -9.341723E-01
    outer loop
      vertex 9.799828E01 9.799828E01 3.743201E01
      vertex 8.370052E01 7.486403E01 2.859551E01
      vertex -8.370052E01 7.486403E01 2.859551E01
    endloop
  endfacet
  facet normal 0.000000E00 3.568221E-01 -9.341723E-01
    outer loop
      vertex 9.799828E01 9.799828E01 3.743201E01
      vertex -8.370052E01 7.486403E01 2.859551E01
      vertex -9.799828E01 9.799828E01 3.743201E01
    endloop
  endfacet
  facet normal -8.660254E-01 -4.670862E-01 -1.784111E-01
    outer loop
      vertex -1.653150E02 0.000000E00 0.000000E00
      vertex -1.653150E02 2.086015E00 -5.461257E00
      vertex -6.394151E01 -1.619398E02 -6.811354E01
    endloop
  endfacet
  facet normal -8.660254E-01 -4.670862E-01 -1.784111E-01
    outer loop
      vertex -1.653150E02 0.000000E00 0.000000E00
      vertex -6.394151E01 -1.619398E02 -6.811354E01
      vertex -6.394151E01 -1.640258E02 -6.265229E01
    endloop
  endfacet
  facet normal 0.000000E00 3.568221E-01 -9.341723E-01
    outer loop
      vertex 6.394151E01 -1.619398E02 -6.811354E01
      vertex 6.056627E01 -1.564785E02 -6.602753E01
      vertex 1.585645E02 2.086015E00 -5.461257E00
    endloop
  endfacet
  facet normal 0.000000E00 3.568221E-01 -9.341723E-01
    outer loop
      vertex 6.394151E01 -1.619398E02 -6.811354E01
      vertex 1.585645E02 2.086015E00 -5.461257E00
      vertex 1.653150E02 2.086015E00 -5.461257E00
    endloop
  endfacet
  facet normal 0.000000E00 3.568221E-01 -9.341723E-01
    outer loop
      vertex 6.056627E01 -1.585645E02 -6.056627E01
      vertex 4.626851E01 -1.354303E02 -5.172977E01
      vertex 1.299690E02 0.000000E00 0.000000E00
    endloop
  endfacet
  facet normal 0.000000E00 3.568221E-01 -9.341723E-01
    outer loop
      vertex 6.056627E01 -1.585645E02 -6.056627E01
      vertex 1.299690E02 0.000000E00 0.000000E00
      vertex 1.585645E02 0.000000E00 0.000000E00
    endloop
  endfacet
  facet normal 8.660254E-01 4.670862E-01 1.784110E-01
    outer loop
      vertex 1.653150E02 -7.967867E-01 2.086015E00
      vertex 1.653150E02 0.000000E00 0.000000E00
      vertex 1.013735E02 1.034595E02 3.951803E01
    endloop
  endfacet
  facet normal 8.660254E-01 4.670862E-01 1.784110E-01
    outer loop
      vertex 1.653150E02 -7.967867E-01 2.086015E00
      vertex 1.013735E02 1.034595E02 3.951803E01
      vertex 1.013735E02 1.026628E02 4.160404E01
    endloop
  endfacet
  facet normal 0.000000E00 9.341723E-01 3.568221E-01
    outer loop
      vertex -6.056627E01 -1.564785E02 -6.602753E01
      vertex -6.056627E01 -1.585645E02 -6.056627E01
      vertex 6.056627E01 -1.585645E02 -6.056627E01
    endloop
  endfacet
  facet normal 0.000000E00 9.341723E-01 3.568221E-01
    outer loop
      vertex -6.056627E01 -1.564785E02 -6.602753E01
      vertex 6.056627E01 -1.585645E02 -6.056627E01
      vertex 6.056627E01 -1.564785E02 -6.602753E01
    endloop
  endfacet
  facet normal -8.660254E-01 -4.670862E-01 -1.784111E-01
    outer loop
      vertex -6.394151E01 -1.640258E02 -6.265229E01
      vertex -6.394151E01 -1.648226E02 -6.056627E01
      vertex -1.653150E02 -7.967867E-01 2.086015E00
    endloop
  endfacet
  facet normal -8.660254E-01 -4.670862E-01 -1.784111E-01
    outer loop
      vertex -6.394151E01 -1.640258E02 -6.265229E01
      vertex -1.653150E02 -7.967867E-01 2.086015E00
      vertex -1.653150E02 0.000000E00 0.000000E00
    endloop
  endfacet
  facet normal -8.660254E-01 4.670862E-01 1.784111E-01
    outer loop
      vertex -1.013735E02 1.055456E02 3.405677E01
      vertex -1.653150E02 2.086015E00 -5.461257E00
      vertex -1.653150E02 0.000000E00 0.000000E00
    endloop
  endfacet
  facet normal -8.660254E-01 4.670862E-01 1.784111E-01
    outer loop
      vertex -1.013735E02 1.055456E02 3.405677E01
      vertex -1.653150E02 0.000000E00 0.000000E00
      vertex -1.013735E02 1.034595E02 3.951803E01
    endloop
  endfacet
  facet normal 0.000000E00 -9.341724E-01 -3.568221E-01
    outer loop
      vertex 8.370052E01 7.486403E01 2.859551E01
      vertex 8.370052E01 7.406724E01 3.068153E01
      vertex -8.370052E01 7.406724E01 3.068153E01
    endloop
  endfacet
  facet normal 0.000000E00 -9.341724E-01 -3.568221E-01
    outer loop
      vertex 8.370052E01 7.486403E01 2.859551E01
      vertex -8.370052E01 7.406724E01 3.068153E01
      vertex -8.370052E01 7.486403E01 2.859551E01
    endloop
  endfacet
  facet normal 8.660254E-01 4.670862E-01 1.784111E-01
    outer loop
      vertex -1.299690E02 0.000000E00 0.000000E00
      vertex -1.299690E02 -7.967867E-01 2.086015E00
      vertex -4.626851E01 -1.362271E02 -4.964376E01
    endloop
  endfacet
  facet normal 8.660254E-01 4.670862E-01 1.784111E-01
    outer loop
      vertex -1.299690E02 0.000000E00 0.000000E00
      vertex -4.626851E01 -1.362271E02 -4.964376E01
      vertex -4.626851E01 -1.354303E02 -5.172977E01
    endloop
  endfacet
  facet normal 0.000000E00 -3.568221E-01 9.341723E-01
    outer loop
      vertex -1.585645E02 -7.967867E-01 2.086015E00
      vertex -6.056627E01 -1.593613E02 -5.848026E01
      vertex -4.626851E01 -1.362271E02 -4.964376E01
    endloop
  endfacet
  facet normal 0.000000E00 -3.568221E-01 9.341723E-01
    outer loop
      vertex -1.585645E02 -7.967867E-01 2.086015E00
      vertex -4.626851E01 -1.362271E02 -4.964376E01
      vertex -1.299690E02 -7.967867E-01 2.086015E00
    endloop
  endfacet
  facet normal 0.000000E00 3.568221E-01 -9.341723E-01
    outer loop
      vertex -6.056627E01 -1.564785E02 -6.602753E01
      vertex 6.056627E01 -1.564785E02 -6.602753E01
      vertex 6.394151E01 -1.619398E02 -6.811354E01
    endloop
  endfacet
  facet normal 0.000000E00 3.568221E-01 -9.341723E-01
    outer loop
      vertex -6.056627E01 -1.564785E02 -6.602753E01
      vertex 6.394151E01 -1.619398E02 -6.811354E01
      vertex -6.394151E01 -1.619398E02 -6.811354E01
    endloop
  endfacet
  facet normal 8.660254E-01 4.670862E-01 1.784111E-01
    outer loop
      vertex 1.653150E02 2.086015E00 -5.461257E00
      vertex 1.013735E02 1.055456E02 3.405677E01
      vertex 1.013735E02 1.034595E02 3.951803E01
    endloop
  endfacet
  facet normal 8.660254E-01 4.670862E-01 1.784111E-01
    outer loop
      vertex 1.653150E02 2.086015E00 -5.461257E00
      vertex 1.013735E02 1.034595E02 3.951803E01
      vertex 1.653150E02 0.000000E00 0.000000E00
    endloop
  endfacet
  facet normal -8.660254E-01 -4.670862E-01 -1.784111E-01
    outer loop
      vertex 8.370052E01 7.406724E01 3.068153E01
      vertex 8.370052E01 7.486403E01 2.859551E01
      vertex 1.299690E02 0.000000E00 0.000000E00
    endloop
  endfacet
  facet normal -8.660254E-01 -4.670862E-01 -1.784111E-01
    outer loop
      vertex 8.370052E01 7.406724E01 3.068153E01
      vertex 1.299690E02 0.000000E00 0.000000E00
      vertex 1.299690E02 -7.967867E-01 2.086015E00
    endloop
  endfacet
  facet normal 8.660254E-01 -4.670861E-01 -1.784110E-01
    outer loop
      vertex -9.799828E01 1.000843E02 3.197076E01
      vertex -9.799828E01 9.799828E01 3.743201E01
      vertex -1.585645E02 0.000000E00 0.000000E00
    endloop
  endfacet
  facet normal 8.660254E-01 -4.670861E-01 -1.784110E-01
    outer loop
      vertex -9.799828E01 1.000843E02 3.197076E01
      vertex -1.585645E02 0.000000E00 0.000000E00
      vertex -1.585645E02 2.086015E00 -5.461257E00
    endloop
  endfacet
  facet normal 0.000000E00 -3.568221E-01 9.341723E-01
    outer loop
      vertex -8.370052E01 7.406724E01 3.068153E01
      vertex -9.799828E01 9.720150E01 3.951803E01
      vertex -1.585645E02 -7.967867E-01 2.086015E00
    endloop
  endfacet
  facet normal 0.000000E00 -3.568221E-01 9.341723E-01
    outer loop
      vertex -8.370052E01 7.406724E01 3.068153E01
      vertex -1.585645E02 -7.967867E-01 2.086015E00
      vertex -1.299690E02 -7.967867E-01 2.086015E00
    endloop
  endfacet
endsolid vcg
