solid vcg
  facet normal 0.000000E00 0.000000E00 1.000000E00
    outer loop
      vertex 7.421093E00 5.020804E00 1.687621E00
      vertex 7.327045E00 5.172977E00 1.687621E00
      vertex 4.994811E00 3.731577E00 1.687621E00
    endloop
  endfacet
  facet normal 0.000000E00 0.000000E00 1.000000E00
    outer loop
      vertex 7.421093E00 5.020804E00 1.687621E00
      vertex 4.994811E00 3.731577E00 1.687621E00
      vertex 5.088858E00 3.579404E00 1.687621E00
    endloop
  endfacet
  facet normal 9.510164E-01 1.546421E-01 2.676818E-01
    outer loop
      vertex 1.365314E01 1.365314E01 -3.223070E00
      vertex 1.325475E01 1.052412E01 0.000000E00
      vertex 1.397545E01 9.358004E00 -1.886818E00
    endloop
  endfacet
  facet normal -5.000000E-01 8.090170E-01 -3.090170E-01
    outer loop
      vertex 6.682432E00 6.215984E00 0.000000E00
      vertex 6.711494E00 6.168961E00 -1.701343E-01
      vertex 4.379259E00 4.727560E00 -1.701343E-01
    endloop
  endfacet
  facet normal -5.000000E-01 8.090170E-01 -3.090170E-01
    outer loop
      vertex 6.682432E00 6.215984E00 0.000000E00
      vertex 4.379259E00 4.727560E00 -1.701343E-01
      vertex 4.350196E00 4.774584E00 0.000000E00
    endloop
  endfacet
  facet normal -8.506508E-01 -5.257311E-01 0.000000E00
    outer loop
      vertex 3.638901E01 2.650950E01 -1.052412E01
      vertex 3.634198E01 2.658559E01 -1.079940E01
      vertex 3.755513E01 2.462268E01 -1.004964E01
    endloop
  endfacet
  facet normal -8.506508E-01 -5.257311E-01 0.000000E00
    outer loop
      vertex 3.638901E01 2.650950E01 -1.052412E01
      vertex 3.755513E01 2.462268E01 -1.004964E01
      vertex 3.743201E01 2.482188E01 -9.879507E00
    endloop
  endfacet
  facet normal 5.808924E-01 -7.603980E-01 -2.904462E-01
    outer loop
      vertex 5.461257E00 1.499525E00 5.505661E-01
      vertex 4.664471E00 1.441401E00 -8.908346E-01
      vertex 5.461257E00 1.687621E00 5.812481E-02
    endloop
  endfacet
  facet normal -6.065876E-01 6.065876E-01 -5.139093E-01
    outer loop
      vertex 3.638901E01 3.911964E01 0.000000E00
      vertex 2.837529E01 2.837529E01 -3.223070E00
      vertex 1.365314E01 1.365314E01 -3.223070E00
    endloop
  endfacet
  facet normal -6.065876E-01 6.065876E-01 -5.139093E-01
    outer loop
      vertex 3.638901E01 3.911964E01 0.000000E00
      vertex 1.365314E01 1.365314E01 -3.223070E00
      vertex 1.116873E01 1.389936E01 0.000000E00
    endloop
  endfacet
  facet normal 4.876375E-01 -8.730462E-01 0.000000E00
    outer loop
      vertex 3.470139E01 2.963852E01 1.687621E00
      vertex 2.941829E01 2.668767E01 0.000000E00
      vertex 3.470139E01 2.963852E01 -1.687621E00
    endloop
  endfacet
  facet normal 5.000000E-01 -8.090170E-01 -3.090170E-01
    outer loop
      vertex 8.370053E00 3.485356E00 7.027388E-01
      vertex 8.399116E00 3.438332E00 8.728731E-01
      vertex 6.066880E00 1.996931E00 8.728731E-01
    endloop
  endfacet
  facet normal 5.000000E-01 -8.090170E-01 -3.090170E-01
    outer loop
      vertex 8.370053E00 3.485356E00 7.027388E-01
      vertex 6.066880E00 1.996931E00 8.728731E-01
      vertex 6.037818E00 2.043955E00 7.027388E-01
    endloop
  endfacet
  facet normal 8.506508E-01 5.257311E-01 0.000000E00
    outer loop
      vertex 4.034081E01 2.661961E01 -7.793492E00
      vertex 4.080725E01 2.586489E01 -7.148879E00
      vertex 4.080725E01 2.586489E01 -1.052412E01
    endloop
  endfacet
  facet normal 8.506508E-01 5.257311E-01 0.000000E00
    outer loop
      vertex 4.034081E01 2.661961E01 -7.793492E00
      vertex 4.080725E01 2.586489E01 -1.052412E01
      vertex 4.034081E01 2.661961E01 -9.879507E00
    endloop
  endfacet
  facet normal 7.608452E-01 -3.804226E-01 5.257311E-01
    outer loop
      vertex 3.807663E01 3.028314E01 -8.836500E00
      vertex 3.911964E01 2.859551E01 -1.156713E01
      vertex 4.152796E01 3.080464E01 -1.345395E01
    endloop
  endfacet
  facet normal -1.350454E-01 9.256148E-01 3.535534E-01
    outer loop
      vertex 4.172029E00 4.324202E00 3.983934E-01
      vertex 3.773636E00 4.418250E00 0.000000E00
      vertex 3.773636E00 4.230154E00 4.924413E-01
    endloop
  endfacet
  facet normal 8.506508E-01 5.257311E-01 0.000000E00
    outer loop
      vertex 3.929780E01 2.830724E01 -1.052412E01
      vertex 3.911964E01 2.859551E01 -1.156713E01
      vertex 3.807663E01 3.028314E01 -8.836500E00
    endloop
  endfacet
  facet normal 8.506508E-01 5.257311E-01 0.000000E00
    outer loop
      vertex 3.929780E01 2.830724E01 -1.052412E01
      vertex 3.807663E01 3.028314E01 -8.836500E00
      vertex 3.865319E01 2.935024E01 -8.836500E00
    endloop
  endfacet
  facet normal 6.065876E-01 -6.065876E-01 -5.139093E-01
    outer loop
      vertex 1.325475E01 1.052412E01 0.000000E00
      vertex 1.365314E01 1.365314E01 -3.223070E00
      vertex 2.837529E01 2.837529E01 -3.223070E00
    endloop
  endfacet
  facet normal 6.065876E-01 -6.065876E-01 -5.139093E-01
    outer loop
      vertex 1.325475E01 1.052412E01 0.000000E00
      vertex 2.837529E01 2.837529E01 -3.223070E00
      vertex 2.941829E01 2.668767E01 0.000000E00
    endloop
  endfacet
  facet normal 0.000000E00 7.071068E-01 7.071068E-01
    outer loop
      vertex 3.773636E00 4.230154E00 4.924413E-01
      vertex 4.077981E00 3.925809E00 7.967867E-01
      vertex 4.172029E00 4.324202E00 3.983934E-01
    endloop
  endfacet
  facet normal 4.253254E-01 -6.881909E-01 -5.877852E-01
    outer loop
      vertex 3.929780E01 2.830724E01 -7.148879E00
      vertex 3.638901E01 2.650950E01 -7.148879E00
      vertex 3.574439E01 2.755251E01 -8.836500E00
    endloop
  endfacet
  facet normal 4.253254E-01 -6.881909E-01 -5.877852E-01
    outer loop
      vertex 3.929780E01 2.830724E01 -7.148879E00
      vertex 3.574439E01 2.755251E01 -8.836500E00
      vertex 3.865319E01 2.935024E01 -8.836500E00
    endloop
  endfacet
  facet normal -8.506508E-01 -5.257311E-01 0.000000E00
    outer loop
      vertex 7.148879E00 5.461257E00 2.730629E00
      vertex 6.105871E00 7.148879E00 0.000000E00
      vertex 6.711494E00 6.168961E00 1.701343E-01
    endloop
  endfacet
  facet normal -8.506508E-01 -5.257311E-01 0.000000E00
    outer loop
      vertex 7.148879E00 5.461257E00 2.730629E00
      vertex 6.711494E00 6.168961E00 1.701343E-01
      vertex 6.787580E00 6.045850E00 2.752830E-01
    endloop
  endfacet
  facet normal -8.506508E-01 -5.257311E-01 0.000000E00
    outer loop
      vertex 7.148879E00 5.461257E00 2.730629E00
      vertex 6.787580E00 6.045850E00 2.752830E-01
      vertex 7.221897E00 5.343112E00 1.412338E00
    endloop
  endfacet
  facet normal -8.506508E-01 -5.257311E-01 0.000000E00
    outer loop
      vertex 7.148879E00 5.461257E00 2.730629E00
      vertex 7.221897E00 5.343112E00 1.412338E00
      vertex 7.250959E00 5.296088E00 1.582472E00
    endloop
  endfacet
  facet normal 5.602485E-01 -5.316094E-01 6.352269E-01
    outer loop
      vertex 3.333607E01 2.034857E01 -9.764430E00
      vertex 3.204684E01 2.243459E01 -6.881628E00
      vertex 1.397545E01 9.358004E00 -1.886818E00
    endloop
  endfacet
  facet normal 5.602485E-01 -5.316094E-01 6.352269E-01
    outer loop
      vertex 3.333607E01 2.034857E01 -9.764430E00
      vertex 1.397545E01 9.358004E00 -1.886818E00
      vertex 1.526468E01 7.271989E00 -4.769619E00
    endloop
  endfacet
  facet normal -6.626505E-01 4.969879E-01 5.602654E-01
    outer loop
      vertex 1.116873E01 1.389936E01 0.000000E00
      vertex 6.105871E00 7.148879E00 0.000000E00
      vertex 7.148879E00 5.461257E00 2.730629E00
    endloop
  endfacet
  facet normal -5.000000E-01 8.090170E-01 -3.090170E-01
    outer loop
      vertex 4.350196E00 4.774584E00 0.000000E00
      vertex 4.379259E00 4.727560E00 -1.701343E-01
      vertex 3.773636E00 4.418250E00 0.000000E00
    endloop
  endfacet
  facet normal 3.090170E-01 -5.000000E-01 8.090170E-01
    outer loop
      vertex 6.037818E00 2.043955E00 1.043007E00
      vertex 5.961731E00 2.167066E00 1.148156E00
      vertex 5.461257E00 1.687621E00 1.043007E00
    endloop
  endfacet
  facet normal -3.090170E-01 5.000000E-01 8.090170E-01
    outer loop
      vertex 7.327045E00 5.172977E00 1.687621E00
      vertex 7.250959E00 5.296088E00 1.582472E00
      vertex 4.918724E00 3.854687E00 1.582472E00
    endloop
  endfacet
  facet normal -3.090170E-01 5.000000E-01 8.090170E-01
    outer loop
      vertex 7.327045E00 5.172977E00 1.687621E00
      vertex 4.918724E00 3.854687E00 1.582472E00
      vertex 4.994811E00 3.731577E00 1.687621E00
    endloop
  endfacet
  facet normal -3.090170E-01 5.000000E-01 -8.090170E-01
    outer loop
      vertex 6.711494E00 6.168961E00 -1.701343E-01
      vertex 6.787580E00 6.045850E00 -2.752830E-01
      vertex 4.455345E00 4.604450E00 -2.752830E-01
    endloop
  endfacet
  facet normal -3.090170E-01 5.000000E-01 -8.090170E-01
    outer loop
      vertex 6.711494E00 6.168961E00 -1.701343E-01
      vertex 4.455345E00 4.604450E00 -2.752830E-01
      vertex 4.379259E00 4.727560E00 -1.701343E-01
    endloop
  endfacet
  facet normal -8.506508E-01 -5.257311E-01 0.000000E00
    outer loop
      vertex 6.105871E00 7.148879E00 0.000000E00
      vertex 7.148879E00 5.461257E00 -2.730629E00
      vertex 7.250959E00 5.296088E00 -1.582472E00
    endloop
  endfacet
  facet normal -8.506508E-01 -5.257311E-01 0.000000E00
    outer loop
      vertex 6.105871E00 7.148879E00 0.000000E00
      vertex 7.250959E00 5.296088E00 -1.582472E00
      vertex 7.221897E00 5.343112E00 -1.412338E00
    endloop
  endfacet
  facet normal -8.506508E-01 -5.257311E-01 0.000000E00
    outer loop
      vertex 6.105871E00 7.148879E00 0.000000E00
      vertex 7.221897E00 5.343112E00 -1.412338E00
      vertex 6.787580E00 6.045850E00 -2.752830E-01
    endloop
  endfacet
  facet normal -8.506508E-01 -5.257311E-01 0.000000E00
    outer loop
      vertex 6.105871E00 7.148879E00 0.000000E00
      vertex 6.787580E00 6.045850E00 -2.752830E-01
      vertex 6.711494E00 6.168961E00 -1.701343E-01
    endloop
  endfacet
  facet normal 2.791697E-01 -2.825499E-01 -9.177308E-01
    outer loop
      vertex 2.837529E01 2.837529E01 -3.223070E00
      vertex 3.574439E01 3.405677E01 -2.730629E00
      vertex 3.470139E01 2.963852E01 -1.687621E00
    endloop
  endfacet
  facet normal 5.000000E-01 -8.090170E-01 3.090170E-01
    outer loop
      vertex 6.066880E00 1.996931E00 8.728731E-01
      vertex 6.037818E00 2.043955E00 1.043007E00
      vertex 5.461257E00 1.687621E00 1.043007E00
    endloop
  endfacet
  facet normal 8.506508E-01 5.257311E-01 0.000000E00
    outer loop
      vertex 3.586750E01 2.357968E01 -7.623359E00
      vertex 3.586750E01 2.357968E01 -1.004964E01
      vertex 3.465436E01 2.554258E01 -1.079940E01
    endloop
  endfacet
  facet normal 8.506508E-01 5.257311E-01 0.000000E00
    outer loop
      vertex 3.586750E01 2.357968E01 -7.623359E00
      vertex 3.465436E01 2.554258E01 -1.079940E01
      vertex 3.390460E01 2.675572E01 -8.836500E00
    endloop
  endfacet
  facet normal 8.506508E-01 5.257311E-01 0.000000E00
    outer loop
      vertex 3.586750E01 2.357968E01 -7.623359E00
      vertex 3.390460E01 2.675572E01 -8.836500E00
      vertex 3.465436E01 2.554258E01 -6.873596E00
    endloop
  endfacet
  facet normal -1.624599E-01 2.628656E-01 9.510565E-01
    outer loop
      vertex 3.929780E01 2.830724E01 -1.052412E01
      vertex 3.638901E01 2.650950E01 -1.052412E01
      vertex 3.743201E01 2.482188E01 -9.879507E00
    endloop
  endfacet
  facet normal -1.624599E-01 2.628656E-01 9.510565E-01
    outer loop
      vertex 3.929780E01 2.830724E01 -1.052412E01
      vertex 3.743201E01 2.482188E01 -9.879507E00
      vertex 4.034081E01 2.661961E01 -9.879507E00
    endloop
  endfacet
  facet normal -4.253254E-01 6.881909E-01 -5.877853E-01
    outer loop
      vertex 6.787580E00 6.045850E00 -2.752830E-01
      vertex 7.221897E00 5.343112E00 -1.412338E00
      vertex 4.889662E00 3.901711E00 -1.412338E00
    endloop
  endfacet
  facet normal -4.253254E-01 6.881909E-01 -5.877853E-01
    outer loop
      vertex 6.787580E00 6.045850E00 -2.752830E-01
      vertex 4.889662E00 3.901711E00 -1.412338E00
      vertex 4.455345E00 4.604450E00 -2.752830E-01
    endloop
  endfacet
  facet normal 8.975280E-02 3.428252E-02 -9.953739E-01
    outer loop
      vertex 5.156912E00 1.991967E00 -1.347353E00
      vertex 3.773636E00 2.882801E00 -1.441401E00
      vertex 4.968816E00 2.484408E00 -1.347353E00
    endloop
  endfacet
  facet normal -3.090170E-01 5.000000E-01 -8.090170E-01
    outer loop
      vertex 4.918724E00 3.854687E00 -1.582472E00
      vertex 4.994811E00 3.731577E00 -1.687621E00
      vertex 4.418250E00 3.375243E00 -1.687621E00
    endloop
  endfacet
  facet normal 8.240201E-01 -3.466252E-01 4.481538E-01
    outer loop
      vertex 3.638901E01 3.911964E01 0.000000E00
      vertex 3.574439E01 3.405677E01 -2.730629E00
      vertex 3.743201E01 3.743201E01 -3.223070E00
    endloop
  endfacet
  facet normal 7.836100E-01 -2.812405E-01 5.539486E-01
    outer loop
      vertex 4.152796E01 3.080464E01 -1.345395E01
      vertex 4.023873E01 3.289066E01 -1.057115E01
      vertex 3.807663E01 3.028314E01 -8.836500E00
    endloop
  endfacet
  facet normal 1.624599E-01 -2.628655E-01 -9.510565E-01
    outer loop
      vertex 5.867683E00 2.319238E00 -1.148156E00
      vertex 5.461257E00 1.687621E00 -1.043007E00
      vertex 5.461257E00 2.238187E00 -1.195180E00
    endloop
  endfacet
  facet normal -8.506508E-01 -5.257311E-01 0.000000E00
    outer loop
      vertex 7.148879E00 5.461257E00 -2.730629E00
      vertex 8.836500E00 2.730629E00 -1.687621E00
      vertex 8.293966E00 3.608466E00 -1.148156E00
    endloop
  endfacet
  facet normal -8.506508E-01 -5.257311E-01 0.000000E00
    outer loop
      vertex 7.148879E00 5.461257E00 -2.730629E00
      vertex 8.293966E00 3.608466E00 -1.148156E00
      vertex 8.199919E00 3.760639E00 -1.148156E00
    endloop
  endfacet
  facet normal -8.506508E-01 -5.257311E-01 0.000000E00
    outer loop
      vertex 7.148879E00 5.461257E00 -2.730629E00
      vertex 8.199919E00 3.760639E00 -1.148156E00
      vertex 7.497180E00 4.897695E00 -1.582472E00
    endloop
  endfacet
  facet normal -8.506508E-01 -5.257311E-01 0.000000E00
    outer loop
      vertex 7.148879E00 5.461257E00 -2.730629E00
      vertex 7.497180E00 4.897695E00 -1.582472E00
      vertex 7.421093E00 5.020804E00 -1.687621E00
    endloop
  endfacet
  facet normal 4.253254E-01 -6.881909E-01 -5.877853E-01
    outer loop
      vertex 3.127912E01 3.100384E01 1.962904E00
      vertex 3.052936E01 3.221698E01 0.000000E00
      vertex 3.221698E01 3.325999E01 0.000000E00
    endloop
  endfacet
  facet normal 4.253254E-01 -6.881909E-01 -5.877853E-01
    outer loop
      vertex 3.127912E01 3.100384E01 1.962904E00
      vertex 3.221698E01 3.325999E01 0.000000E00
      vertex 3.296674E01 3.204684E01 1.962904E00
    endloop
  endfacet
  facet normal -3.090170E-01 5.000000E-01 -8.090170E-01
    outer loop
      vertex 7.250959E00 5.296088E00 -1.582472E00
      vertex 7.327045E00 5.172977E00 -1.687621E00
      vertex 4.994811E00 3.731577E00 -1.687621E00
    endloop
  endfacet
  facet normal -3.090170E-01 5.000000E-01 -8.090170E-01
    outer loop
      vertex 7.250959E00 5.296088E00 -1.582472E00
      vertex 4.994811E00 3.731577E00 -1.687621E00
      vertex 4.918724E00 3.854687E00 -1.582472E00
    endloop
  endfacet
  facet normal 0.000000E00 0.000000E00 1.000000E00
    outer loop
      vertex 8.293966E00 3.608466E00 1.148156E00
      vertex 8.199919E00 3.760639E00 1.148156E00
      vertex 5.867683E00 2.319238E00 1.148156E00
    endloop
  endfacet
  facet normal 0.000000E00 0.000000E00 1.000000E00
    outer loop
      vertex 8.293966E00 3.608466E00 1.148156E00
      vertex 5.867683E00 2.319238E00 1.148156E00
      vertex 5.961731E00 2.167066E00 1.148156E00
    endloop
  endfacet
  facet normal -8.506508E-01 -5.257311E-01 0.000000E00
    outer loop
      vertex 8.836500E00 2.730629E00 -1.687621E00
      vertex 8.836500E00 2.730629E00 1.687621E00
      vertex 8.399116E00 3.438332E00 8.728731E-01
    endloop
  endfacet
  facet normal -8.506508E-01 -5.257311E-01 0.000000E00
    outer loop
      vertex 8.836500E00 2.730629E00 -1.687621E00
      vertex 8.399116E00 3.438332E00 8.728731E-01
      vertex 8.370053E00 3.485356E00 7.027388E-01
    endloop
  endfacet
  facet normal -8.506508E-01 -5.257311E-01 0.000000E00
    outer loop
      vertex 8.836500E00 2.730629E00 -1.687621E00
      vertex 8.370053E00 3.485356E00 7.027388E-01
      vertex 8.370053E00 3.485356E00 -7.027388E-01
    endloop
  endfacet
  facet normal -8.506508E-01 -5.257311E-01 0.000000E00
    outer loop
      vertex 8.836500E00 2.730629E00 -1.687621E00
      vertex 8.370053E00 3.485356E00 -7.027388E-01
      vertex 8.399116E00 3.438332E00 -8.728731E-01
    endloop
  endfacet
  facet normal -5.000000E-01 8.090170E-01 3.090170E-01
    outer loop
      vertex 7.250959E00 5.296088E00 1.582472E00
      vertex 7.221897E00 5.343112E00 1.412338E00
      vertex 4.889662E00 3.901711E00 1.412338E00
    endloop
  endfacet
  facet normal -5.000000E-01 8.090170E-01 3.090170E-01
    outer loop
      vertex 7.250959E00 5.296088E00 1.582472E00
      vertex 4.889662E00 3.901711E00 1.412338E00
      vertex 4.918724E00 3.854687E00 1.582472E00
    endloop
  endfacet
  facet normal -8.506508E-01 -5.257311E-01 0.000000E00
    outer loop
      vertex 3.574439E01 2.755251E01 -8.836500E00
      vertex 3.559222E01 2.779873E01 -8.836500E00
      vertex 3.634198E01 2.658559E01 -1.079940E01
    endloop
  endfacet
  facet normal -8.506508E-01 -5.257311E-01 0.000000E00
    outer loop
      vertex 3.574439E01 2.755251E01 -8.836500E00
      vertex 3.634198E01 2.658559E01 -1.079940E01
      vertex 3.638901E01 2.650950E01 -1.052412E01
    endloop
  endfacet
  facet normal 8.506508E-01 5.257311E-01 0.000000E00
    outer loop
      vertex 3.592256E01 3.376849E01 1.687621E00
      vertex 3.574439E01 3.405677E01 2.730629E00
      vertex 3.743201E01 3.132614E01 1.687621E00
    endloop
  endfacet
  facet normal 8.506508E-01 5.257311E-01 0.000000E00
    outer loop
      vertex 3.592256E01 3.376849E01 1.687621E00
      vertex 3.743201E01 3.132614E01 1.687621E00
      vertex 3.696556E01 3.208087E01 1.043007E00
    endloop
  endfacet
  facet normal -1.624599E-01 2.628655E-01 -9.510565E-01
    outer loop
      vertex 3.249226E01 2.904093E01 1.213142E00
      vertex 3.127912E01 3.100384E01 1.962904E00
      vertex 3.296674E01 3.204684E01 1.962904E00
    endloop
  endfacet
  facet normal -1.624599E-01 2.628655E-01 -9.510565E-01
    outer loop
      vertex 3.249226E01 2.904093E01 1.213142E00
      vertex 3.296674E01 3.204684E01 1.962904E00
      vertex 3.417988E01 3.008394E01 1.213142E00
    endloop
  endfacet
  facet normal 1.624599E-01 -2.628655E-01 -9.510565E-01
    outer loop
      vertex 3.574439E01 3.405677E01 -2.730629E00
      vertex 3.743201E01 3.132614E01 -1.687621E00
      vertex 3.470139E01 2.963852E01 -1.687621E00
    endloop
  endfacet
  facet normal 8.506508E-01 5.257311E-01 0.000000E00
    outer loop
      vertex 4.034081E01 2.661961E01 -9.879507E00
      vertex 4.080725E01 2.586489E01 -1.052412E01
      vertex 3.911964E01 2.859551E01 -1.156713E01
    endloop
  endfacet
  facet normal 8.506508E-01 5.257311E-01 0.000000E00
    outer loop
      vertex 4.034081E01 2.661961E01 -9.879507E00
      vertex 3.911964E01 2.859551E01 -1.156713E01
      vertex 3.929780E01 2.830724E01 -1.052412E01
    endloop
  endfacet
  facet normal -2.493374E-01 -4.761922E-01 8.432508E-01
    outer loop
      vertex 3.773636E00 2.882801E00 1.441401E00
      vertex 4.664471E00 1.441401E00 8.908346E-01
      vertex 4.606346E00 2.882801E00 1.687621E00
    endloop
  endfacet
  facet normal -5.257311E-01 8.506508E-01 0.000000E00
    outer loop
      vertex 4.034081E01 2.661961E01 -9.879507E00
      vertex 3.743201E01 2.482188E01 -9.879507E00
      vertex 3.743201E01 2.482188E01 -7.793492E00
    endloop
  endfacet
  facet normal -5.257311E-01 8.506508E-01 0.000000E00
    outer loop
      vertex 4.034081E01 2.661961E01 -9.879507E00
      vertex 3.743201E01 2.482188E01 -7.793492E00
      vertex 4.034081E01 2.661961E01 -7.793492E00
    endloop
  endfacet
  facet normal -6.650960E-01 4.944379E-01 -5.596235E-01
    outer loop
      vertex 7.148879E00 5.461257E00 -2.730629E00
      vertex 6.105871E00 7.148879E00 0.000000E00
      vertex 1.365314E01 1.365314E01 -3.223070E00
    endloop
  endfacet
  facet normal 2.952418E-01 -9.554225E-01 0.000000E00
    outer loop
      vertex 5.461257E00 1.687621E00 5.812481E-02
      vertex 4.664471E00 1.441401E00 -8.908346E-01
      vertex 5.461257E00 1.687621E00 -1.043007E00
    endloop
  endfacet
  facet normal 2.863938E-01 -8.075886E-01 5.155379E-01
    outer loop
      vertex 3.470139E01 2.963852E01 1.687621E00
      vertex 2.837529E01 2.837529E01 3.223070E00
      vertex 2.941829E01 2.668767E01 0.000000E00
    endloop
  endfacet
  facet normal -4.253254E-01 6.881910E-01 -5.877852E-01
    outer loop
      vertex 4.889662E00 3.901711E00 -1.412338E00
      vertex 4.418250E00 3.375243E00 -1.687621E00
      vertex 4.512298E00 3.773636E00 -1.289228E00
    endloop
  endfacet
  facet normal -8.506508E-01 -5.257311E-01 0.000000E00
    outer loop
      vertex 7.148879E00 5.461257E00 -2.730629E00
      vertex 7.421093E00 5.020804E00 -1.687621E00
      vertex 7.327045E00 5.172977E00 -1.687621E00
    endloop
  endfacet
  facet normal 8.138757E-01 -3.631873E-01 4.535431E-01
    outer loop
      vertex 1.325475E01 1.052412E01 0.000000E00
      vertex 1.221174E01 1.221174E01 3.223070E00
      vertex 8.836500E00 2.730629E00 1.687621E00
    endloop
  endfacet
  facet normal 5.000000E-01 -8.090170E-01 -3.090170E-01
    outer loop
      vertex 6.037818E00 2.043955E00 -1.043007E00
      vertex 6.066880E00 1.996931E00 -8.728731E-01
      vertex 5.461257E00 1.687621E00 -1.043007E00
    endloop
  endfacet
  facet normal -6.065876E-01 6.065876E-01 -5.139093E-01
    outer loop
      vertex 3.638901E01 3.911964E01 0.000000E00
      vertex 3.743201E01 3.743201E01 -3.223070E00
      vertex 2.837529E01 2.837529E01 -3.223070E00
    endloop
  endfacet
  facet normal -8.506508E-01 -5.257311E-01 0.000000E00
    outer loop
      vertex 7.148879E00 5.461257E00 -2.730629E00
      vertex 7.327045E00 5.172977E00 -1.687621E00
      vertex 7.250959E00 5.296088E00 -1.582472E00
    endloop
  endfacet
  facet normal -4.253254E-01 6.881909E-01 -5.877853E-01
    outer loop
      vertex 3.773636E00 4.418250E00 0.000000E00
      vertex 4.455345E00 4.604450E00 -2.752830E-01
      vertex 4.889662E00 3.901711E00 -1.412338E00
    endloop
  endfacet
  facet normal -4.253254E-01 6.881909E-01 -5.877853E-01
    outer loop
      vertex 3.773636E00 4.418250E00 0.000000E00
      vertex 4.889662E00 3.901711E00 -1.412338E00
      vertex 4.512298E00 3.773636E00 -1.289228E00
    endloop
  endfacet
  facet normal -4.253254E-01 6.881909E-01 -5.877853E-01
    outer loop
      vertex 3.773636E00 4.418250E00 0.000000E00
      vertex 4.512298E00 3.773636E00 -1.289228E00
      vertex 4.113904E00 3.867684E00 -8.908346E-01
    endloop
  endfacet
  facet normal -6.253322E-01 5.340974E-01 -5.689460E-01
    outer loop
      vertex 4.113904E00 3.867684E00 -8.908346E-01
      vertex 3.223070E00 3.773636E00 0.000000E00
      vertex 3.773636E00 4.418250E00 0.000000E00
    endloop
  endfacet
  facet normal 8.506508E-01 5.257311E-01 0.000000E00
    outer loop
      vertex 3.929780E01 2.830724E01 -7.148879E00
      vertex 3.911964E01 2.859551E01 -6.105871E00
      vertex 4.080725E01 2.586489E01 -7.148879E00
    endloop
  endfacet
  facet normal 8.506508E-01 5.257311E-01 0.000000E00
    outer loop
      vertex 3.929780E01 2.830724E01 -7.148879E00
      vertex 4.080725E01 2.586489E01 -7.148879E00
      vertex 4.034081E01 2.661961E01 -7.793492E00
    endloop
  endfacet
  facet normal -5.602486E-01 5.316093E-01 -6.352269E-01
    outer loop
      vertex 3.011300E01 2.556361E01 -7.772463E00
      vertex 4.023873E01 3.289066E01 -1.057115E01
      vertex 4.152796E01 3.080464E01 -1.345395E01
    endloop
  endfacet
  facet normal -3.090170E-01 5.000000E-01 8.090170E-01
    outer loop
      vertex 6.787580E00 6.045850E00 2.752830E-01
      vertex 6.711494E00 6.168961E00 1.701343E-01
      vertex 4.379259E00 4.727560E00 1.701343E-01
    endloop
  endfacet
  facet normal -3.090170E-01 5.000000E-01 8.090170E-01
    outer loop
      vertex 6.787580E00 6.045850E00 2.752830E-01
      vertex 4.379259E00 4.727560E00 1.701343E-01
      vertex 4.455345E00 4.604450E00 2.752830E-01
    endloop
  endfacet
  facet normal -8.506508E-01 -5.257311E-01 0.000000E00
    outer loop
      vertex 8.836500E00 2.730629E00 -1.687621E00
      vertex 8.399116E00 3.438332E00 -8.728731E-01
      vertex 8.370053E00 3.485356E00 -1.043007E00
    endloop
  endfacet
  facet normal 0.000000E00 0.000000E00 -1.000000E00
    outer loop
      vertex 7.327045E00 5.172977E00 -1.687621E00
      vertex 7.421093E00 5.020804E00 -1.687621E00
      vertex 5.088858E00 3.579404E00 -1.687621E00
    endloop
  endfacet
  facet normal 0.000000E00 0.000000E00 -1.000000E00
    outer loop
      vertex 7.327045E00 5.172977E00 -1.687621E00
      vertex 5.088858E00 3.579404E00 -1.687621E00
      vertex 4.994811E00 3.731577E00 -1.687621E00
    endloop
  endfacet
  facet normal 5.257311E-01 -8.506508E-01 0.000000E00
    outer loop
      vertex 5.461257E00 1.687621E00 -1.043007E00
      vertex 6.037818E00 2.043955E00 -7.027388E-01
      vertex 6.037818E00 2.043955E00 7.027388E-01
    endloop
  endfacet
  facet normal 5.257311E-01 -8.506508E-01 0.000000E00
    outer loop
      vertex 5.461257E00 1.687621E00 -1.043007E00
      vertex 6.037818E00 2.043955E00 7.027388E-01
      vertex 5.707478E00 1.839794E00 5.505661E-01
    endloop
  endfacet
  facet normal 5.257311E-01 -8.506508E-01 0.000000E00
    outer loop
      vertex 5.461257E00 1.687621E00 -1.043007E00
      vertex 5.707478E00 1.839794E00 5.505661E-01
      vertex 5.461257E00 1.687621E00 5.812481E-02
    endloop
  endfacet
  facet normal 0.000000E00 0.000000E00 -1.000000E00
    outer loop
      vertex 8.199919E00 3.760639E00 -1.148156E00
      vertex 8.293966E00 3.608466E00 -1.148156E00
      vertex 5.961731E00 2.167066E00 -1.148156E00
    endloop
  endfacet
  facet normal 0.000000E00 0.000000E00 -1.000000E00
    outer loop
      vertex 8.199919E00 3.760639E00 -1.148156E00
      vertex 5.961731E00 2.167066E00 -1.148156E00
      vertex 5.867683E00 2.319238E00 -1.148156E00
    endloop
  endfacet
  facet normal 7.906789E-01 -3.376602E-01 5.106980E-01
    outer loop
      vertex 1.325475E01 1.052412E01 0.000000E00
      vertex 8.836500E00 2.730629E00 1.687621E00
      vertex 1.397545E01 9.358004E00 -1.886818E00
    endloop
  endfacet
  facet normal 3.535534E-01 1.350454E-01 9.256148E-01
    outer loop
      vertex 4.910691E00 3.129022E00 1.535449E00
      vertex 4.418250E00 3.375243E00 1.687621E00
      vertex 4.606346E00 2.882801E00 1.687621E00
    endloop
  endfacet
  facet normal 0.000000E00 0.000000E00 -1.000000E00
    outer loop
      vertex 4.994811E00 3.731577E00 -1.687621E00
      vertex 5.088858E00 3.579404E00 -1.687621E00
      vertex 4.418250E00 3.375243E00 -1.687621E00
    endloop
  endfacet
  facet normal -5.257311E-01 8.506508E-01 0.000000E00
    outer loop
      vertex 3.696556E01 3.208087E01 -1.043007E00
      vertex 3.405677E01 3.028314E01 -1.043007E00
      vertex 3.405677E01 3.028314E01 1.043007E00
    endloop
  endfacet
  facet normal -5.257311E-01 8.506508E-01 0.000000E00
    outer loop
      vertex 3.696556E01 3.208087E01 -1.043007E00
      vertex 3.405677E01 3.028314E01 1.043007E00
      vertex 3.696556E01 3.208087E01 1.043007E00
    endloop
  endfacet
  facet normal 6.065876E-01 -6.065876E-01 5.139093E-01
    outer loop
      vertex 2.941829E01 2.668767E01 0.000000E00
      vertex 2.837529E01 2.837529E01 3.223070E00
      vertex 1.221174E01 1.221174E01 3.223070E00
    endloop
  endfacet
  facet normal 6.065876E-01 -6.065876E-01 5.139093E-01
    outer loop
      vertex 2.941829E01 2.668767E01 0.000000E00
      vertex 1.221174E01 1.221174E01 3.223070E00
      vertex 1.325475E01 1.052412E01 0.000000E00
    endloop
  endfacet
  facet normal -8.506508E-01 -5.257311E-01 0.000000E00
    outer loop
      vertex 3.638901E01 2.650950E01 -7.148879E00
      vertex 3.634198E01 2.658559E01 -6.873596E00
      vertex 3.559222E01 2.779873E01 -8.836500E00
    endloop
  endfacet
  facet normal -8.506508E-01 -5.257311E-01 0.000000E00
    outer loop
      vertex 3.638901E01 2.650950E01 -7.148879E00
      vertex 3.559222E01 2.779873E01 -8.836500E00
      vertex 3.574439E01 2.755251E01 -8.836500E00
    endloop
  endfacet
  facet normal 0.000000E00 0.000000E00 1.000000E00
    outer loop
      vertex 5.088858E00 3.579404E00 1.687621E00
      vertex 4.994811E00 3.731577E00 1.687621E00
      vertex 4.418250E00 3.375243E00 1.687621E00
    endloop
  endfacet
  facet normal -5.226745E-01 2.819017E-01 -8.045762E-01
    outer loop
      vertex 4.113904E00 3.679588E00 -1.383276E00
      vertex 4.418250E00 3.375243E00 -1.687621E00
      vertex 3.773636E00 2.882801E00 -1.441401E00
    endloop
  endfacet
  facet normal -8.506508E-01 -5.257311E-01 0.000000E00
    outer loop
      vertex 3.405677E01 3.028314E01 1.043007E00
      vertex 3.417988E01 3.008394E01 1.213142E00
      vertex 3.296674E01 3.204684E01 1.962904E00
    endloop
  endfacet
  facet normal -8.506508E-01 -5.257311E-01 0.000000E00
    outer loop
      vertex 3.405677E01 3.028314E01 1.043007E00
      vertex 3.296674E01 3.204684E01 1.962904E00
      vertex 3.301376E01 3.197076E01 1.687621E00
    endloop
  endfacet
  facet normal -5.602485E-01 5.316093E-01 -6.352268E-01
    outer loop
      vertex 3.011300E01 2.556361E01 -7.772463E00
      vertex 4.152796E01 3.080464E01 -1.345395E01
      vertex 1.333084E01 1.040101E01 -5.660454E00
    endloop
  endfacet
  facet normal -5.602485E-01 5.316093E-01 -6.352268E-01
    outer loop
      vertex 3.011300E01 2.556361E01 -7.772463E00
      vertex 1.333084E01 1.040101E01 -5.660454E00
      vertex 1.365314E01 1.365314E01 -3.223070E00
    endloop
  endfacet
  facet normal 5.257311E-01 -8.506508E-01 0.000000E00
    outer loop
      vertex 6.037818E00 2.043955E00 7.027388E-01
      vertex 5.461257E00 1.687621E00 1.043007E00
      vertex 5.707478E00 1.839794E00 5.505661E-01
    endloop
  endfacet
  facet normal -8.506508E-01 -5.257311E-01 0.000000E00
    outer loop
      vertex 7.148879E00 5.461257E00 2.730629E00
      vertex 7.250959E00 5.296088E00 1.582472E00
      vertex 7.327045E00 5.172977E00 1.687621E00
    endloop
  endfacet
  facet normal 4.253254E-01 -6.881909E-01 5.877853E-01
    outer loop
      vertex 3.052936E01 3.221698E01 0.000000E00
      vertex 3.127912E01 3.100384E01 -1.962904E00
      vertex 3.296674E01 3.204684E01 -1.962904E00
    endloop
  endfacet
  facet normal 4.253254E-01 -6.881909E-01 5.877853E-01
    outer loop
      vertex 3.052936E01 3.221698E01 0.000000E00
      vertex 3.296674E01 3.204684E01 -1.962904E00
      vertex 3.221698E01 3.325999E01 0.000000E00
    endloop
  endfacet
  facet normal -4.357703E-01 4.134943E-01 -7.994540E-01
    outer loop
      vertex 4.379259E00 4.727560E00 -1.701343E-01
      vertex 4.455345E00 4.604450E00 -2.752830E-01
      vertex 3.773636E00 4.418250E00 0.000000E00
    endloop
  endfacet
  facet normal -1.624599E-01 2.628656E-01 -9.510565E-01
    outer loop
      vertex 4.034081E01 2.661961E01 -7.793492E00
      vertex 3.743201E01 2.482188E01 -7.793492E00
      vertex 3.638901E01 2.650950E01 -7.148879E00
    endloop
  endfacet
  facet normal -1.624599E-01 2.628656E-01 -9.510565E-01
    outer loop
      vertex 4.034081E01 2.661961E01 -7.793492E00
      vertex 3.638901E01 2.650950E01 -7.148879E00
      vertex 3.929780E01 2.830724E01 -7.148879E00
    endloop
  endfacet
  facet normal -5.638617E-02 -3.864766E-01 9.205740E-01
    outer loop
      vertex 4.910691E00 2.578456E00 1.383276E00
      vertex 4.664471E00 1.441401E00 8.908346E-01
      vertex 5.461257E00 1.687621E00 1.043007E00
    endloop
  endfacet
  facet normal 1.749581E-01 -5.746851E-01 -7.994540E-01
    outer loop
      vertex 5.088858E00 3.579404E00 -1.687621E00
      vertex 5.164944E00 3.456293E00 -1.582472E00
      vertex 4.418250E00 3.375243E00 -1.687621E00
    endloop
  endfacet
  facet normal -1.350454E-01 9.256148E-01 -3.535534E-01
    outer loop
      vertex 4.113904E00 3.679588E00 -1.383276E00
      vertex 4.113904E00 3.867684E00 -8.908346E-01
      vertex 4.512298E00 3.773636E00 -1.289228E00
    endloop
  endfacet
  facet normal 3.801990E-01 -4.356692E-01 8.158683E-01
    outer loop
      vertex 4.606346E00 2.882801E00 1.687621E00
      vertex 4.664471E00 1.441401E00 8.908346E-01
      vertex 4.910691E00 2.578456E00 1.383276E00
    endloop
  endfacet
  facet normal -4.633918E-02 -2.999134E-01 -9.528403E-01
    outer loop
      vertex 3.333607E01 2.034857E01 -9.764430E00
      vertex 4.152796E01 3.080464E01 -1.345395E01
      vertex 4.346180E01 2.767562E01 -1.256311E01
    endloop
  endfacet
  facet normal -8.506508E-01 -5.257311E-01 0.000000E00
    outer loop
      vertex 3.743201E01 2.482188E01 -7.793492E00
      vertex 3.755513E01 2.462268E01 -7.623359E00
      vertex 3.634198E01 2.658559E01 -6.873596E00
    endloop
  endfacet
  facet normal -8.506508E-01 -5.257311E-01 0.000000E00
    outer loop
      vertex 3.743201E01 2.482188E01 -7.793492E00
      vertex 3.634198E01 2.658559E01 -6.873596E00
      vertex 3.638901E01 2.650950E01 -7.148879E00
    endloop
  endfacet
  facet normal 7.275569E-02 -9.973499E-01 0.000000E00
    outer loop
      vertex 4.664471E00 1.441401E00 8.908346E-01
      vertex 4.664471E00 1.441401E00 -8.908346E-01
      vertex 5.461257E00 1.499525E00 5.505661E-01
    endloop
  endfacet
  facet normal -3.203250E-01 6.874530E-01 6.517670E-01
    outer loop
      vertex 3.638901E01 2.690789E01 -6.105871E00
      vertex 3.807663E01 3.028314E01 -8.836500E00
      vertex 3.011300E01 2.556361E01 -7.772463E00
    endloop
  endfacet
  facet normal 8.506508E-01 5.257311E-01 0.000000E00
    outer loop
      vertex 3.696556E01 3.208087E01 -1.043007E00
      vertex 3.743201E01 3.132614E01 -1.687621E00
      vertex 3.574439E01 3.405677E01 -2.730629E00
    endloop
  endfacet
  facet normal 8.506508E-01 5.257311E-01 0.000000E00
    outer loop
      vertex 3.696556E01 3.208087E01 -1.043007E00
      vertex 3.574439E01 3.405677E01 -2.730629E00
      vertex 3.592256E01 3.376849E01 -1.687621E00
    endloop
  endfacet
  facet normal -5.000000E-01 8.090170E-01 3.090170E-01
    outer loop
      vertex 6.711494E00 6.168961E00 1.701343E-01
      vertex 6.682432E00 6.215984E00 0.000000E00
      vertex 4.350196E00 4.774584E00 0.000000E00
    endloop
  endfacet
  facet normal -5.000000E-01 8.090170E-01 3.090170E-01
    outer loop
      vertex 6.711494E00 6.168961E00 1.701343E-01
      vertex 4.350196E00 4.774584E00 0.000000E00
      vertex 4.379259E00 4.727560E00 1.701343E-01
    endloop
  endfacet
  facet normal -8.506508E-01 -5.257311E-01 0.000000E00
    outer loop
      vertex 7.148879E00 5.461257E00 2.730629E00
      vertex 7.327045E00 5.172977E00 1.687621E00
      vertex 7.421093E00 5.020804E00 1.687621E00
    endloop
  endfacet
  facet normal -3.090170E-01 5.000000E-01 8.090170E-01
    outer loop
      vertex 4.994811E00 3.731577E00 1.687621E00
      vertex 4.918724E00 3.854687E00 1.582472E00
      vertex 4.418250E00 3.375243E00 1.687621E00
    endloop
  endfacet
  facet normal 5.000000E-01 -8.090170E-01 -3.090170E-01
    outer loop
      vertex 8.370053E00 3.485356E00 -1.043007E00
      vertex 8.399116E00 3.438332E00 -8.728731E-01
      vertex 6.066880E00 1.996931E00 -8.728731E-01
    endloop
  endfacet
  facet normal 5.000000E-01 -8.090170E-01 -3.090170E-01
    outer loop
      vertex 8.370053E00 3.485356E00 -1.043007E00
      vertex 6.066880E00 1.996931E00 -8.728731E-01
      vertex 6.037818E00 2.043955E00 -1.043007E00
    endloop
  endfacet
  facet normal 2.153537E-01 -9.122530E-01 3.484496E-01
    outer loop
      vertex 5.461257E00 1.499525E00 5.505661E-01
      vertex 5.461257E00 1.687621E00 1.043007E00
      vertex 4.664471E00 1.441401E00 8.908346E-01
    endloop
  endfacet
  facet normal 5.000000E-01 -8.090170E-01 3.090170E-01
    outer loop
      vertex 8.399116E00 3.438332E00 -8.728731E-01
      vertex 8.370053E00 3.485356E00 -7.027388E-01
      vertex 6.037818E00 2.043955E00 -7.027388E-01
    endloop
  endfacet
  facet normal 5.000000E-01 -8.090170E-01 3.090170E-01
    outer loop
      vertex 8.399116E00 3.438332E00 -8.728731E-01
      vertex 6.037818E00 2.043955E00 -7.027388E-01
      vertex 6.066880E00 1.996931E00 -8.728731E-01
    endloop
  endfacet
  facet normal 1.749581E-01 -5.746851E-01 7.994540E-01
    outer loop
      vertex 5.164944E00 3.456293E00 1.582472E00
      vertex 5.088858E00 3.579404E00 1.687621E00
      vertex 4.418250E00 3.375243E00 1.687621E00
    endloop
  endfacet
  facet normal -8.506508E-01 -5.257311E-01 0.000000E00
    outer loop
      vertex 8.836500E00 2.730629E00 -1.687621E00
      vertex 8.370053E00 3.485356E00 -1.043007E00
      vertex 8.293966E00 3.608466E00 -1.148156E00
    endloop
  endfacet
  facet normal 2.399078E-01 -7.323726E-01 6.372398E-01
    outer loop
      vertex 3.807663E01 2.417727E01 -7.148879E00
      vertex 3.204684E01 2.243459E01 -6.881628E00
      vertex 3.333607E01 2.034857E01 -9.764430E00
    endloop
  endfacet
  facet normal 3.535534E-01 1.350454E-01 -9.256148E-01
    outer loop
      vertex 5.156912E00 1.991967E00 -1.347353E00
      vertex 4.968816E00 2.484408E00 -1.347353E00
      vertex 5.461257E00 2.238187E00 -1.195180E00
    endloop
  endfacet
  facet normal -3.273268E-01 6.963296E-01 6.387349E-01
    outer loop
      vertex 3.011300E01 2.556361E01 -7.772463E00
      vertex 3.807663E01 3.028314E01 -8.836500E00
      vertex 4.023873E01 3.289066E01 -1.057115E01
    endloop
  endfacet
  facet normal 5.257311E-01 -8.506508E-01 0.000000E00
    outer loop
      vertex 3.743201E01 3.132614E01 1.687621E00
      vertex 3.470139E01 2.963852E01 1.687621E00
      vertex 3.470139E01 2.963852E01 -1.687621E00
    endloop
  endfacet
  facet normal 5.257311E-01 -8.506508E-01 0.000000E00
    outer loop
      vertex 3.743201E01 3.132614E01 1.687621E00
      vertex 3.470139E01 2.963852E01 -1.687621E00
      vertex 3.743201E01 3.132614E01 -1.687621E00
    endloop
  endfacet
  facet normal -6.065876E-01 6.065876E-01 5.139093E-01
    outer loop
      vertex 3.743201E01 3.743201E01 3.223070E00
      vertex 3.638901E01 3.911964E01 0.000000E00
      vertex 2.837529E01 2.837529E01 3.223070E00
    endloop
  endfacet
  facet normal -8.506508E-01 -5.257311E-01 0.000000E00
    outer loop
      vertex 3.236915E01 3.301376E01 0.000000E00
      vertex 3.221698E01 3.325999E01 0.000000E00
      vertex 3.296674E01 3.204684E01 -1.962904E00
    endloop
  endfacet
  facet normal -8.506508E-01 -5.257311E-01 0.000000E00
    outer loop
      vertex 3.236915E01 3.301376E01 0.000000E00
      vertex 3.296674E01 3.204684E01 -1.962904E00
      vertex 3.301376E01 3.197076E01 -1.687621E00
    endloop
  endfacet
  facet normal -8.506508E-01 -5.257311E-01 0.000000E00
    outer loop
      vertex 3.301376E01 3.197076E01 1.687621E00
      vertex 3.296674E01 3.204684E01 1.962904E00
      vertex 3.221698E01 3.325999E01 0.000000E00
    endloop
  endfacet
  facet normal -8.506508E-01 -5.257311E-01 0.000000E00
    outer loop
      vertex 3.301376E01 3.197076E01 1.687621E00
      vertex 3.221698E01 3.325999E01 0.000000E00
      vertex 3.236915E01 3.301376E01 0.000000E00
    endloop
  endfacet
  facet normal 5.000000E-01 -8.090170E-01 3.090170E-01
    outer loop
      vertex 8.399116E00 3.438332E00 8.728731E-01
      vertex 8.370053E00 3.485356E00 1.043007E00
      vertex 6.037818E00 2.043955E00 1.043007E00
    endloop
  endfacet
  facet normal 5.000000E-01 -8.090170E-01 3.090170E-01
    outer loop
      vertex 8.399116E00 3.438332E00 8.728731E-01
      vertex 6.037818E00 2.043955E00 1.043007E00
      vertex 6.066880E00 1.996931E00 8.728731E-01
    endloop
  endfacet
  facet normal 1.624599E-01 -2.628655E-01 9.510565E-01
    outer loop
      vertex 3.807663E01 2.417727E01 -7.148879E00
      vertex 4.080725E01 2.586489E01 -7.148879E00
      vertex 3.911964E01 2.859551E01 -6.105871E00
    endloop
  endfacet
  facet normal 1.624599E-01 -2.628655E-01 9.510565E-01
    outer loop
      vertex 3.807663E01 2.417727E01 -7.148879E00
      vertex 3.911964E01 2.859551E01 -6.105871E00
      vertex 3.638901E01 2.690789E01 -6.105871E00
    endloop
  endfacet
  facet normal 6.654796E-02 -6.714802E-01 -7.380282E-01
    outer loop
      vertex 5.156912E00 1.991967E00 -1.347353E00
      vertex 5.461257E00 1.687621E00 -1.043007E00
      vertex 4.664471E00 1.441401E00 -8.908346E-01
    endloop
  endfacet
  facet normal 1.624598E-01 -2.628656E-01 9.510565E-01
    outer loop
      vertex 8.199919E00 3.760639E00 1.148156E00
      vertex 7.497180E00 4.897695E00 1.582472E00
      vertex 5.164944E00 3.456293E00 1.582472E00
    endloop
  endfacet
  facet normal 1.624598E-01 -2.628656E-01 9.510565E-01
    outer loop
      vertex 8.199919E00 3.760639E00 1.148156E00
      vertex 5.164944E00 3.456293E00 1.582472E00
      vertex 5.867683E00 2.319238E00 1.148156E00
    endloop
  endfacet
  facet normal -8.506508E-01 -5.257311E-01 0.000000E00
    outer loop
      vertex 8.836500E00 2.730629E00 1.687621E00
      vertex 7.148879E00 5.461257E00 2.730629E00
      vertex 7.421093E00 5.020804E00 1.687621E00
    endloop
  endfacet
  facet normal -8.506508E-01 -5.257311E-01 0.000000E00
    outer loop
      vertex 8.836500E00 2.730629E00 1.687621E00
      vertex 7.421093E00 5.020804E00 1.687621E00
      vertex 7.497180E00 4.897695E00 1.582472E00
    endloop
  endfacet
  facet normal -8.506508E-01 -5.257311E-01 0.000000E00
    outer loop
      vertex 8.836500E00 2.730629E00 1.687621E00
      vertex 7.497180E00 4.897695E00 1.582472E00
      vertex 8.199919E00 3.760639E00 1.148156E00
    endloop
  endfacet
  facet normal -8.506508E-01 -5.257311E-01 0.000000E00
    outer loop
      vertex 8.836500E00 2.730629E00 1.687621E00
      vertex 8.199919E00 3.760639E00 1.148156E00
      vertex 8.293966E00 3.608466E00 1.148156E00
    endloop
  endfacet
  facet normal 8.240201E-01 -3.466252E-01 -4.481538E-01
    outer loop
      vertex 3.574439E01 3.405677E01 2.730629E00
      vertex 3.638901E01 3.911964E01 0.000000E00
      vertex 3.743201E01 3.743201E01 3.223070E00
    endloop
  endfacet
  facet normal 2.791697E-01 -2.825499E-01 9.177308E-01
    outer loop
      vertex 3.574439E01 3.405677E01 2.730629E00
      vertex 2.837529E01 2.837529E01 3.223070E00
      vertex 3.470139E01 2.963852E01 1.687621E00
    endloop
  endfacet
  facet normal 7.608452E-01 -3.804226E-01 5.257311E-01
    outer loop
      vertex 3.638901E01 3.911964E01 0.000000E00
      vertex 3.470139E01 3.574439E01 0.000000E00
      vertex 3.574439E01 3.405677E01 -2.730629E00
    endloop
  endfacet
  facet normal -6.065876E-01 6.065876E-01 5.139093E-01
    outer loop
      vertex 1.116873E01 1.389936E01 0.000000E00
      vertex 1.221174E01 1.221174E01 3.223070E00
      vertex 2.837529E01 2.837529E01 3.223070E00
    endloop
  endfacet
  facet normal -6.065876E-01 6.065876E-01 5.139093E-01
    outer loop
      vertex 1.116873E01 1.389936E01 0.000000E00
      vertex 2.837529E01 2.837529E01 3.223070E00
      vertex 3.638901E01 3.911964E01 0.000000E00
    endloop
  endfacet
  facet normal 4.253254E-01 -6.881909E-01 5.877852E-01
    outer loop
      vertex 3.865319E01 2.935024E01 -8.836500E00
      vertex 3.574439E01 2.755251E01 -8.836500E00
      vertex 3.638901E01 2.650950E01 -1.052412E01
    endloop
  endfacet
  facet normal 4.253254E-01 -6.881909E-01 5.877852E-01
    outer loop
      vertex 3.865319E01 2.935024E01 -8.836500E00
      vertex 3.638901E01 2.650950E01 -1.052412E01
      vertex 3.929780E01 2.830724E01 -1.052412E01
    endloop
  endfacet
  facet normal -4.253254E-01 6.881909E-01 5.877853E-01
    outer loop
      vertex 7.221897E00 5.343112E00 1.412338E00
      vertex 6.787580E00 6.045850E00 2.752830E-01
      vertex 4.455345E00 4.604450E00 2.752830E-01
    endloop
  endfacet
  facet normal -4.253254E-01 6.881909E-01 5.877853E-01
    outer loop
      vertex 7.221897E00 5.343112E00 1.412338E00
      vertex 4.455345E00 4.604450E00 2.752830E-01
      vertex 4.889662E00 3.901711E00 1.412338E00
    endloop
  endfacet
  facet normal 0.000000E00 7.071068E-01 -7.071068E-01
    outer loop
      vertex 4.512298E00 3.773636E00 -1.289228E00
      vertex 4.418250E00 3.375243E00 -1.687621E00
      vertex 4.113904E00 3.679588E00 -1.383276E00
    endloop
  endfacet
  facet normal 4.253254E-01 -6.881909E-01 5.877852E-01
    outer loop
      vertex 3.527795E01 3.481150E01 0.000000E00
      vertex 3.236915E01 3.301376E01 0.000000E00
      vertex 3.301376E01 3.197076E01 -1.687621E00
    endloop
  endfacet
  facet normal 4.253254E-01 -6.881909E-01 5.877852E-01
    outer loop
      vertex 3.527795E01 3.481150E01 0.000000E00
      vertex 3.301376E01 3.197076E01 -1.687621E00
      vertex 3.592256E01 3.376849E01 -1.687621E00
    endloop
  endfacet
  facet normal -5.000000E-01 8.090170E-01 -3.090170E-01
    outer loop
      vertex 7.221897E00 5.343112E00 -1.412338E00
      vertex 7.250959E00 5.296088E00 -1.582472E00
      vertex 4.918724E00 3.854687E00 -1.582472E00
    endloop
  endfacet
  facet normal -5.000000E-01 8.090170E-01 -3.090170E-01
    outer loop
      vertex 7.221897E00 5.343112E00 -1.412338E00
      vertex 4.918724E00 3.854687E00 -1.582472E00
      vertex 4.889662E00 3.901711E00 -1.412338E00
    endloop
  endfacet
  facet normal 3.090170E-01 -5.000000E-01 8.090170E-01
    outer loop
      vertex 8.370053E00 3.485356E00 1.043007E00
      vertex 8.293966E00 3.608466E00 1.148156E00
      vertex 5.961731E00 2.167066E00 1.148156E00
    endloop
  endfacet
  facet normal 3.090170E-01 -5.000000E-01 8.090170E-01
    outer loop
      vertex 8.370053E00 3.485356E00 1.043007E00
      vertex 5.961731E00 2.167066E00 1.148156E00
      vertex 6.037818E00 2.043955E00 1.043007E00
    endloop
  endfacet
  facet normal -5.000000E-01 8.090170E-01 3.090170E-01
    outer loop
      vertex 4.379259E00 4.727560E00 1.701343E-01
      vertex 4.350196E00 4.774584E00 0.000000E00
      vertex 3.773636E00 4.418250E00 0.000000E00
    endloop
  endfacet
  facet normal 3.090170E-01 -5.000000E-01 -8.090170E-01
    outer loop
      vertex 7.421093E00 5.020804E00 -1.687621E00
      vertex 7.497180E00 4.897695E00 -1.582472E00
      vertex 5.164944E00 3.456293E00 -1.582472E00
    endloop
  endfacet
  facet normal 3.090170E-01 -5.000000E-01 -8.090170E-01
    outer loop
      vertex 7.421093E00 5.020804E00 -1.687621E00
      vertex 5.164944E00 3.456293E00 -1.582472E00
      vertex 5.088858E00 3.579404E00 -1.687621E00
    endloop
  endfacet
  facet normal -4.357703E-01 4.134943E-01 7.994540E-01
    outer loop
      vertex 4.455345E00 4.604450E00 2.752830E-01
      vertex 4.379259E00 4.727560E00 1.701343E-01
      vertex 3.773636E00 4.418250E00 0.000000E00
    endloop
  endfacet
  facet normal 1.624598E-01 -2.628656E-01 -9.510565E-01
    outer loop
      vertex 7.497180E00 4.897695E00 -1.582472E00
      vertex 8.199919E00 3.760639E00 -1.148156E00
      vertex 5.867683E00 2.319238E00 -1.148156E00
    endloop
  endfacet
  facet normal 1.624598E-01 -2.628656E-01 -9.510565E-01
    outer loop
      vertex 7.497180E00 4.897695E00 -1.582472E00
      vertex 5.867683E00 2.319238E00 -1.148156E00
      vertex 5.164944E00 3.456293E00 -1.582472E00
    endloop
  endfacet
  facet normal 2.351141E-01 4.702282E-01 8.506508E-01
    outer loop
      vertex 4.080725E01 2.586489E01 -1.052412E01
      vertex 4.152796E01 3.080464E01 -1.345395E01
      vertex 3.911964E01 2.859551E01 -1.156713E01
    endloop
  endfacet
  facet normal -2.349759E-01 5.597046E-01 7.946805E-01
    outer loop
      vertex 3.773636E00 4.230154E00 4.924413E-01
      vertex 3.773636E00 2.882801E00 1.441401E00
      vertex 4.077981E00 3.925809E00 7.967867E-01
    endloop
  endfacet
  facet normal -1.304061E-01 -8.059541E-02 9.881794E-01
    outer loop
      vertex 5.961731E00 2.167066E00 1.148156E00
      vertex 5.867683E00 2.319238E00 1.148156E00
      vertex 5.461257E00 1.687621E00 1.043007E00
    endloop
  endfacet
  facet normal 5.970590E-01 -7.993581E-01 6.743304E-02
    outer loop
      vertex 3.333607E01 2.034857E01 -9.764430E00
      vertex 4.346180E01 2.767562E01 -1.256311E01
      vertex 4.080725E01 2.586489E01 -1.052412E01
    endloop
  endfacet
  facet normal 7.608452E-01 -3.804226E-01 -5.257311E-01
    outer loop
      vertex 3.470139E01 3.574439E01 0.000000E00
      vertex 3.638901E01 3.911964E01 0.000000E00
      vertex 3.574439E01 3.405677E01 2.730629E00
    endloop
  endfacet
  facet normal 8.506508E-01 5.257311E-01 0.000000E00
    outer loop
      vertex 3.865319E01 2.935024E01 -8.836500E00
      vertex 3.807663E01 3.028314E01 -8.836500E00
      vertex 3.911964E01 2.859551E01 -6.105871E00
    endloop
  endfacet
  facet normal 8.506508E-01 5.257311E-01 0.000000E00
    outer loop
      vertex 3.865319E01 2.935024E01 -8.836500E00
      vertex 3.911964E01 2.859551E01 -6.105871E00
      vertex 3.929780E01 2.830724E01 -7.148879E00
    endloop
  endfacet
  facet normal 2.863938E-01 -8.075886E-01 -5.155379E-01
    outer loop
      vertex 2.941829E01 2.668767E01 0.000000E00
      vertex 2.837529E01 2.837529E01 -3.223070E00
      vertex 3.470139E01 2.963852E01 -1.687621E00
    endloop
  endfacet
  facet normal 3.636836E-01 -8.800494E-01 3.053643E-01
    outer loop
      vertex 6.066880E00 1.996931E00 -8.728731E-01
      vertex 6.037818E00 2.043955E00 -7.027388E-01
      vertex 5.461257E00 1.687621E00 -1.043007E00
    endloop
  endfacet
  facet normal -8.506508E-01 -5.257311E-01 0.000000E00
    outer loop
      vertex 3.405677E01 3.028314E01 -1.043007E00
      vertex 3.417988E01 3.008394E01 -1.213142E00
      vertex 3.417988E01 3.008394E01 1.213142E00
    endloop
  endfacet
  facet normal -8.506508E-01 -5.257311E-01 0.000000E00
    outer loop
      vertex 3.405677E01 3.028314E01 -1.043007E00
      vertex 3.417988E01 3.008394E01 1.213142E00
      vertex 3.405677E01 3.028314E01 1.043007E00
    endloop
  endfacet
  facet normal -8.506508E-01 -5.257311E-01 0.000000E00
    outer loop
      vertex 8.836500E00 2.730629E00 1.687621E00
      vertex 8.293966E00 3.608466E00 1.148156E00
      vertex 8.370053E00 3.485356E00 1.043007E00
    endloop
  endfacet
  facet normal 1.624599E-01 -2.628655E-01 9.510565E-01
    outer loop
      vertex 5.164944E00 3.456293E00 1.582472E00
      vertex 4.418250E00 3.375243E00 1.687621E00
      vertex 4.910691E00 3.129022E00 1.535449E00
    endloop
  endfacet
  facet normal -6.611281E-01 4.908164E-01 -5.674583E-01
    outer loop
      vertex 1.365314E01 1.365314E01 -3.223070E00
      vertex 1.333084E01 1.040101E01 -5.660454E00
      vertex 7.148879E00 5.461257E00 -2.730629E00
    endloop
  endfacet
  facet normal -5.257311E-01 8.506508E-01 0.000000E00
    outer loop
      vertex 3.249226E01 2.904093E01 -1.213142E00
      vertex 3.249226E01 2.904093E01 1.213142E00
      vertex 3.417988E01 3.008394E01 1.213142E00
    endloop
  endfacet
  facet normal -5.257311E-01 8.506508E-01 0.000000E00
    outer loop
      vertex 3.249226E01 2.904093E01 -1.213142E00
      vertex 3.417988E01 3.008394E01 1.213142E00
      vertex 3.417988E01 3.008394E01 -1.213142E00
    endloop
  endfacet
  facet normal -8.506508E-01 -5.257311E-01 0.000000E00
    outer loop
      vertex 3.223070E00 3.773636E00 0.000000E00
      vertex 3.773636E00 2.882801E00 -1.441401E00
      vertex 4.664471E00 1.441401E00 -8.908346E-01
    endloop
  endfacet
  facet normal -8.506508E-01 -5.257311E-01 0.000000E00
    outer loop
      vertex 3.223070E00 3.773636E00 0.000000E00
      vertex 4.664471E00 1.441401E00 -8.908346E-01
      vertex 4.664471E00 1.441401E00 8.908346E-01
    endloop
  endfacet
  facet normal -8.506508E-01 -5.257311E-01 0.000000E00
    outer loop
      vertex 3.223070E00 3.773636E00 0.000000E00
      vertex 4.664471E00 1.441401E00 8.908346E-01
      vertex 3.773636E00 2.882801E00 1.441401E00
    endloop
  endfacet
  facet normal 5.257311E-01 -8.506508E-01 0.000000E00
    outer loop
      vertex 8.370053E00 3.485356E00 -7.027388E-01
      vertex 8.370053E00 3.485356E00 7.027388E-01
      vertex 6.037818E00 2.043955E00 7.027388E-01
    endloop
  endfacet
  facet normal 5.257311E-01 -8.506508E-01 0.000000E00
    outer loop
      vertex 8.370053E00 3.485356E00 -7.027388E-01
      vertex 6.037818E00 2.043955E00 7.027388E-01
      vertex 6.037818E00 2.043955E00 -7.027388E-01
    endloop
  endfacet
  facet normal 2.697321E-01 -2.697321E-01 9.243858E-01
    outer loop
      vertex 3.574439E01 3.405677E01 2.730629E00
      vertex 3.743201E01 3.743201E01 3.223070E00
      vertex 2.837529E01 2.837529E01 3.223070E00
    endloop
  endfacet
  facet normal 3.354562E-01 4.438877E-01 8.309229E-01
    outer loop
      vertex 4.152796E01 3.080464E01 -1.345395E01
      vertex 4.080725E01 2.586489E01 -1.052412E01
      vertex 4.346180E01 2.767562E01 -1.256311E01
    endloop
  endfacet
  facet normal -7.132716E-01 4.990535E-01 4.921273E-01
    outer loop
      vertex 7.148879E00 5.461257E00 2.730629E00
      vertex 1.221174E01 1.221174E01 3.223070E00
      vertex 1.116873E01 1.389936E01 0.000000E00
    endloop
  endfacet
  facet normal 8.506508E-01 5.257311E-01 0.000000E00
    outer loop
      vertex 3.127912E01 3.100384E01 1.962904E00
      vertex 3.249226E01 2.904093E01 1.213142E00
      vertex 3.249226E01 2.904093E01 -1.213142E00
    endloop
  endfacet
  facet normal 8.506508E-01 5.257311E-01 0.000000E00
    outer loop
      vertex 3.127912E01 3.100384E01 1.962904E00
      vertex 3.249226E01 2.904093E01 -1.213142E00
      vertex 3.127912E01 3.100384E01 -1.962904E00
    endloop
  endfacet
  facet normal 8.506508E-01 5.257311E-01 0.000000E00
    outer loop
      vertex 3.127912E01 3.100384E01 1.962904E00
      vertex 3.127912E01 3.100384E01 -1.962904E00
      vertex 3.052936E01 3.221698E01 0.000000E00
    endloop
  endfacet
  facet normal -1.624599E-01 2.628655E-01 9.510565E-01
    outer loop
      vertex 3.465436E01 2.554258E01 -1.079940E01
      vertex 3.586750E01 2.357968E01 -1.004964E01
      vertex 3.755513E01 2.462268E01 -1.004964E01
    endloop
  endfacet
  facet normal -1.624599E-01 2.628655E-01 9.510565E-01
    outer loop
      vertex 3.465436E01 2.554258E01 -1.079940E01
      vertex 3.755513E01 2.462268E01 -1.004964E01
      vertex 3.634198E01 2.658559E01 -1.079940E01
    endloop
  endfacet
  facet normal 5.974057E-01 -7.974666E-01 8.457811E-02
    outer loop
      vertex 3.333607E01 2.034857E01 -9.764430E00
      vertex 4.080725E01 2.586489E01 -1.052412E01
      vertex 3.807663E01 2.417727E01 -7.148879E00
    endloop
  endfacet
  facet normal 5.720614E-01 -2.185080E-01 7.905694E-01
    outer loop
      vertex 4.606346E00 2.882801E00 1.687621E00
      vertex 4.910691E00 2.578456E00 1.383276E00
      vertex 4.910691E00 3.129022E00 1.535449E00
    endloop
  endfacet
  facet normal 4.253254E-01 -6.881909E-01 5.877853E-01
    outer loop
      vertex 3.390460E01 2.675572E01 -8.836500E00
      vertex 3.465436E01 2.554258E01 -1.079940E01
      vertex 3.634198E01 2.658559E01 -1.079940E01
    endloop
  endfacet
  facet normal 4.253254E-01 -6.881909E-01 5.877853E-01
    outer loop
      vertex 3.390460E01 2.675572E01 -8.836500E00
      vertex 3.634198E01 2.658559E01 -1.079940E01
      vertex 3.559222E01 2.779873E01 -8.836500E00
    endloop
  endfacet
  facet normal -7.380282E-01 6.303514E-01 2.407728E-01
    outer loop
      vertex 3.773636E00 4.230154E00 4.924413E-01
      vertex 3.773636E00 4.418250E00 0.000000E00
      vertex 3.223070E00 3.773636E00 0.000000E00
    endloop
  endfacet
  facet normal -5.257311E-01 8.506508E-01 0.000000E00
    outer loop
      vertex 3.586750E01 2.357968E01 -1.004964E01
      vertex 3.586750E01 2.357968E01 -7.623359E00
      vertex 3.755513E01 2.462268E01 -7.623359E00
    endloop
  endfacet
  facet normal -5.257311E-01 8.506508E-01 0.000000E00
    outer loop
      vertex 3.586750E01 2.357968E01 -1.004964E01
      vertex 3.755513E01 2.462268E01 -7.623359E00
      vertex 3.755513E01 2.462268E01 -1.004964E01
    endloop
  endfacet
  facet normal 5.257311E-01 -8.506508E-01 0.000000E00
    outer loop
      vertex 4.080725E01 2.586489E01 -1.052412E01
      vertex 4.080725E01 2.586489E01 -7.148879E00
      vertex 3.807663E01 2.417727E01 -7.148879E00
    endloop
  endfacet
  facet normal 1.247209E-01 -2.858348E-01 9.501280E-01
    outer loop
      vertex 3.204684E01 2.243459E01 -6.881628E00
      vertex 3.807663E01 2.417727E01 -7.148879E00
      vertex 3.638901E01 2.690789E01 -6.105871E00
    endloop
  endfacet
  facet normal -4.144815E-01 8.501508E-01 -3.247287E-01
    outer loop
      vertex 4.113904E00 3.679588E00 -1.383276E00
      vertex 3.223070E00 3.773636E00 0.000000E00
      vertex 4.113904E00 3.867684E00 -8.908346E-01
    endloop
  endfacet
  facet normal -2.819017E-01 -1.076769E-01 9.533820E-01
    outer loop
      vertex 4.606346E00 2.882801E00 1.687621E00
      vertex 4.418250E00 3.375243E00 1.687621E00
      vertex 3.773636E00 2.882801E00 1.441401E00
    endloop
  endfacet
  facet normal 3.636836E-01 -8.800494E-01 -3.053643E-01
    outer loop
      vertex 6.037818E00 2.043955E00 7.027388E-01
      vertex 6.066880E00 1.996931E00 8.728731E-01
      vertex 5.461257E00 1.687621E00 1.043007E00
    endloop
  endfacet
  facet normal -8.506508E-01 -5.257311E-01 0.000000E00
    outer loop
      vertex 6.105871E00 7.148879E00 0.000000E00
      vertex 6.682432E00 6.215984E00 0.000000E00
      vertex 6.711494E00 6.168961E00 1.701343E-01
    endloop
  endfacet
  facet normal -1.624599E-01 2.628655E-01 9.510565E-01
    outer loop
      vertex 3.127912E01 3.100384E01 -1.962904E00
      vertex 3.249226E01 2.904093E01 -1.213142E00
      vertex 3.417988E01 3.008394E01 -1.213142E00
    endloop
  endfacet
  facet normal -1.624599E-01 2.628655E-01 9.510565E-01
    outer loop
      vertex 3.127912E01 3.100384E01 -1.962904E00
      vertex 3.417988E01 3.008394E01 -1.213142E00
      vertex 3.296674E01 3.204684E01 -1.962904E00
    endloop
  endfacet
  facet normal -1.304061E-01 -8.059541E-02 -9.881794E-01
    outer loop
      vertex 5.867683E00 2.319238E00 -1.148156E00
      vertex 5.961731E00 2.167066E00 -1.148156E00
      vertex 5.461257E00 1.687621E00 -1.043007E00
    endloop
  endfacet
  facet normal -6.244958E-01 7.188585E-01 -3.053642E-01
    outer loop
      vertex 4.889662E00 3.901711E00 -1.412338E00
      vertex 4.918724E00 3.854687E00 -1.582472E00
      vertex 4.418250E00 3.375243E00 -1.687621E00
    endloop
  endfacet
  facet normal 3.090170E-01 -5.000000E-01 -8.090170E-01
    outer loop
      vertex 8.293966E00 3.608466E00 -1.148156E00
      vertex 8.370053E00 3.485356E00 -1.043007E00
      vertex 6.037818E00 2.043955E00 -1.043007E00
    endloop
  endfacet
  facet normal 3.090170E-01 -5.000000E-01 -8.090170E-01
    outer loop
      vertex 8.293966E00 3.608466E00 -1.148156E00
      vertex 6.037818E00 2.043955E00 -1.043007E00
      vertex 5.961731E00 2.167066E00 -1.148156E00
    endloop
  endfacet
  facet normal 2.144225E-01 -2.300644E-01 9.492594E-01
    outer loop
      vertex 8.836500E00 2.730629E00 1.687621E00
      vertex 1.221174E01 1.221174E01 3.223070E00
      vertex 7.148879E00 5.461257E00 2.730629E00
    endloop
  endfacet
  facet normal 8.506508E-01 5.257311E-01 0.000000E00
    outer loop
      vertex 3.696556E01 3.208087E01 1.043007E00
      vertex 3.743201E01 3.132614E01 1.687621E00
      vertex 3.743201E01 3.132614E01 -1.687621E00
    endloop
  endfacet
  facet normal 8.506508E-01 5.257311E-01 0.000000E00
    outer loop
      vertex 3.696556E01 3.208087E01 1.043007E00
      vertex 3.743201E01 3.132614E01 -1.687621E00
      vertex 3.696556E01 3.208087E01 -1.043007E00
    endloop
  endfacet
  facet normal -1.624599E-01 2.628656E-01 9.510565E-01
    outer loop
      vertex 3.592256E01 3.376849E01 -1.687621E00
      vertex 3.301376E01 3.197076E01 -1.687621E00
      vertex 3.405677E01 3.028314E01 -1.043007E00
    endloop
  endfacet
  facet normal -1.624599E-01 2.628656E-01 9.510565E-01
    outer loop
      vertex 3.592256E01 3.376849E01 -1.687621E00
      vertex 3.405677E01 3.028314E01 -1.043007E00
      vertex 3.696556E01 3.208087E01 -1.043007E00
    endloop
  endfacet
  facet normal 5.770073E-01 -8.167390E-01 0.000000E00
    outer loop
      vertex 8.836500E00 2.730629E00 1.687621E00
      vertex 8.836500E00 2.730629E00 -1.687621E00
      vertex 1.526468E01 7.271989E00 -4.769619E00
    endloop
  endfacet
  facet normal -8.506508E-01 -5.257311E-01 0.000000E00
    outer loop
      vertex 3.301376E01 3.197076E01 -1.687621E00
      vertex 3.296674E01 3.204684E01 -1.962904E00
      vertex 3.417988E01 3.008394E01 -1.213142E00
    endloop
  endfacet
  facet normal -8.506508E-01 -5.257311E-01 0.000000E00
    outer loop
      vertex 3.301376E01 3.197076E01 -1.687621E00
      vertex 3.417988E01 3.008394E01 -1.213142E00
      vertex 3.405677E01 3.028314E01 -1.043007E00
    endloop
  endfacet
  facet normal -1.767692E-01 -3.690257E-01 -9.124542E-01
    outer loop
      vertex 1.333084E01 1.040101E01 -5.660454E00
      vertex 1.526468E01 7.271989E00 -4.769619E00
      vertex 8.836500E00 2.730629E00 -1.687621E00
    endloop
  endfacet
  facet normal -1.624599E-01 2.628655E-01 -9.510565E-01
    outer loop
      vertex 3.586750E01 2.357968E01 -7.623359E00
      vertex 3.465436E01 2.554258E01 -6.873596E00
      vertex 3.634198E01 2.658559E01 -6.873596E00
    endloop
  endfacet
  facet normal -1.624599E-01 2.628655E-01 -9.510565E-01
    outer loop
      vertex 3.586750E01 2.357968E01 -7.623359E00
      vertex 3.634198E01 2.658559E01 -6.873596E00
      vertex 3.755513E01 2.462268E01 -7.623359E00
    endloop
  endfacet
  facet normal -8.506508E-01 -5.257311E-01 0.000000E00
    outer loop
      vertex 6.105871E00 7.148879E00 0.000000E00
      vertex 6.711494E00 6.168961E00 -1.701343E-01
      vertex 6.682432E00 6.215984E00 0.000000E00
    endloop
  endfacet
  facet normal 7.729797E-01 -2.970163E-01 5.606101E-01
    outer loop
      vertex 8.836500E00 2.730629E00 1.687621E00
      vertex 1.526468E01 7.271989E00 -4.769619E00
      vertex 1.397545E01 9.358004E00 -1.886818E00
    endloop
  endfacet
  facet normal -7.704951E-01 3.670586E-01 -5.211576E-01
    outer loop
      vertex 3.773636E00 2.882801E00 -1.441401E00
      vertex 3.223070E00 3.773636E00 0.000000E00
      vertex 4.113904E00 3.679588E00 -1.383276E00
    endloop
  endfacet
  facet normal 8.506508E-01 5.257311E-01 0.000000E00
    outer loop
      vertex 3.527795E01 3.481150E01 0.000000E00
      vertex 3.470139E01 3.574439E01 0.000000E00
      vertex 3.574439E01 3.405677E01 2.730629E00
    endloop
  endfacet
  facet normal 8.506508E-01 5.257311E-01 0.000000E00
    outer loop
      vertex 3.527795E01 3.481150E01 0.000000E00
      vertex 3.574439E01 3.405677E01 2.730629E00
      vertex 3.592256E01 3.376849E01 1.687621E00
    endloop
  endfacet
  facet normal -1.023851E-01 -4.095405E-01 -9.065285E-01
    outer loop
      vertex 8.836500E00 2.730629E00 -1.687621E00
      vertex 7.148879E00 5.461257E00 -2.730629E00
      vertex 1.333084E01 1.040101E01 -5.660454E00
    endloop
  endfacet
  facet normal 4.253254E-01 -6.881909E-01 -5.877853E-01
    outer loop
      vertex 3.465436E01 2.554258E01 -6.873596E00
      vertex 3.390460E01 2.675572E01 -8.836500E00
      vertex 3.559222E01 2.779873E01 -8.836500E00
    endloop
  endfacet
  facet normal 4.253254E-01 -6.881909E-01 -5.877853E-01
    outer loop
      vertex 3.465436E01 2.554258E01 -6.873596E00
      vertex 3.559222E01 2.779873E01 -8.836500E00
      vertex 3.634198E01 2.658559E01 -6.873596E00
    endloop
  endfacet
  facet normal -6.253322E-01 5.340974E-01 5.689460E-01
    outer loop
      vertex 4.077981E00 3.925809E00 7.967867E-01
      vertex 3.773636E00 2.882801E00 1.441401E00
      vertex 4.418250E00 3.375243E00 1.687621E00
    endloop
  endfacet
  facet normal 7.905694E-01 -5.720614E-01 -2.185080E-01
    outer loop
      vertex 5.461257E00 1.499525E00 5.505661E-01
      vertex 5.461257E00 1.687621E00 5.812481E-02
      vertex 5.707478E00 1.839794E00 5.505661E-01
    endloop
  endfacet
  facet normal 4.633918E-02 2.999134E-01 9.528403E-01
    outer loop
      vertex 3.011300E01 2.556361E01 -7.772463E00
      vertex 1.365314E01 1.365314E01 -3.223070E00
      vertex 1.397545E01 9.358004E00 -1.886818E00
    endloop
  endfacet
  facet normal 4.633918E-02 2.999134E-01 9.528403E-01
    outer loop
      vertex 3.011300E01 2.556361E01 -7.772463E00
      vertex 1.397545E01 9.358004E00 -1.886818E00
      vertex 3.204684E01 2.243459E01 -6.881628E00
    endloop
  endfacet
  facet normal 7.905694E-01 -5.720614E-01 2.185080E-01
    outer loop
      vertex 5.707478E00 1.839794E00 5.505661E-01
      vertex 5.461257E00 1.687621E00 1.043007E00
      vertex 5.461257E00 1.499525E00 5.505661E-01
    endloop
  endfacet
  facet normal -1.624599E-01 2.628656E-01 -9.510565E-01
    outer loop
      vertex 3.696556E01 3.208087E01 1.043007E00
      vertex 3.405677E01 3.028314E01 1.043007E00
      vertex 3.301376E01 3.197076E01 1.687621E00
    endloop
  endfacet
  facet normal -1.624599E-01 2.628656E-01 -9.510565E-01
    outer loop
      vertex 3.696556E01 3.208087E01 1.043007E00
      vertex 3.301376E01 3.197076E01 1.687621E00
      vertex 3.592256E01 3.376849E01 1.687621E00
    endloop
  endfacet
  facet normal 4.253254E-01 -6.881909E-01 -5.877852E-01
    outer loop
      vertex 3.592256E01 3.376849E01 1.687621E00
      vertex 3.301376E01 3.197076E01 1.687621E00
      vertex 3.236915E01 3.301376E01 0.000000E00
    endloop
  endfacet
  facet normal 4.253254E-01 -6.881909E-01 -5.877852E-01
    outer loop
      vertex 3.592256E01 3.376849E01 1.687621E00
      vertex 3.236915E01 3.301376E01 0.000000E00
      vertex 3.527795E01 3.481150E01 0.000000E00
    endloop
  endfacet
  facet normal 2.697321E-01 -2.697321E-01 -9.243858E-01
    outer loop
      vertex 2.837529E01 2.837529E01 -3.223070E00
      vertex 3.743201E01 3.743201E01 -3.223070E00
      vertex 3.574439E01 3.405677E01 -2.730629E00
    endloop
  endfacet
  facet normal -5.638617E-02 -3.864766E-01 -9.205740E-01
    outer loop
      vertex 4.968816E00 2.484408E00 -1.347353E00
      vertex 3.773636E00 2.882801E00 -1.441401E00
      vertex 4.418250E00 3.375243E00 -1.687621E00
    endloop
  endfacet
  facet normal 3.090170E-01 -5.000000E-01 8.090170E-01
    outer loop
      vertex 7.497180E00 4.897695E00 1.582472E00
      vertex 7.421093E00 5.020804E00 1.687621E00
      vertex 5.088858E00 3.579404E00 1.687621E00
    endloop
  endfacet
  facet normal 3.090170E-01 -5.000000E-01 8.090170E-01
    outer loop
      vertex 7.497180E00 4.897695E00 1.582472E00
      vertex 5.088858E00 3.579404E00 1.687621E00
      vertex 5.164944E00 3.456293E00 1.582472E00
    endloop
  endfacet
  facet normal -7.704951E-01 3.670586E-01 5.211576E-01
    outer loop
      vertex 3.223070E00 3.773636E00 0.000000E00
      vertex 3.773636E00 2.882801E00 1.441401E00
      vertex 3.773636E00 4.230154E00 4.924413E-01
    endloop
  endfacet
  facet normal -8.506508E-01 -5.257311E-01 0.000000E00
    outer loop
      vertex 8.836500E00 2.730629E00 1.687621E00
      vertex 8.370053E00 3.485356E00 1.043007E00
      vertex 8.399116E00 3.438332E00 8.728731E-01
    endloop
  endfacet
  facet normal 8.506508E-01 5.257311E-01 0.000000E00
    outer loop
      vertex 3.592256E01 3.376849E01 -1.687621E00
      vertex 3.574439E01 3.405677E01 -2.730629E00
      vertex 3.470139E01 3.574439E01 0.000000E00
    endloop
  endfacet
  facet normal 8.506508E-01 5.257311E-01 0.000000E00
    outer loop
      vertex 3.592256E01 3.376849E01 -1.687621E00
      vertex 3.470139E01 3.574439E01 0.000000E00
      vertex 3.527795E01 3.481150E01 0.000000E00
    endloop
  endfacet
  facet normal -6.244958E-01 7.188585E-01 3.053642E-01
    outer loop
      vertex 4.918724E00 3.854687E00 1.582472E00
      vertex 4.889662E00 3.901711E00 1.412338E00
      vertex 4.418250E00 3.375243E00 1.687621E00
    endloop
  endfacet
  facet normal 1.624599E-01 -2.628655E-01 9.510565E-01
    outer loop
      vertex 3.470139E01 2.963852E01 1.687621E00
      vertex 3.743201E01 3.132614E01 1.687621E00
      vertex 3.574439E01 3.405677E01 2.730629E00
    endloop
  endfacet
  facet normal -8.506508E-01 -5.257311E-01 0.000000E00
    outer loop
      vertex 3.743201E01 2.482188E01 -9.879507E00
      vertex 3.755513E01 2.462268E01 -1.004964E01
      vertex 3.755513E01 2.462268E01 -7.623359E00
    endloop
  endfacet
  facet normal -8.506508E-01 -5.257311E-01 0.000000E00
    outer loop
      vertex 3.743201E01 2.482188E01 -9.879507E00
      vertex 3.755513E01 2.462268E01 -7.623359E00
      vertex 3.743201E01 2.482188E01 -7.793492E00
    endloop
  endfacet
  facet normal -2.493374E-01 -4.761922E-01 -8.432508E-01
    outer loop
      vertex 4.664471E00 1.441401E00 -8.908346E-01
      vertex 3.773636E00 2.882801E00 -1.441401E00
      vertex 5.156912E00 1.991967E00 -1.347353E00
    endloop
  endfacet
  facet normal -4.253254E-01 6.881909E-01 5.877853E-01
    outer loop
      vertex 4.418250E00 3.375243E00 1.687621E00
      vertex 4.889662E00 3.901711E00 1.412338E00
      vertex 4.455345E00 4.604450E00 2.752830E-01
    endloop
  endfacet
  facet normal -4.253254E-01 6.881909E-01 5.877853E-01
    outer loop
      vertex 4.418250E00 3.375243E00 1.687621E00
      vertex 4.455345E00 4.604450E00 2.752830E-01
      vertex 4.172029E00 4.324202E00 3.983934E-01
    endloop
  endfacet
  facet normal -4.253254E-01 6.881909E-01 5.877853E-01
    outer loop
      vertex 4.418250E00 3.375243E00 1.687621E00
      vertex 4.172029E00 4.324202E00 3.983934E-01
      vertex 4.077981E00 3.925809E00 7.967867E-01
    endloop
  endfacet
  facet normal -4.253254E-01 6.881910E-01 5.877852E-01
    outer loop
      vertex 4.455345E00 4.604450E00 2.752830E-01
      vertex 3.773636E00 4.418250E00 0.000000E00
      vertex 4.172029E00 4.324202E00 3.983934E-01
    endloop
  endfacet
  facet normal 5.720614E-01 -2.185080E-01 -7.905694E-01
    outer loop
      vertex 5.461257E00 2.238187E00 -1.195180E00
      vertex 5.461257E00 1.687621E00 -1.043007E00
      vertex 5.156912E00 1.991967E00 -1.347353E00
    endloop
  endfacet
  facet normal -4.253254E-01 6.881910E-01 5.877852E-01
    outer loop
      vertex 3.638901E01 2.690789E01 -6.105871E00
      vertex 3.911964E01 2.859551E01 -6.105871E00
      vertex 3.807663E01 3.028314E01 -8.836500E00
    endloop
  endfacet
  facet normal 1.624599E-01 -2.628655E-01 -9.510565E-01
    outer loop
      vertex 4.418250E00 3.375243E00 -1.687621E00
      vertex 5.164944E00 3.456293E00 -1.582472E00
      vertex 5.867683E00 2.319238E00 -1.148156E00
    endloop
  endfacet
  facet normal 1.624599E-01 -2.628655E-01 -9.510565E-01
    outer loop
      vertex 4.418250E00 3.375243E00 -1.687621E00
      vertex 5.867683E00 2.319238E00 -1.148156E00
      vertex 5.461257E00 2.238187E00 -1.195180E00
    endloop
  endfacet
  facet normal 1.624599E-01 -2.628655E-01 -9.510565E-01
    outer loop
      vertex 4.418250E00 3.375243E00 -1.687621E00
      vertex 5.461257E00 2.238187E00 -1.195180E00
      vertex 4.968816E00 2.484408E00 -1.347353E00
    endloop
  endfacet
  facet normal 3.090170E-01 -5.000000E-01 -8.090170E-01
    outer loop
      vertex 5.961731E00 2.167066E00 -1.148156E00
      vertex 6.037818E00 2.043955E00 -1.043007E00
      vertex 5.461257E00 1.687621E00 -1.043007E00
    endloop
  endfacet
  facet normal -4.633917E-02 -2.999134E-01 -9.528403E-01
    outer loop
      vertex 4.152796E01 3.080464E01 -1.345395E01
      vertex 3.333607E01 2.034857E01 -9.764430E00
      vertex 1.526468E01 7.271989E00 -4.769619E00
    endloop
  endfacet
  facet normal -4.633917E-02 -2.999134E-01 -9.528403E-01
    outer loop
      vertex 4.152796E01 3.080464E01 -1.345395E01
      vertex 1.526468E01 7.271989E00 -4.769619E00
      vertex 1.333084E01 1.040101E01 -5.660454E00
    endloop
  endfacet
  facet normal 1.624599E-01 -2.628655E-01 9.510565E-01
    outer loop
      vertex 5.461257E00 1.687621E00 1.043007E00
      vertex 5.867683E00 2.319238E00 1.148156E00
      vertex 5.164944E00 3.456293E00 1.582472E00
    endloop
  endfacet
  facet normal 1.624599E-01 -2.628655E-01 9.510565E-01
    outer loop
      vertex 5.461257E00 1.687621E00 1.043007E00
      vertex 5.164944E00 3.456293E00 1.582472E00
      vertex 4.910691E00 3.129022E00 1.535449E00
    endloop
  endfacet
  facet normal 1.624599E-01 -2.628655E-01 9.510565E-01
    outer loop
      vertex 5.461257E00 1.687621E00 1.043007E00
      vertex 4.910691E00 3.129022E00 1.535449E00
      vertex 4.910691E00 2.578456E00 1.383276E00
    endloop
  endfacet
  facet normal -6.669224E-01 5.001918E-01 -5.522887E-01
    outer loop
      vertex 6.105871E00 7.148879E00 0.000000E00
      vertex 1.116873E01 1.389936E01 0.000000E00
      vertex 1.365314E01 1.365314E01 -3.223070E00
    endloop
  endfacet
  facet normal -2.756301E-01 1.017851E-01 9.558598E-01
    outer loop
      vertex 3.638901E01 2.690789E01 -6.105871E00
      vertex 3.011300E01 2.556361E01 -7.772463E00
      vertex 3.204684E01 2.243459E01 -6.881628E00
    endloop
  endfacet
endsolid vcg
